<?xml version="1.0" encoding="UTF-8"?>
<svg version="1.1" xmlns="http://www.w3.org/2000/svg" width="512" height="512">
<path d="M0 0 C1.0498558 -0.00860046 2.09971161 -0.01720093 3.18138123 -0.02606201 C4.90892639 -0.03245193 4.90892639 -0.03245193 6.67137146 -0.03897095 C7.8846965 -0.04714844 9.09802155 -0.05532593 10.34811401 -0.06375122 C14.37440156 -0.08861759 18.4006515 -0.10528146 22.42698669 -0.11953735 C23.81574446 -0.12489906 25.20450217 -0.13027658 26.59325981 -0.13566971 C32.37430833 -0.15729934 38.1553541 -0.17603216 43.93643284 -0.1872921 C52.20469852 -0.20350482 60.47249231 -0.23661565 68.74058014 -0.29369295 C74.56240471 -0.33250264 80.38410369 -0.35193805 86.20605415 -0.35721266 C89.67851404 -0.36085263 93.15047034 -0.37272648 96.62278938 -0.4053154 C100.50500639 -0.4412278 104.38664064 -0.4369972 108.26902771 -0.42959595 C109.97531845 -0.45420395 109.97531845 -0.45420395 111.71607971 -0.47930908 C120.21375255 -0.41322074 127.12781081 1.4924381 133.36058044 7.50546265 C133.87620544 8.25569702 134.39183044 9.0059314 134.92308044 9.77890015 C135.72745544 10.91198608 135.72745544 10.91198608 136.54808044 12.06796265 C137.00183044 12.75632202 137.45558044 13.4446814 137.92308044 14.15390015 C138.91308044 15.63890015 138.91308044 15.63890015 139.92308044 17.15390015 C140.25179138 16.50163452 140.58050232 15.8493689 140.91917419 15.17733765 C145.00125338 7.67693198 149.71081705 2.89132128 157.92308044 0.15390015 C159.61319138 0.05361015 161.30694762 0.0103285 163 0 C164.0498558 -0.00860046 165.09971161 -0.01720093 166.18138123 -0.02606201 C167.90892639 -0.03245193 167.90892639 -0.03245193 169.67137146 -0.03897095 C170.8846965 -0.04714844 172.09802155 -0.05532593 173.34811401 -0.06375122 C177.37440156 -0.08861759 181.4006515 -0.10528146 185.42698669 -0.11953735 C186.81574446 -0.12489906 188.20450217 -0.13027658 189.59325981 -0.13566971 C195.37430833 -0.15729934 201.1553541 -0.17603216 206.93643284 -0.1872921 C215.20469852 -0.20350482 223.47249231 -0.23661565 231.74058014 -0.29369295 C237.56240471 -0.33250264 243.38410369 -0.35193805 249.20605415 -0.35721266 C252.67851404 -0.36085263 256.15047034 -0.37272648 259.62278938 -0.4053154 C263.50500639 -0.4412278 267.38664064 -0.4369972 271.26902771 -0.42959595 C272.97531845 -0.45420395 272.97531845 -0.45420395 274.71607971 -0.47930908 C282.0696303 -0.42211884 287.84064873 0.85189514 293.92308044 5.15390015 C296.23719432 7.66676234 298.0892425 10.28031608 299.92308044 13.15390015 C300.91373221 14.49419372 301.91132065 15.82946823 302.92308044 17.15390015 C303.19120544 16.57382202 303.45933044 15.9937439 303.73558044 15.39608765 C307.63438788 7.62412283 312.67496159 3.02779511 320.92308044 0.15390015 C323.48376179 -0.10336876 323.48376179 -0.10336876 326.25396729 -0.11352539 C327.30946274 -0.12205536 328.36495819 -0.13058533 329.45243835 -0.13937378 C330.60008667 -0.13846741 331.74773499 -0.13756104 332.93016052 -0.1366272 C334.1469902 -0.14334442 335.36381989 -0.15006165 336.61752319 -0.15698242 C339.94831304 -0.17271113 343.27885349 -0.17933664 346.60966325 -0.18061399 C348.69341675 -0.1820379 350.7771443 -0.18631207 352.86089134 -0.19160843 C360.13855517 -0.21010056 367.41614585 -0.2182802 374.6938324 -0.21670532 C381.4643466 -0.21550462 388.23454166 -0.23659481 395.00497514 -0.26819265 C400.82852253 -0.29439714 406.65196596 -0.30507086 412.47557181 -0.3037945 C415.94895545 -0.30328602 419.42205542 -0.30890516 422.89538002 -0.3301506 C426.77298417 -0.35322218 430.65015529 -0.34398654 434.52781677 -0.3319397 C435.6693924 -0.34317871 436.81096802 -0.35441772 437.98713684 -0.36599731 C446.09932106 -0.30203509 451.26595034 1.0921168 457.61058044 6.40390015 C463.831225 13.80142341 466.076644 19.30189206 466.05730152 28.95832253 C466.05965375 29.75347757 466.06200598 30.54863261 466.06442949 31.36788327 C466.07111918 34.04881729 466.07066128 36.72970285 466.07025146 39.41064453 C466.0735501 41.34562675 466.07727567 43.28060828 466.08139294 45.21558893 C466.09142099 50.54598612 466.09513103 55.87637205 466.09778225 61.20677733 C466.1016829 66.95065144 466.11126138 72.6945166 466.11999512 78.43838501 C466.1397659 92.31601022 466.14982634 106.19363618 466.15872291 120.07127196 C466.16310464 126.60403749 466.16847173 133.13680222 466.17371178 139.66956711 C466.19072437 161.38153494 466.20524402 183.09350182 466.21246052 204.80547523 C466.21293527 206.20963805 466.21341116 207.61380086 466.21388818 209.01796367 C466.21412456 209.71430076 466.21436093 210.41063785 466.21460447 211.12807607 C466.21580567 214.65605259 466.21702112 218.1840291 466.21824646 221.71200562 C466.21848661 222.41214255 466.21872676 223.11227948 466.21897419 223.83363268 C466.22686682 246.53287814 466.25029794 269.23207135 466.2828024 291.931294 C466.31710626 315.93093414 466.33681103 339.93054238 466.34010476 363.93020761 C466.34227127 377.01243058 466.35104067 390.09457675 466.37656593 403.17677689 C466.39825132 414.31679052 466.40633395 425.45670869 466.39659915 436.59674104 C466.39204828 442.28098027 466.39398666 447.96502245 466.4133606 453.64923477 C466.4309484 458.85433396 466.43002999 464.0590917 466.4144633 469.26419429 C466.41208059 471.14580558 466.41644507 473.02744023 466.42829195 474.90901573 C466.49296375 485.86003841 466.11176026 494.4220933 460.17308044 503.96640015 C454.89667598 509.09623782 449.26506921 512.26254109 441.84616089 512.30780029 C440.79630508 512.31640076 439.74644928 512.32500122 438.66477966 512.3338623 C436.9372345 512.34025223 436.9372345 512.34025223 435.17478943 512.34677124 C433.96146439 512.35494873 432.74813934 512.36312622 431.49804688 512.37155151 C427.47175933 512.39641788 423.44550939 512.41308175 419.41917419 512.42733765 C418.03041643 512.43269936 416.64165872 512.43807687 415.25290108 512.44347 C409.47185256 512.46509963 403.69080679 512.48383245 397.90972805 512.49509239 C389.64146236 512.51130511 381.37366858 512.54441594 373.10558075 512.60149324 C367.28375618 512.64030294 361.4620572 512.65973835 355.64010674 512.66501296 C352.16764685 512.66865293 348.69569055 512.68052677 345.22337151 512.71311569 C341.3411545 512.74902809 337.45952025 512.74479749 333.57713318 512.73739624 C332.43960602 512.75380157 331.30207886 512.77020691 330.13008118 512.78710938 C321.63240833 512.72102103 314.71835008 510.8153622 308.48558044 504.80233765 C307.96995544 504.05210327 307.45433044 503.3018689 306.92308044 502.52890015 C306.38683044 501.77350952 305.85058044 501.0181189 305.29808044 500.23983765 C304.84433044 499.55147827 304.39058044 498.8631189 303.92308044 498.15390015 C303.26308044 497.16390015 302.60308044 496.17390015 301.92308044 495.15390015 C301.59436951 495.80616577 301.26565857 496.4584314 300.92698669 497.13046265 C296.84490751 504.63086831 292.13534384 509.41647901 283.92308044 512.15390015 C282.23296951 512.25419015 280.53921327 512.29747179 278.84616089 512.30780029 C277.79630508 512.31640076 276.74644928 512.32500122 275.66477966 512.3338623 C273.9372345 512.34025223 273.9372345 512.34025223 272.17478943 512.34677124 C270.96146439 512.35494873 269.74813934 512.36312622 268.49804688 512.37155151 C264.47175933 512.39641788 260.44550939 512.41308175 256.41917419 512.42733765 C255.03041643 512.43269936 253.64165872 512.43807687 252.25290108 512.44347 C246.47185256 512.46509963 240.69080679 512.48383245 234.90972805 512.49509239 C226.64146236 512.51130511 218.37366858 512.54441594 210.10558075 512.60149324 C204.28375618 512.64030294 198.4620572 512.65973835 192.64010674 512.66501296 C189.16764685 512.66865293 185.69569055 512.68052677 182.22337151 512.71311569 C178.3411545 512.74902809 174.45952025 512.74479749 170.57713318 512.73739624 C169.43960602 512.75380157 168.30207886 512.77020691 167.13008118 512.78710938 C159.77653059 512.72991913 154.00551216 511.45590515 147.92308044 507.15390015 C145.60896657 504.64103796 143.75691839 502.02748421 141.92308044 499.15390015 C140.93242868 497.81360658 139.93484024 496.47833206 138.92308044 495.15390015 C138.65495544 495.73397827 138.38683044 496.3140564 138.11058044 496.91171265 C134.21177301 504.68367746 129.1711993 509.28000518 120.92308044 512.15390015 C118.3623991 512.41116905 118.3623991 512.41116905 115.5921936 512.42132568 C114.53669815 512.42985565 113.4812027 512.43838562 112.39372253 512.44717407 C111.24607422 512.4462677 110.0984259 512.44536133 108.91600037 512.44442749 C107.69917068 512.45114471 106.482341 512.45786194 105.2286377 512.46478271 C101.89784785 512.48051142 98.56730739 512.48713694 95.23649764 512.48841429 C93.15274414 512.4898382 91.06901659 512.49411236 88.98526955 512.49940872 C81.70760572 512.51790085 74.43001504 512.52608049 67.15232849 512.52450562 C60.38181429 512.52330491 53.61161923 512.54439511 46.84118575 512.57599294 C41.01763836 512.60219743 35.19419493 512.61287115 29.37058908 512.6115948 C25.89720544 512.61108632 22.42410547 512.61670545 18.95078087 512.6379509 C15.07317672 512.66102247 11.1960056 512.65178683 7.31834412 512.63973999 C6.17676849 512.650979 5.03519287 512.66221802 3.85902405 512.67379761 C-4.25316017 512.60983538 -9.41978945 511.21568349 -15.76441956 505.90390015 C-21.98506411 498.50637689 -24.23048311 493.00590823 -24.21114063 483.34947777 C-24.21349286 482.55432272 -24.21584509 481.75916768 -24.2182686 480.93991703 C-24.22495829 478.258983 -24.22450039 475.57809744 -24.22409058 472.89715576 C-24.22738922 470.96217354 -24.23111478 469.02719201 -24.23523206 467.09221137 C-24.2452601 461.76181418 -24.24897014 456.43142825 -24.25162137 451.10102296 C-24.25552201 445.35714885 -24.26510049 439.61328369 -24.27383423 433.86941528 C-24.29360501 419.99179007 -24.30366545 406.11416412 -24.31256202 392.23652834 C-24.31694375 385.7037628 -24.32231084 379.17099808 -24.32755089 372.63823318 C-24.34456348 350.92626536 -24.35908313 329.21429847 -24.36629963 307.50232506 C-24.36677439 306.09816225 -24.36725027 304.69399943 -24.36772729 303.28983662 C-24.36796367 302.59349953 -24.36820004 301.89716244 -24.36844358 301.17972422 C-24.36964478 297.6517477 -24.37086023 294.12377119 -24.37208557 290.59579468 C-24.37232572 289.89565775 -24.37256587 289.19552082 -24.3728133 288.47416762 C-24.38070593 265.77492215 -24.40413705 243.07572894 -24.43664152 220.3765063 C-24.47094537 196.37686615 -24.49065014 172.37725791 -24.49394387 148.37759268 C-24.49611038 135.29536971 -24.50487978 122.21322355 -24.53040504 109.13102341 C-24.55209043 97.99100977 -24.56017306 86.8510916 -24.55043826 75.71105926 C-24.54588739 70.02682002 -24.54782577 64.34277785 -24.56719971 58.65856552 C-24.58478751 53.45346633 -24.5838691 48.2487086 -24.56830242 43.043606 C-24.5659197 41.16199472 -24.57028418 39.28036006 -24.58213107 37.39878456 C-24.64680287 26.44776189 -24.26559937 17.88570699 -18.32691956 8.34140015 C-13.05051509 3.21156247 -7.41890832 0.04525921 0 0 Z " fill="#FCCA81" transform="translate(35.07691955566406,-0.153900146484375)"/>
<path d="M0 0 C1.0498558 -0.00860046 2.09971161 -0.01720093 3.18138123 -0.02606201 C4.90892639 -0.03245193 4.90892639 -0.03245193 6.67137146 -0.03897095 C7.8846965 -0.04714844 9.09802155 -0.05532593 10.34811401 -0.06375122 C14.37440156 -0.08861759 18.4006515 -0.10528146 22.42698669 -0.11953735 C23.81574446 -0.12489906 25.20450217 -0.13027658 26.59325981 -0.13566971 C32.37430833 -0.15729934 38.1553541 -0.17603216 43.93643284 -0.1872921 C52.20469852 -0.20350482 60.47249231 -0.23661565 68.74058014 -0.29369295 C74.56240471 -0.33250264 80.38410369 -0.35193805 86.20605415 -0.35721266 C89.67851404 -0.36085263 93.15047034 -0.37272648 96.62278938 -0.4053154 C100.50500639 -0.4412278 104.38664064 -0.4369972 108.26902771 -0.42959595 C109.97531845 -0.45420395 109.97531845 -0.45420395 111.71607971 -0.47930908 C120.22192421 -0.41315719 127.00780343 1.54607277 133.36058044 7.3999939 C134.13401794 8.48473999 134.13401794 8.48473999 134.92308044 9.59140015 C135.72745544 10.67227905 135.72745544 10.67227905 136.54808044 11.7749939 C139.64047002 17.12517927 140.21415871 22.16097306 140.18034935 28.23844624 C140.18385542 29.03958531 140.1873615 29.84072439 140.19097382 30.66614041 C140.20029088 33.35543287 140.1953637 36.04450893 140.19050598 38.73381042 C140.19424208 40.67948209 140.19884344 42.62515226 140.20423663 44.57082003 C140.21648694 49.92144842 140.21620377 55.27201438 140.21384788 60.6226536 C140.21344022 66.39170017 140.22447389 72.16072658 140.23396301 77.92976379 C140.25058495 89.23377352 140.25607309 100.5377624 140.25718777 111.84178332 C140.25813764 121.02873328 140.2622449 130.21567635 140.26858902 139.40262413 C140.28333741 161.20303366 140.29563841 183.00343784 140.2945919 204.80385303 C140.29454517 205.84963351 140.29454517 205.84963351 140.29449749 206.91654086 C140.29433127 210.45017549 140.29413319 213.98381013 140.29392807 217.51744477 C140.29388818 218.21923747 140.29384829 218.92103018 140.29380719 219.64408933 C140.29372632 221.06328517 140.29364272 222.48248101 140.29355641 223.90167684 C140.29233087 245.98260378 140.30734462 268.0634693 140.33470154 290.14437866 C140.36542416 314.95211621 140.3826086 339.75981309 140.38077509 364.56757087 C140.38011065 377.70282416 140.3856267 390.83800818 140.4071312 403.97324562 C140.42532174 415.15606398 140.42970777 426.33878166 140.41611235 437.52160839 C140.4095721 443.22801141 140.40950379 448.93422117 140.42681885 454.64060593 C140.44250757 459.86469995 140.43972877 465.08844681 140.42225058 470.31253215 C140.41917145 472.20213857 140.42284734 474.09177063 140.43397073 475.98134682 C140.53380175 494.14329251 140.53380175 494.14329251 135.92308044 501.15390015 C135.22183044 502.22640015 134.52058044 503.29890015 133.79808044 504.40390015 C126.26985494 511.6048115 118.45592053 512.88961763 108.34837341 512.78500366 C107.1308136 512.79215897 105.91325378 512.79931427 104.65879822 512.8066864 C101.34846959 512.82061101 98.03972503 512.81235835 94.72952795 512.7925961 C91.24993949 512.77609423 87.770398 512.78503806 84.29078674 512.79011536 C78.45210389 512.79462235 72.61374287 512.77885074 66.77513123 512.75082397 C60.04138911 512.718748 53.30822613 512.71880381 46.57444274 512.73603874 C40.07210389 512.75194259 33.56997575 512.74514757 27.06764603 512.72810173 C24.31102455 512.72126014 21.55457346 512.72223356 18.79795456 512.72964668 C14.94474728 512.73878244 11.09212733 512.71469123 7.23899841 512.68734741 C6.10527802 512.69387329 4.97155762 512.70039917 3.80348206 512.7071228 C-4.26987201 512.60990863 -9.44998093 511.1904069 -15.76441956 505.90390015 C-21.98506411 498.50637689 -24.23048311 493.00590823 -24.21114063 483.34947777 C-24.21349286 482.55432272 -24.21584509 481.75916768 -24.2182686 480.93991703 C-24.22495829 478.258983 -24.22450039 475.57809744 -24.22409058 472.89715576 C-24.22738922 470.96217354 -24.23111478 469.02719201 -24.23523206 467.09221137 C-24.2452601 461.76181418 -24.24897014 456.43142825 -24.25162137 451.10102296 C-24.25552201 445.35714885 -24.26510049 439.61328369 -24.27383423 433.86941528 C-24.29360501 419.99179007 -24.30366545 406.11416412 -24.31256202 392.23652834 C-24.31694375 385.7037628 -24.32231084 379.17099808 -24.32755089 372.63823318 C-24.34456348 350.92626536 -24.35908313 329.21429847 -24.36629963 307.50232506 C-24.36677439 306.09816225 -24.36725027 304.69399943 -24.36772729 303.28983662 C-24.36796367 302.59349953 -24.36820004 301.89716244 -24.36844358 301.17972422 C-24.36964478 297.6517477 -24.37086023 294.12377119 -24.37208557 290.59579468 C-24.37232572 289.89565775 -24.37256587 289.19552082 -24.3728133 288.47416762 C-24.38070593 265.77492215 -24.40413705 243.07572894 -24.43664152 220.3765063 C-24.47094537 196.37686615 -24.49065014 172.37725791 -24.49394387 148.37759268 C-24.49611038 135.29536971 -24.50487978 122.21322355 -24.53040504 109.13102341 C-24.55209043 97.99100977 -24.56017306 86.8510916 -24.55043826 75.71105926 C-24.54588739 70.02682002 -24.54782577 64.34277785 -24.56719971 58.65856552 C-24.58478751 53.45346633 -24.5838691 48.2487086 -24.56830242 43.043606 C-24.5659197 41.16199472 -24.57028418 39.28036006 -24.58213107 37.39878456 C-24.64680287 26.44776189 -24.26559937 17.88570699 -18.32691956 8.34140015 C-13.05051509 3.21156247 -7.41890832 0.04525921 0 0 Z " fill="#0E80AC" transform="translate(35.07691955566406,-0.153900146484375)"/>
<path d="M0 0 C1.0498558 -0.00860046 2.09971161 -0.01720093 3.18138123 -0.02606201 C4.90892639 -0.03245193 4.90892639 -0.03245193 6.67137146 -0.03897095 C7.8846965 -0.04714844 9.09802155 -0.05532593 10.34811401 -0.06375122 C14.37440156 -0.08861759 18.4006515 -0.10528146 22.42698669 -0.11953735 C23.81574446 -0.12489906 25.20450217 -0.13027658 26.59325981 -0.13566971 C32.37430833 -0.15729934 38.1553541 -0.17603216 43.93643284 -0.1872921 C52.20469852 -0.20350482 60.47249231 -0.23661565 68.74058014 -0.29369295 C74.56240471 -0.33250264 80.38410369 -0.35193805 86.20605415 -0.35721266 C89.67851404 -0.36085263 93.15047034 -0.37272648 96.62278938 -0.4053154 C100.50500639 -0.4412278 104.38664064 -0.4369972 108.26902771 -0.42959595 C109.97531845 -0.45420395 109.97531845 -0.45420395 111.71607971 -0.47930908 C119.07482652 -0.42207843 124.83255465 0.858784 130.92308044 5.15390015 C133.26511825 7.65873318 135.18484426 10.20007311 136.92308044 13.15390015 C137.27150671 13.69088197 137.61993297 14.2278638 137.9789176 14.7811178 C139.33100787 18.17906546 139.20285336 21.48121713 139.18593597 25.08326149 C139.19004124 25.89192352 139.19414651 26.70058556 139.19837618 27.5337525 C139.20974218 30.26068069 139.20679855 32.98740768 139.20396423 35.71435547 C139.20913004 37.68233771 139.21515594 39.65031785 139.22197104 41.61829507 C139.23813539 47.03991436 139.24169153 52.46148072 139.24316597 57.88312125 C139.24686289 63.72516541 139.26195551 69.56718196 139.2754364 75.40921021 C139.30403993 88.856901 139.31565868 102.30458167 139.32482029 115.75229762 C139.32996009 123.06387503 139.33820696 130.37544869 139.34646606 137.68702316 C139.37096491 159.76957427 139.39152286 181.85212225 139.39821625 203.93468666 C139.39865951 205.36283017 139.39910308 206.79097368 139.39954695 208.21911719 C139.39998823 209.65071127 139.4004292 211.08230536 139.40086985 212.51389945 C139.40175495 215.38592442 139.40264918 218.25794939 139.40354919 221.12997437 C139.40387737 222.19811787 139.40387737 222.19811787 139.40421217 223.28784004 C139.41147267 246.37513286 139.44330968 269.46230006 139.48992992 292.54954478 C139.53913001 316.9590181 139.56656211 341.36841962 139.56895208 365.77794397 C139.57065458 379.08375903 139.58231359 392.38943659 139.61859131 405.6952095 C139.64937383 417.0255666 139.6596459 428.35570841 139.6431151 439.68609937 C139.63529488 445.46763902 139.63719553 451.24874503 139.6652298 457.03023148 C139.69066585 462.3242922 139.68835093 467.61759254 139.66404837 472.91165189 C139.66012694 474.82556754 139.66632616 476.73953666 139.6837371 478.65337713 C139.84275245 497.31605585 139.84275245 497.31605585 132.92308044 505.15390015 C130.47386169 507.4078064 130.47386169 507.4078064 128.23558044 508.71640015 C127.48921326 509.17143921 126.74284607 509.62647827 125.97386169 510.0953064 C122.47814014 511.89976457 119.72006342 512.28416747 115.84616089 512.30780029 C114.79630508 512.31640076 113.74644928 512.32500122 112.66477966 512.3338623 C110.9372345 512.34025223 110.9372345 512.34025223 109.17478943 512.34677124 C107.96146439 512.35494873 106.74813934 512.36312622 105.49804688 512.37155151 C101.47175933 512.39641788 97.44550939 512.41308175 93.41917419 512.42733765 C92.03041643 512.43269936 90.64165872 512.43807687 89.25290108 512.44347 C83.47185256 512.46509963 77.69080679 512.48383245 71.90972805 512.49509239 C63.64146236 512.51130511 55.37366858 512.54441594 47.10558075 512.60149324 C41.28375618 512.64030294 35.4620572 512.65973835 29.64010674 512.66501296 C26.16764685 512.66865293 22.69569055 512.68052677 19.22337151 512.71311569 C15.3411545 512.74902809 11.45952025 512.74479749 7.57713318 512.73739624 C6.43960602 512.75380157 5.30207886 512.77020691 4.13008118 512.78710938 C-3.22866563 512.72987872 -8.98639376 511.44901629 -15.07691956 507.15390015 C-17.41895736 504.64906711 -19.33868337 502.10772718 -21.07691956 499.15390015 C-21.42534582 498.61691832 -21.77377208 498.0799365 -22.13275671 497.5266825 C-23.48484698 494.12873483 -23.35669247 490.82658316 -23.33977509 487.2245388 C-23.34388035 486.41587677 -23.34798562 485.60721474 -23.35221529 484.77404779 C-23.36358129 482.0471196 -23.36063766 479.32039261 -23.35780334 476.59344482 C-23.36296915 474.62546258 -23.36899505 472.65748244 -23.37581015 470.68950522 C-23.3919745 465.26788593 -23.39553064 459.84631957 -23.39700508 454.42467904 C-23.400702 448.58263489 -23.41579462 442.74061833 -23.42927551 436.89859009 C-23.45787905 423.45089929 -23.4694978 410.00321863 -23.4786594 396.55550267 C-23.4837992 389.24392526 -23.49204607 381.9323516 -23.50030518 374.62077713 C-23.52480402 352.53822602 -23.54536197 330.45567804 -23.55205536 308.37311363 C-23.55249862 306.94497012 -23.55294219 305.51682661 -23.55338606 304.08868311 C-23.55382734 302.65708902 -23.55426831 301.22549493 -23.55470896 299.79390085 C-23.55559406 296.92187587 -23.55648829 294.0498509 -23.55738831 291.17782593 C-23.55760709 290.46573026 -23.55782587 289.75363458 -23.55805128 289.01996026 C-23.56531178 265.93266743 -23.59714879 242.84550023 -23.64376903 219.75825551 C-23.69296912 195.34878219 -23.72040122 170.93938067 -23.72279119 146.52985632 C-23.72449369 133.22404127 -23.7361527 119.9183637 -23.77243042 106.61259079 C-23.80321294 95.2822337 -23.81348501 83.95209188 -23.79695421 72.62170093 C-23.78913399 66.84016128 -23.79103465 61.05905527 -23.81906891 55.27756882 C-23.84450496 49.98350809 -23.84219004 44.69020776 -23.81788749 39.3961484 C-23.81396605 37.48223275 -23.82016527 35.56826363 -23.83757621 33.65442316 C-23.99659156 14.99174444 -23.99659156 14.99174444 -17.07691956 7.15390015 C-14.62770081 4.8999939 -14.62770081 4.8999939 -12.38941956 3.59140015 C-11.64305237 3.13636108 -10.89668518 2.68132202 -10.12770081 2.2124939 C-6.63197925 0.40803572 -3.87390253 0.02363282 0 0 Z " fill="#FC7E42" transform="translate(198.07691955566406,-0.153900146484375)"/>
<path d="M0 0 C1.11251884 -0.0098568 1.11251884 -0.0098568 2.24751282 -0.01991272 C4.70765277 -0.03965949 7.16773159 -0.05131233 9.62792969 -0.0612793 C10.88820606 -0.06739259 10.88820606 -0.06739259 12.17394257 -0.07362938 C16.62230687 -0.09449762 21.07064028 -0.10879514 25.51904297 -0.11816406 C30.11024133 -0.12922035 34.70095393 -0.16360878 39.29198074 -0.20333576 C42.82479746 -0.22950574 46.35749862 -0.2378563 49.89040375 -0.24144554 C51.58245875 -0.24631181 53.27450857 -0.25792703 54.96646881 -0.27648354 C57.33871179 -0.30088029 59.70970074 -0.29990935 62.08203125 -0.29296875 C62.77732437 -0.30577881 63.47261749 -0.31858887 64.1889801 -0.33178711 C69.16238632 -0.27892136 72.01332168 0.99519572 75.79980469 4.17700195 C78.35781749 7.84366229 78.08506492 11.75777861 78.06723022 16.05856323 C78.07176134 16.8581238 78.07629245 17.65768437 78.08096087 18.48147404 C78.09363271 21.16373331 78.09198271 23.84579026 78.09033203 26.52807617 C78.09631553 28.44994366 78.10312066 30.37180874 78.11068726 32.29367065 C78.12837229 37.5168234 78.13304368 42.73991063 78.13431883 47.96309042 C78.13621698 52.32199838 78.14357352 56.68089105 78.15066302 61.03979313 C78.16695397 71.32300472 78.17183131 81.60618129 78.17041016 91.8894043 C78.16920842 102.50038878 78.19031512 113.11116997 78.22189748 123.722103 C78.2480401 132.82964278 78.2587783 141.93711609 78.25749934 151.04469311 C78.25698913 156.485362 78.26270504 161.92585024 78.28385544 167.36648178 C78.30320392 172.48338375 78.30338545 177.59993211 78.28882217 182.71684647 C78.28672879 184.59457668 78.29146641 186.47232882 78.30354309 188.35002136 C78.31896686 190.91425543 78.30970697 193.4772659 78.29428101 196.04147339 C78.30456813 196.78389373 78.31485526 197.52631407 78.32545412 198.29123199 C78.25782848 203.38084267 76.98422292 206.2467593 73.79980469 210.17700195 C69.79594761 213.40600067 66.5214524 213.56826204 61.45849609 213.61279297 C60.73749222 213.6228688 60.01648834 213.63294464 59.27363586 213.64332581 C56.89938689 213.67173139 54.52577532 213.67767842 52.15136719 213.6809082 C50.49376162 213.69055446 48.8361586 213.70064732 47.17855835 213.71116638 C43.70686932 213.72910917 40.23540399 213.73468934 36.76367188 213.73291016 C32.32586058 213.7326054 27.88949051 213.77355893 23.45202065 213.82522678 C20.02891518 213.8586659 16.60615534 213.86466546 13.18290329 213.86308098 C11.54747932 213.86660959 9.91204531 213.87981489 8.27678299 213.90307808 C-6.09249214 214.0883626 -6.09249214 214.0883626 -10.69482422 210.32128906 C-14.57770205 206.19551489 -14.35054295 201.75681075 -14.35409546 196.37773132 C-14.35847771 195.57494163 -14.36285997 194.77215193 -14.36737502 193.94503528 C-14.38076575 191.24590658 -14.38694246 188.54681053 -14.39306641 185.84765625 C-14.40096705 183.91608533 -14.40923598 181.98451588 -14.41784668 180.052948 C-14.44406744 173.70238658 -14.45937269 167.35181855 -14.47363281 161.0012207 C-14.47899215 158.81619576 -14.48436966 156.63117086 -14.48976517 154.44614601 C-14.51139245 145.35898631 -14.53013032 136.27182839 -14.54138756 127.18464947 C-14.557635 114.15443252 -14.59083397 101.12451337 -14.64778841 88.09440869 C-14.68645793 78.93594374 -14.70601662 69.77755855 -14.71130812 60.61901408 C-14.71496517 55.14696854 -14.72702451 49.67524062 -14.75941086 44.20328331 C-14.78943937 39.05599235 -14.79582188 33.90921208 -14.7840271 28.76185226 C-14.78380594 26.8728209 -14.79214597 24.9837662 -14.80968094 23.09481621 C-14.83232553 20.51500188 -14.82410048 17.93704689 -14.80819702 15.35722351 C-14.82902015 14.2367334 -14.82902015 14.2367334 -14.85026395 13.09360713 C-14.76336223 7.36979041 -13.12245073 5.04503451 -9.20019531 1.17700195 C-6.24524577 -0.30047282 -3.24083286 0.01238898 0 0 Z " fill="#F0F9FE" transform="translate(387.2001953125,34.822998046875)"/>
<path d="M0 0 C0.74343155 -0.00511093 1.4868631 -0.01022186 2.25282288 -0.01548767 C4.71241286 -0.02939664 7.17172299 -0.02842574 9.63134766 -0.02612305 C11.3414419 -0.03000971 13.05153517 -0.03434432 14.7616272 -0.03910828 C18.34778979 -0.04657361 21.93385394 -0.04627728 25.52001953 -0.04101562 C30.11234649 -0.03522531 34.70426957 -0.05213971 39.29652977 -0.0753603 C42.82931875 -0.09010465 46.36201068 -0.09096831 49.89482498 -0.08785057 C51.58768131 -0.08836359 53.28054311 -0.09359768 54.9733696 -0.10366249 C57.34318882 -0.11602123 59.71222425 -0.10923873 62.08203125 -0.09765625 C62.7793486 -0.10529999 63.47666595 -0.11294373 64.19511414 -0.12081909 C68.53139578 -0.07405596 71.27971439 0.5335306 74.67041016 3.2746582 C77.87515196 7.46547659 78.09717501 11.18539236 78.05136108 16.28320312 C78.05604106 17.08432368 78.06072103 17.88544424 78.06554282 18.71084118 C78.0774988 21.39243869 78.06803331 24.07352574 78.05859375 26.75512695 C78.06265918 28.67876483 78.0680009 30.60240038 78.07452393 32.52603149 C78.08820665 37.74910323 78.08289488 42.97199731 78.07338667 48.19507217 C78.06579506 53.65934989 78.0728343 59.12361232 78.07754517 64.58789062 C78.08300416 73.7644321 78.07580729 82.94090116 78.06152344 92.11743164 C78.04519668 102.72899905 78.05048508 113.34039353 78.06700265 123.95195675 C78.08061338 133.06035563 78.08253919 142.16870243 78.07468665 151.27710819 C78.07000787 156.71824541 78.06939094 162.15930134 78.07929611 167.60043335 C78.08795745 172.71567256 78.08195901 177.83068868 78.06461334 182.94590378 C78.06064406 184.82404586 78.06179008 186.7022067 78.06840134 188.58034134 C78.07658946 191.14251943 78.0663285 193.70398094 78.05136108 196.26611328 C78.05805325 197.01076434 78.06474541 197.7554154 78.07164037 198.52263165 C78.02133599 202.95695301 77.38426547 205.74388365 74.67041016 209.2746582 C70.18064972 213.03293615 67.01110915 213.78282864 61.21557617 213.82397461 C60.49442627 213.83419647 59.77327637 213.84441833 59.03027344 213.85494995 C56.66127751 213.88260795 54.29345396 213.88083969 51.92431641 213.8762207 C50.26813835 213.8840018 48.61196427 213.89267262 46.95579529 213.90219116 C43.49001102 213.91708634 40.02463433 213.91655469 36.55883789 213.90600586 C32.12884698 213.89441594 27.70052841 213.92828792 23.27081394 213.97469521 C19.85196773 214.00423389 16.43352146 214.00590502 13.01457024 213.99967575 C11.38195418 214.0006989 9.74931477 214.01111309 8.1168232 214.03129959 C-6.21588964 214.18679923 -6.21588964 214.18679923 -10.82202148 210.41674805 C-14.70044881 206.3009267 -14.47808109 201.88266022 -14.47676086 196.51335144 C-14.48043755 195.7146453 -14.48411424 194.91593916 -14.48790234 194.0930298 C-14.49894495 191.40771653 -14.50278398 188.72244196 -14.5065918 186.03710938 C-14.51285594 184.1153908 -14.51950269 182.19367343 -14.52650452 180.2719574 C-14.543917 175.04463038 -14.55446666 169.81731251 -14.56271005 164.58996367 C-14.56785899 161.32530225 -14.57393472 158.06064368 -14.58022118 154.79598427 C-14.59927274 144.58499293 -14.61350475 134.37400884 -14.62183315 124.16300315 C-14.6316107 112.36955285 -14.65794395 100.57628999 -14.69833404 88.78290576 C-14.72847123 79.67114799 -14.74329969 70.55944403 -14.74661416 61.44763738 C-14.74896709 56.00358825 -14.75795938 50.55973938 -14.78307533 45.11574364 C-14.80631951 39.99476692 -14.81060397 34.87412283 -14.80031395 29.75310707 C-14.79981761 27.87375916 -14.80616677 25.99439507 -14.81987 24.11509705 C-14.83753658 21.54863662 -14.83050903 18.98337675 -14.81733704 16.41691589 C-14.82830628 15.67381344 -14.83927553 14.93071098 -14.85057718 14.16509026 C-14.78752148 9.07382313 -13.55270496 6.18377195 -10.32958984 2.2746582 C-6.73591873 -0.12112254 -4.14985637 -0.01465843 0 0 Z " fill="#F0F9FE" transform="translate(224.32958984375,34.725341796875)"/>
<path d="M0 0 C0.74343155 -0.00511093 1.4868631 -0.01022186 2.25282288 -0.01548767 C4.71241286 -0.02939664 7.17172299 -0.02842574 9.63134766 -0.02612305 C11.3414419 -0.03000971 13.05153517 -0.03434432 14.7616272 -0.03910828 C18.34778979 -0.04657361 21.93385394 -0.04627728 25.52001953 -0.04101562 C30.11234649 -0.03522531 34.70426957 -0.05213971 39.29652977 -0.0753603 C42.82931875 -0.09010465 46.36201068 -0.09096831 49.89482498 -0.08785057 C51.58768131 -0.08836359 53.28054311 -0.09359768 54.9733696 -0.10366249 C57.34318882 -0.11602123 59.71222425 -0.10923873 62.08203125 -0.09765625 C62.7793486 -0.10529999 63.47666595 -0.11294373 64.19511414 -0.12081909 C68.53139578 -0.07405596 71.27971439 0.5335306 74.67041016 3.2746582 C77.87515196 7.46547659 78.09717501 11.18539236 78.05136108 16.28320312 C78.05604106 17.08432368 78.06072103 17.88544424 78.06554282 18.71084118 C78.0774988 21.39243869 78.06803331 24.07352574 78.05859375 26.75512695 C78.06265918 28.67876483 78.0680009 30.60240038 78.07452393 32.52603149 C78.08820665 37.74910323 78.08289488 42.97199731 78.07338667 48.19507217 C78.06579506 53.65934989 78.0728343 59.12361232 78.07754517 64.58789062 C78.08300416 73.7644321 78.07580729 82.94090116 78.06152344 92.11743164 C78.04519668 102.72899905 78.05048508 113.34039353 78.06700265 123.95195675 C78.08061338 133.06035563 78.08253919 142.16870243 78.07468665 151.27710819 C78.07000787 156.71824541 78.06939094 162.15930134 78.07929611 167.60043335 C78.08795745 172.71567256 78.08195901 177.83068868 78.06461334 182.94590378 C78.06064406 184.82404586 78.06179008 186.7022067 78.06840134 188.58034134 C78.07658946 191.14251943 78.0663285 193.70398094 78.05136108 196.26611328 C78.05805325 197.01076434 78.06474541 197.7554154 78.07164037 198.52263165 C78.01030894 203.92898603 76.63183894 206.98632463 73.17041016 211.0246582 C69.73943027 213.88380811 65.86257637 213.4133646 61.61621094 213.43579102 C60.9020401 213.44075592 60.18786926 213.44572083 59.45205688 213.45083618 C57.08993567 213.46543869 54.72788159 213.4722564 52.36572266 213.4777832 C50.7228902 213.483536 49.08005776 213.48929372 47.43722534 213.49505615 C43.99232674 213.50556053 40.54745143 213.51140696 37.10253906 213.51489258 C32.69183632 213.52037777 28.2814422 213.54440854 23.87083626 213.57286453 C20.47703149 213.59150234 17.08330093 213.5966971 13.68944931 213.59822845 C12.06357001 213.60125267 10.43769195 213.60927343 8.81186295 213.62241364 C6.53547016 213.63949931 4.25982962 213.63758816 1.98339844 213.63110352 C0.68894806 213.63474915 -0.60550232 213.63839478 -1.93917847 213.64215088 C-6.79053111 213.1163042 -10.21766665 211.00896604 -13.32958984 207.2746582 C-14.54214854 203.6369821 -14.4776921 200.3006391 -14.47676086 196.51335144 C-14.48043755 195.7146453 -14.48411424 194.91593916 -14.48790234 194.0930298 C-14.49894495 191.40771653 -14.50278398 188.72244196 -14.5065918 186.03710938 C-14.51285594 184.1153908 -14.51950269 182.19367343 -14.52650452 180.2719574 C-14.543917 175.04463038 -14.55446666 169.81731251 -14.56271005 164.58996367 C-14.56785899 161.32530225 -14.57393472 158.06064368 -14.58022118 154.79598427 C-14.59927274 144.58499293 -14.61350475 134.37400884 -14.62183315 124.16300315 C-14.6316107 112.36955285 -14.65794395 100.57628999 -14.69833404 88.78290576 C-14.72847123 79.67114799 -14.74329969 70.55944403 -14.74661416 61.44763738 C-14.74896709 56.00358825 -14.75795938 50.55973938 -14.78307533 45.11574364 C-14.80631951 39.99476692 -14.81060397 34.87412283 -14.80031395 29.75310707 C-14.79981761 27.87375916 -14.80616677 25.99439507 -14.81987 24.11509705 C-14.83753658 21.54863662 -14.83050903 18.98337675 -14.81733704 16.41691589 C-14.82830628 15.67381344 -14.83927553 14.93071098 -14.85057718 14.16509026 C-14.78752148 9.07382313 -13.55270496 6.18377195 -10.32958984 2.2746582 C-6.73591873 -0.12112254 -4.14985637 -0.01465843 0 0 Z " fill="#F0F9FE" transform="translate(61.32958984375,34.725341796875)"/>
<path d="M0 0 C5.12282759 -0.09945752 10.24508354 -0.17174409 15.36865234 -0.21972656 C17.10866089 -0.23974522 18.84860299 -0.26696886 20.58837891 -0.30175781 C23.10075346 -0.35070952 25.61223275 -0.37306587 28.125 -0.390625 C28.89303955 -0.41127014 29.6610791 -0.43191528 30.45239258 -0.45318604 C37.38456659 -0.45601565 42.39958492 1.82290831 47.6875 6.25 C53.90814456 13.64752326 56.15356356 19.14799191 56.13422108 28.80442238 C56.13657331 29.59957742 56.13892554 30.39473247 56.14134905 31.21398312 C56.14803873 33.89491715 56.14758083 36.57580271 56.14717102 39.25674438 C56.15046966 41.1917266 56.15419523 43.12670813 56.1583125 45.06168878 C56.16834054 50.39208597 56.17205059 55.7224719 56.17470181 61.05287719 C56.17860245 66.79675129 56.18818093 72.54061646 56.19691467 78.28448486 C56.21668545 92.16211008 56.22674589 106.03973603 56.23564246 119.91737181 C56.2400242 126.45013735 56.24539129 132.98290207 56.25063133 139.51566696 C56.26764392 161.22763479 56.28216358 182.93960167 56.28938007 204.65157509 C56.28985483 206.0557379 56.29033072 207.45990071 56.29080774 208.86406352 C56.29104411 209.56040062 56.29128049 210.25673771 56.29152403 210.97417592 C56.29272522 214.50215244 56.29394067 218.03012896 56.29516602 221.55810547 C56.29552624 222.60831086 56.29552624 222.60831086 56.29589374 223.67973253 C56.30378637 246.37897799 56.3272175 269.0781712 56.35972196 291.77739385 C56.39402582 315.777034 56.41373059 339.77664224 56.41702431 363.77630746 C56.41919083 376.85853044 56.42796023 389.9406766 56.45348549 403.02287674 C56.47517087 414.16289037 56.48325351 425.30280854 56.47351871 436.44284089 C56.46896783 442.12708012 56.47090622 447.8111223 56.49028015 453.49533463 C56.50786795 458.70043382 56.50694955 463.90519155 56.49138286 469.11029415 C56.48900015 470.99190543 56.49336463 472.87354009 56.50521151 474.75511558 C56.56988331 485.70613826 56.18867981 494.26819316 50.25 503.8125 C43.64241961 510.23653649 37.47811217 512.15513059 28.39453125 512.09765625 C27.55532639 512.0962413 26.71612152 512.09482635 25.85148621 512.09336853 C23.17178784 512.08777215 20.4921731 512.07522035 17.8125 512.0625 C15.99544392 512.05748453 14.17838652 512.05292171 12.36132812 512.04882812 C7.90751987 512.03780391 3.45377411 512.02054178 -1 512 C-0.3797998 511.69078613 0.24040039 511.38157227 0.87939453 511.06298828 C8.69678935 507.14439088 14.48084519 502.79347562 18.05957031 494.56323242 C19.36308541 489.62429086 19.27835493 484.91493644 19.2734375 479.828125 C19.29373141 477.61457832 19.31458229 475.40103669 19.3359375 473.1875 C19.35848765 469.72065967 19.3749932 466.25401958 19.38085938 462.78710938 C19.39043684 459.42541873 19.42428048 456.06461478 19.4609375 452.703125 C19.45589203 451.67987122 19.45084656 450.65661743 19.44564819 449.60235596 C19.5289347 443.44269595 20.51609158 438.69689373 23.07261658 433.0774231 C27.21550897 423.79696786 26.19808228 409.38402522 23.0625 400 C22.13181098 397.59822188 21.15103839 395.30207677 20 393 C19.90179926 391.0011937 19.86973649 388.99903887 19.86692142 386.99782372 C19.86055986 385.06596641 19.86055986 385.06596641 19.85406977 383.09508169 C19.85437549 381.65228548 19.85476869 380.20948928 19.85523987 378.76669312 C19.85210794 377.24449146 19.84853356 375.72229067 19.84455246 374.200091 C19.83482683 370.00147099 19.83129948 365.80286458 19.82870948 361.60423493 C19.82482372 357.08191412 19.81518588 352.55960542 19.80615234 348.03729248 C19.79119498 340.19505433 19.77965871 332.35281714 19.77020454 324.51057053 C19.75634658 313.16317412 19.73516058 301.8158001 19.71177601 290.46841975 C19.67383133 272.04812496 19.63887373 253.62782612 19.60717773 235.20751953 C19.60527724 234.10422155 19.60337675 233.00092357 19.60141867 231.86419232 C19.57459809 216.21363864 19.55072274 200.56308183 19.52803367 184.91252168 C19.52643637 183.81104284 19.52483906 182.70956401 19.52319336 181.57470703 C19.52080316 179.92449749 19.52080316 179.92449749 19.51836468 178.24095039 C19.49159856 159.89847072 19.45719837 141.5560148 19.41653961 123.2135607 C19.39175899 111.89547677 19.3734354 100.5774184 19.363384 89.25931163 C19.35599342 81.50157604 19.34146773 73.74387475 19.32131977 65.98616187 C19.30992741 61.50930465 19.30179432 57.03250275 19.30232811 52.55562973 C19.30275615 48.45593523 19.29403112 44.35636516 19.27807831 40.25670262 C19.27392746 38.77480511 19.27312596 37.29289357 19.27604241 35.81099312 C19.40195414 21.47933954 19.40195414 21.47933954 13 9 C8.92289375 5.10409847 5.18781391 2.97136928 0 1 C0 0.67 0 0.34 0 0 Z " fill="#FBBE66" transform="translate(445,0)"/>
<path d="M0 0 C5.08617453 -0.12464234 10.17143856 -0.21482392 15.25878906 -0.2746582 C16.9851838 -0.29962938 18.71147471 -0.33361907 20.4375 -0.37719727 C31.66766995 -0.65340226 40.71973087 -0.78710697 49.4375 7.24609375 C50.2109375 8.33083984 50.2109375 8.33083984 51 9.4375 C51.53625 10.15808594 52.0725 10.87867188 52.625 11.62109375 C55.71738958 16.97127913 56.29107826 22.00707291 56.25726891 28.08454609 C56.26077498 28.88568517 56.26428105 29.68682424 56.26789337 30.51224026 C56.27721044 33.20153272 56.27228326 35.89060879 56.26742554 38.57991028 C56.27116164 40.52558194 56.275763 42.47125211 56.28115618 44.41691989 C56.29340649 49.76754828 56.29312332 55.11811424 56.29076743 60.46875346 C56.29035978 66.23780002 56.30139344 72.00682644 56.31088257 77.77586365 C56.3275045 89.07987338 56.33299265 100.38386225 56.33410732 111.68788318 C56.3350572 120.87483314 56.33916446 130.0617762 56.34550858 139.24872398 C56.36025696 161.04913352 56.37255796 182.84953769 56.37151146 204.64995289 C56.3714803 205.34713987 56.37144914 206.04432685 56.37141704 206.76264071 C56.37125083 210.29627535 56.37105275 213.82990998 56.37084763 217.36354462 C56.37080774 218.06533733 56.37076785 218.76713004 56.37072675 219.49018919 C56.37064587 220.90938502 56.37056228 222.32858086 56.37047596 223.74777669 C56.36925042 245.82870363 56.38426418 267.90956915 56.41162109 289.99047852 C56.44234372 314.79821606 56.45952815 339.60591294 56.45769465 364.41367072 C56.45703021 377.54892401 56.46254625 390.68410804 56.48405075 403.81934547 C56.50224129 415.00216383 56.50662732 426.18488152 56.4930319 437.36770824 C56.48649166 443.07411126 56.48642335 448.78032102 56.5037384 454.48670578 C56.51942712 459.71079981 56.51664833 464.93454666 56.49917014 470.158632 C56.496091 472.04823842 56.4997669 473.93787049 56.51089029 475.82744668 C56.61072131 493.98939237 56.61072131 493.98939237 52 501 C50.948125 502.60875 50.948125 502.60875 49.875 504.25 C41.74844543 512.02322611 33.70633681 512.60161747 22.96875 512.43945312 C21.27081954 512.39769268 19.57290286 512.35536816 17.875 512.3125 C16.13805307 512.28737619 14.40107099 512.26457025 12.6640625 512.24414062 C8.44182851 512.18948978 4.22130877 512.10344785 0 512 C1.59721796 510.93518803 3.20479036 509.88175285 4.8671875 508.921875 C11.83712442 504.85381843 16.71340395 500.00801835 19 492 C19.41118345 488.17945329 19.39372264 484.38649652 19.37109375 480.546875 C19.38848069 478.29557143 19.40606502 476.04426938 19.42382812 473.79296875 C19.43387515 470.27357104 19.43750208 466.75427471 19.43579102 463.23486328 C19.43938598 459.81773362 19.46682357 456.40136739 19.49609375 452.984375 C19.48791122 451.94754578 19.4797287 450.91071655 19.47129822 449.84246826 C19.53583409 443.42696175 20.60888693 438.31942137 23.0450592 432.37554932 C25.16355916 427.10548322 25.28253075 422.18210848 25.375 416.5625 C25.41238281 415.73556641 25.44976562 414.90863281 25.48828125 414.05664062 C25.56119836 408.76204841 24.68895438 404.96730529 22.50513458 400.1345396 C19.49089992 392.49620339 19.31073301 385.45725732 19.39440918 377.34346008 C19.39167253 375.80081147 19.38672423 374.2581655 19.37977934 372.7155301 C19.36706683 368.51118979 19.38510504 364.30747588 19.40842414 360.10320222 C19.42807578 355.55581368 19.41856196 351.00847346 19.41249084 346.46105957 C19.40571408 338.59166148 19.41654997 330.72244928 19.4389801 322.85308266 C19.47097548 311.46459816 19.47052069 300.07628623 19.46133965 288.68776872 C19.44684151 270.19376126 19.45089233 251.69981236 19.47021484 233.20581055 C19.47136329 232.10028586 19.47251173 230.99476118 19.47369498 229.85573574 C19.48196912 222.00798992 19.49090848 214.16024491 19.5 206.3125 C19.51038958 197.34269252 19.52047477 188.37288484 19.52978516 179.40307617 C19.53093879 178.29799626 19.53209243 177.19291635 19.53328103 176.05434916 C19.55191394 157.62337109 19.55098918 139.19244362 19.53612375 120.76146287 C19.52791107 109.40185957 19.53737216 98.04253145 19.56971943 86.68296983 C19.59076288 78.90194976 19.59417819 71.12105124 19.58377111 63.34001008 C19.57840675 58.85256464 19.58127725 54.36551455 19.60611153 49.87812614 C19.62873628 45.76688197 19.62820627 41.65630214 19.60962588 37.54504373 C19.60698799 36.06140468 19.6127524 34.57772065 19.62797683 33.09415738 C19.72073509 23.48854747 18.98625335 15.43052103 12.25651598 8.10117418 C8.5929787 4.64611136 4.69529526 2.72480234 0 1 C0 0.67 0 0.34 0 0 Z " fill="#087194" transform="translate(119,0)"/>
<path d="M0 0 C5.37100984 -0.1245596 10.74116011 -0.21478702 16.11328125 -0.2746582 C17.93667262 -0.29964279 19.75996548 -0.33364279 21.58300781 -0.37719727 C41.79937735 -0.84773161 41.79937735 -0.84773161 49 5 C51.32082385 7.52128287 53.26233303 10.04714025 55 13 C55.52263939 13.80547274 55.52263939 13.80547274 56.05583715 14.62721765 C57.40792743 18.02516531 57.27977291 21.32731699 57.26285553 24.92936134 C57.2669608 25.73802338 57.27106606 26.54668541 57.27529573 27.37985235 C57.28666174 30.10678054 57.28371811 32.83350754 57.28088379 35.56045532 C57.28604959 37.52843756 57.29207549 39.49641771 57.29889059 41.46439493 C57.31505494 46.88601421 57.31861108 52.30758058 57.32008553 57.72922111 C57.32378244 63.57126526 57.33887506 69.41328182 57.35235596 75.25531006 C57.38095949 88.70300086 57.39257824 102.15068152 57.40173985 115.59839748 C57.40687965 122.90997489 57.41512651 130.22154854 57.42338562 137.53312302 C57.44788447 159.61567413 57.46844242 181.6982221 57.4751358 203.78078651 C57.47557907 205.20893002 57.47602264 206.63707353 57.47646651 208.06521704 C57.47690779 209.49681113 57.47734875 210.92840521 57.4777894 212.3599993 C57.47867451 215.23202427 57.47956874 218.10404925 57.48046875 220.97607422 C57.48068753 221.68816989 57.48090631 222.40026556 57.48113173 223.13393989 C57.48839223 246.22123272 57.52022924 269.30839992 57.56684948 292.39564464 C57.61604956 316.80511796 57.64348166 341.21451947 57.64587164 365.62404382 C57.64757414 378.92985888 57.65923315 392.23553645 57.69551086 405.54130936 C57.72629339 416.87166645 57.73656546 428.20180827 57.72003466 439.53219922 C57.71221443 445.31373887 57.71411509 451.09484488 57.74214935 456.87633133 C57.76758541 462.17039206 57.76527048 467.46369239 57.74096793 472.75775175 C57.7370465 474.67166739 57.74324572 476.58563652 57.76065665 478.49947698 C57.91967201 497.1621557 57.91967201 497.1621557 51 505 C48.55078125 507.25390625 48.55078125 507.25390625 46.3125 508.5625 C45.56613281 509.01753906 44.81976563 509.47257812 44.05078125 509.94140625 C39.4660353 512.30800845 35.20381564 512.1286392 30.17578125 512.09765625 C29.31438034 512.0962413 28.45297943 512.09482635 27.56547546 512.09336853 C24.81444831 512.0877714 22.06350256 512.07521946 19.3125 512.0625 C17.4472668 512.05748463 15.58203233 512.05292179 13.71679688 512.04882812 C9.14449989 512.03780292 4.57226375 512.02054027 0 512 C0 511.67 0 511.34 0 511 C0.556875 510.86464844 1.11375 510.72929687 1.6875 510.58984375 C9.31098736 508.43929917 14.73272438 504.65689617 18.9375 497.875 C20.51816112 493.59791697 21.1226921 489.65691112 21.1418457 485.10888672 C21.14888016 484.16375214 21.15591461 483.21861755 21.16316223 482.24484253 C21.16732651 481.23334137 21.17149078 480.22184021 21.17578125 479.1796875 C21.19898906 477.01301122 21.22310678 474.84634453 21.24804688 472.6796875 C21.28305023 469.28313861 21.31245263 465.88694111 21.32592773 462.49023438 C21.34152131 459.1987905 21.38180954 455.90835942 21.42578125 452.6171875 C21.42387283 451.61783173 21.42196442 450.61847595 21.41999817 449.58883667 C21.52829171 443.25807876 22.6839144 438.18586566 25.0730896 432.31674194 C28.91583925 422.71208188 27.99818369 409.76413832 25 400 C24.49760268 399.10318669 23.99520536 398.20637339 23.47758389 397.28238392 C20.89794205 391.24900656 21.59272102 384.541114 21.62818909 378.10295105 C21.62561311 376.56960815 21.62171087 375.03626701 21.6165995 373.50293046 C21.60633498 369.29659321 21.61462264 365.09046604 21.62589633 360.88413894 C21.63475393 356.34482254 21.62624532 351.80553573 21.61968994 347.26622009 C21.61053478 339.40168037 21.61186125 331.537199 21.61987495 323.67265892 C21.63110755 312.29098393 21.62206445 300.90939206 21.60731315 289.5277243 C21.58354086 271.04704875 21.57017575 252.56638346 21.56616211 234.08569336 C21.56591724 232.97976628 21.56567237 231.8738392 21.56542008 230.73439918 C21.56287449 218.3974972 21.56230721 206.06059602 21.56335449 193.72369385 C21.56368752 189.25093587 21.56397291 184.7781779 21.56420898 180.30541992 C21.56430317 178.64991603 21.56430317 178.64991603 21.56439925 176.96096762 C21.56500423 158.55277337 21.55011658 140.14462645 21.52337593 121.73645192 C21.50757406 110.38497961 21.50530949 99.03366015 21.52050995 87.68218622 C21.52997775 79.90250953 21.52521527 72.12292494 21.50929613 64.34325906 C21.50060397 59.85592037 21.4984563 55.36882644 21.51382256 50.88150024 C21.52778908 46.77007795 21.52325805 42.65909807 21.50430154 38.54769961 C21.50070137 37.06389199 21.50380324 35.58004901 21.51445121 34.09627523 C21.57769147 24.64364985 21.05698913 16.34271587 15.17578125 8.59765625 C10.42040399 4.67970392 5.99865973 2.45800757 0 1 C0 0.67 0 0.34 0 0 Z " fill="#FA6931" transform="translate(280,0)"/>
<path d="M0 0 C7.88308974 6.18491848 13.57720638 15.33497995 16.97265625 24.6640625 C17.3284375 25.54320312 17.68421875 26.42234375 18.05078125 27.328125 C21.56962408 40.06156475 19.42599974 54.80741309 13.58203125 66.4296875 C5.38934848 80.83156142 -5.98838049 88.68214115 -21.93823242 93.20605469 C-35.03111897 96.07648301 -48.35501704 93.77564849 -59.7578125 87.0546875 C-71.57268536 79.26151871 -79.73958372 69.20435734 -84.02734375 55.6640625 C-86.99136215 41.07357755 -85.51334125 26.79840016 -77.83984375 13.9140625 C-69.87865007 2.30961069 -59.01419617 -6.66285562 -45.0703125 -9.90234375 C-28.76179866 -12.22614996 -13.82463381 -9.10987431 0 0 Z " fill="#EFF9FE" transform="translate(126.02734375,375.3359375)"/>
<path d="M0 0 C9.33333498 7.79026355 17.22385043 18.72842116 19 31 C20.09584925 46.7146274 18.23514385 61.40135232 7.84375 73.90625 C7.2353125 74.5971875 6.626875 75.288125 6 76 C5.4534375 76.6290625 4.906875 77.258125 4.34375 77.90625 C-0.13372413 82.7216467 -5.17795509 85.99367622 -11 89 C-12.1446875 89.62455078 -12.1446875 89.62455078 -13.3125 90.26171875 C-24.37314564 95.31345594 -39.97693641 95.00066449 -51.3125 90.875 C-56.56375932 88.45186988 -61.40585808 85.50841698 -66 82 C-66.82371094 81.38640625 -67.64742188 80.7728125 -68.49609375 80.140625 C-77.81963526 72.169797 -83.97845952 59.85786566 -85.23925781 47.69116211 C-86.07699261 32.50178913 -83.63521624 20.20460723 -74 8 C-71.5625 5.3125 -71.5625 5.3125 -69 3 C-68.52304687 2.53078125 -68.04609375 2.0615625 -67.5546875 1.578125 C-48.99074325 -15.81996768 -19.58436393 -15.255826 0 0 Z " fill="#F0F9FD" transform="translate(452,376)"/>
<path d="M0 0 C11.43775252 8.84060871 19.39303339 19.17106178 22.8125 33.375 C23.69175419 50.3739144 22.17041365 65.10484026 10.5625 78.3125 C1.68055477 87.64582278 -9.6434131 95.67753355 -22.94140625 96.37109375 C-41.14824354 96.77047997 -53.69274523 92.89902811 -67.25 80.1875 C-71.34268074 75.89678633 -74.32543353 71.27791668 -77 66 C-77.41507813 65.19175781 -77.83015625 64.38351562 -78.2578125 63.55078125 C-82.89757474 52.95719823 -82.75493604 37.92015214 -79 27 C-73.88103884 14.05510161 -64.57715473 2.70907352 -51.94140625 -3.50390625 C-35.13300871 -10.72513946 -15.64499924 -10.06286351 0 0 Z " fill="#F0F9FD" transform="translate(285,373)"/>
<path d="M0 0 C6.98242443 3.89130404 11.40269347 9.24355081 13.75 16.9375 C14.91809656 24.6209796 13.1185495 30.56624015 8.75 36.9375 C4.35966502 41.89096583 -0.92524577 45.28002047 -7.5625 46.2890625 C-15.14499435 46.7392731 -21.41917249 44.33282291 -27.10546875 39.29296875 C-32.36825943 33.53638536 -34.93420542 27.38686796 -34.66015625 19.55859375 C-33.53713241 12.38193662 -29.80685016 6.48482388 -24.05859375 2.12109375 C-16.23197592 -3.00086133 -8.51778418 -3.8810355 0 0 Z " fill="#3E5B5B" transform="translate(266.25,395.0625)"/>
<path d="M0 0 C6.98242443 3.89130404 11.40269347 9.24355081 13.75 16.9375 C14.91809656 24.6209796 13.1185495 30.56624015 8.75 36.9375 C4.35966502 41.89096583 -0.92524577 45.28002047 -7.5625 46.2890625 C-15.14499435 46.7392731 -21.41917249 44.33282291 -27.10546875 39.29296875 C-32.36825943 33.53638536 -34.93420542 27.38686796 -34.66015625 19.55859375 C-33.53713241 12.38193662 -29.80685016 6.48482388 -24.05859375 2.12109375 C-16.23197592 -3.00086133 -8.51778418 -3.8810355 0 0 Z " fill="#3E5B5B" transform="translate(103.25,395.0625)"/>
<path d="M0 0 C5.75320307 3.1841627 10.3466156 7.73416999 12.75 13.9375 C13.54237349 21.93494402 14.05060198 30.38969756 8.75 36.9375 C3.55283678 42.54631971 -2.30736863 45.97703908 -10.0625 46.4375 C-16.66226525 46.20645799 -22.1808323 43.65775179 -27.10546875 39.29296875 C-32.36825943 33.53638536 -34.93420542 27.38686796 -34.66015625 19.55859375 C-33.53713241 12.38193662 -29.80685016 6.48482388 -24.05859375 2.12109375 C-16.23197592 -3.00086133 -8.51778418 -3.8810355 0 0 Z " fill="#3E5B5B" transform="translate(429.25,395.0625)"/>
<path d="M0 0 C0.8245166 -0.0038269 1.6490332 -0.00765381 2.49853516 -0.01159668 C4.23666611 -0.01431097 5.97483825 -0.00698358 7.71289062 0.00976562 C10.36681558 0.03118395 13.0180338 0.00994945 15.671875 -0.015625 C17.36458928 -0.01298164 19.05730189 -0.00785647 20.75 0 C21.93456787 -0.01214539 21.93456787 -0.01214539 23.14306641 -0.02453613 C27.07818334 0.04212828 28.96584037 0.2707848 32.37255859 2.43945312 C34.52100539 4.68377063 35.05961432 5.47899667 35 8.53125 C35.01289063 9.19125 35.02578125 9.85125 35.0390625 10.53125 C33.97403339 13.73886709 32.20282379 14.73514399 29.375 16.53125 C26.42639014 17.13039173 23.53322708 17.13955492 20.53125 17.1328125 C19.68453735 17.14138275 18.83782471 17.149953 17.9654541 17.15878296 C16.18029346 17.1702379 14.3950395 17.17129326 12.60986328 17.16259766 C9.88281965 17.15626815 7.16010231 17.20324228 4.43359375 17.25390625 C2.69531796 17.25845199 0.95703053 17.25985934 -0.78125 17.2578125 C-1.99862854 17.28544174 -1.99862854 17.28544174 -3.24060059 17.31362915 C-8.72553941 17.22422751 -8.72553941 17.22422751 -11.27954102 15.25653076 C-13.61843918 12.60642977 -14.60757708 10.96682295 -14.75 7.40625 C-11.97630543 0.31791944 -6.73250554 -0.06902844 0 0 Z " fill="#1684AF" transform="translate(408.625,68.46875)"/>
<path d="M0 0 C0.8245166 -0.0038269 1.6490332 -0.00765381 2.49853516 -0.01159668 C4.23666611 -0.01431097 5.97483825 -0.00698358 7.71289062 0.00976562 C10.36681558 0.03118395 13.0180338 0.00994945 15.671875 -0.015625 C17.36458928 -0.01298164 19.05730189 -0.00785647 20.75 0 C21.93456787 -0.01214539 21.93456787 -0.01214539 23.14306641 -0.02453613 C27.03131235 0.04133424 28.96623926 0.27691595 32.34765625 2.38085938 C34.96449991 5.15652881 35.45267223 6.72531082 35.375 10.53125 C33.60460551 13.27841387 32.31208156 15.06270922 29.375 16.53125 C26.5050268 16.66694392 23.66052241 16.74398185 20.7890625 16.76953125 C19.50906876 16.78163887 19.50906876 16.78163887 18.20321655 16.79399109 C16.39591504 16.80783148 14.5885874 16.81855384 12.78125 16.82641602 C10.01772587 16.84363952 7.25539484 16.88752592 4.4921875 16.93164062 C2.73698797 16.94176666 0.98177827 16.95028304 -0.7734375 16.95703125 C-1.59959564 16.97453934 -2.42575378 16.99204742 -3.27694702 17.01008606 C-9.01973733 16.9883809 -9.01973733 16.9883809 -12.14282227 14.62963867 C-13.7356897 12.37454139 -14.19283941 11.26502597 -14.1875 8.53125 C-14.20941406 7.87125 -14.23132813 7.21125 -14.25390625 6.53125 C-12.16775 -0.10298604 -5.78438453 -0.05930735 0 0 Z " fill="#1684AF" transform="translate(82.625,68.46875)"/>
<path d="M0 0 C0.8245166 -0.0038269 1.6490332 -0.00765381 2.49853516 -0.01159668 C4.23666611 -0.01431097 5.97483825 -0.00698358 7.71289062 0.00976562 C10.36681558 0.03118395 13.0180338 0.00994945 15.671875 -0.015625 C17.36458928 -0.01298164 19.05730189 -0.00785647 20.75 0 C21.93456787 -0.01214539 21.93456787 -0.01214539 23.14306641 -0.02453613 C27.07818334 0.04212828 28.96584037 0.2707848 32.37255859 2.43945312 C34.52100539 4.68377063 35.05961432 5.47899667 35 8.53125 C35.01289063 9.19125 35.02578125 9.85125 35.0390625 10.53125 C33.97299821 13.74198481 32.20819776 14.73717452 29.375 16.53125 C26.41193576 17.11011252 23.50800176 17.09243312 20.49609375 17.0625 C19.64700943 17.0663269 18.79792511 17.07015381 17.92311096 17.07409668 C16.13370575 17.07681112 14.34426053 17.06948266 12.55493164 17.05273438 C9.81762314 17.03129013 7.08293109 17.0525641 4.34570312 17.078125 C2.60416088 17.07548216 0.86262027 17.07035808 -0.87890625 17.0625 C-1.69565323 17.07059692 -2.51240021 17.07869385 -3.35389709 17.08703613 C-7.02046712 17.02655424 -9.17278507 16.87487356 -12.13623047 14.62304688 C-13.73902852 12.37103414 -14.1928451 11.26794047 -14.1875 8.53125 C-14.20941406 7.87125 -14.23132813 7.21125 -14.25390625 6.53125 C-12.16775 -0.10298604 -5.78438453 -0.05930735 0 0 Z " fill="#1684AF" transform="translate(245.625,68.46875)"/>
<path d="M0 0 C0.89489136 -0.00241196 1.78978271 -0.00482391 2.71179199 -0.00730896 C4.6013635 -0.00633069 6.49096372 0.00705832 8.38037109 0.03198242 C11.27149888 0.06629054 14.15956985 0.05264191 17.05078125 0.03320312 C18.88803384 0.04010173 20.72527854 0.04977425 22.5625 0.0625 C23.42613159 0.05754013 24.28976318 0.05258026 25.17956543 0.04747009 C31.13120794 0.16417115 31.13120794 0.16417115 34.32226562 2.44555664 C36.49036598 5.69008835 36.39281792 7.82359475 35.78125 11.62890625 C32.98844764 14.7112841 30.76188531 15.87038868 26.69702148 16.14648438 C25.09900469 16.1727362 23.50049724 16.17603911 21.90234375 16.16015625 C21.05325943 16.16398315 20.20417511 16.16781006 19.32936096 16.17175293 C17.53995575 16.17446737 15.75051053 16.16713891 13.96118164 16.15039062 C11.22387314 16.12894638 8.48918109 16.15022035 5.75195312 16.17578125 C4.01041088 16.17313841 2.26887027 16.16801433 0.52734375 16.16015625 C-0.69777672 16.17230164 -0.69777672 16.17230164 -1.94764709 16.18469238 C-5.56669998 16.12499431 -7.7576484 15.97222868 -10.70288086 13.77929688 C-12.70311959 10.94178636 -13.21875 9.10575111 -13.21875 5.62890625 C-9.98582393 -0.39291746 -6.19092404 -0.09504118 0 0 Z " fill="#0F80AC" transform="translate(407.21875,110.37109375)"/>
<path d="M0 0 C0.87032364 -0.00761353 1.74064728 -0.01522705 2.63734436 -0.02307129 C4.47556697 -0.03386262 6.31385084 -0.03672932 8.15209961 -0.03222656 C10.95986494 -0.03125443 13.76489493 -0.07288003 16.57226562 -0.1171875 C18.3606714 -0.12239494 20.14908665 -0.12508269 21.9375 -0.125 C22.77409653 -0.14139526 23.61069305 -0.15779053 24.47264099 -0.17468262 C28.81359272 -0.12339088 30.5423903 0.09317503 34.10766602 2.81054688 C36.03515625 5.46875 36.03515625 5.46875 35.97265625 8.59375 C35.03515625 11.46875 35.03515625 11.46875 33.03515625 14.46875 C29.14110555 15.7667669 25.41294208 15.67066823 21.3515625 15.70703125 C20.49964828 15.715103 19.64773407 15.72317474 18.77000427 15.73149109 C16.96867906 15.74531405 15.16732785 15.7560442 13.3659668 15.76391602 C10.61131433 15.78116448 7.8578514 15.82506928 5.10351562 15.86914062 C3.3528734 15.87926492 1.60222099 15.88778185 -0.1484375 15.89453125 C-0.97145859 15.91203934 -1.79447968 15.92954742 -2.6424408 15.94758606 C-8.35886875 15.92589006 -8.35886875 15.92589006 -11.48266602 13.56933594 C-14.00451529 9.99529687 -13.51038942 7.76492214 -12.96484375 3.46875 C-9.50711596 -0.5668918 -4.91326978 0.00118005 0 0 Z " fill="#0F81AC" transform="translate(81.96484375,110.53125)"/>
<path d="M0 0 C0.80771347 -0.00945648 1.61542694 -0.01891296 2.44761658 -0.02865601 C3.31640945 -0.02258331 4.18520233 -0.01651062 5.08032227 -0.01025391 C5.97662857 -0.01312408 6.87293488 -0.01599426 7.79640198 -0.01895142 C9.69191113 -0.02099276 11.58744131 -0.015458 13.48291016 -0.00292969 C16.38239789 0.01310435 19.2804877 -0.00276615 22.17993164 -0.02197266 C24.02173159 -0.01998987 25.86353067 -0.01614546 27.70532227 -0.01025391 C29.00547523 -0.01936295 29.00547523 -0.01936295 30.33189392 -0.02865601 C36.32975656 0.0412923 36.32975656 0.0412923 39.5065918 1.79199219 C41.30700587 3.77032954 41.47197362 4.73955607 41.39672852 7.38818359 C41.26449156 10.05741111 41.15405088 11.11366117 39.58422852 13.32568359 C35.6598546 15.89162038 31.92871917 15.58593199 27.37329102 15.62646484 C26.09329727 15.63857246 26.09329727 15.63857246 24.78744507 15.65092468 C22.98014356 15.66476508 21.17281592 15.67548743 19.36547852 15.68334961 C16.60195439 15.70057312 13.83962336 15.74445951 11.07641602 15.78857422 C9.32121649 15.79870025 7.56600678 15.80721664 5.81079102 15.81396484 C4.5715538 15.84022697 4.5715538 15.84022697 3.30728149 15.86701965 C-2.43374214 15.84532117 -2.43374214 15.84532117 -5.56298828 13.48876953 C-8.0572917 9.94325712 -7.51395708 7.64685393 -7.04077148 3.38818359 C-4.95089352 0.56544124 -3.45426118 0.01161805 0 0 Z " fill="#0F80AC" transform="translate(239.040771484375,110.61181640625)"/>
</svg>
