<?xml version="1.0" encoding="UTF-8"?>
<svg version="1.1" xmlns="http://www.w3.org/2000/svg" width="512" height="512">
<path d="M0 0 C2.26952651 0.55368102 4.50553541 1.17834291 6.74700928 1.83638668 C7.59045898 2.07380077 8.43390869 2.31121487 9.30291748 2.55582333 C12.06283293 3.33627236 14.81740136 4.13393569 17.57196045 4.93306637 C19.49988695 5.48465227 21.42800606 6.03556535 23.35630798 6.58583736 C27.3838595 7.73818941 31.40878154 8.89921424 35.43206787 10.06636715 C40.58653075 11.56082079 45.74718349 13.03247133 50.91003895 14.49763012 C54.88729913 15.629193 58.86090647 16.77316633 62.83353233 17.92088223 C64.73539121 18.46862877 66.63839737 19.01240808 68.54255104 19.55212307 C71.20049323 20.30741019 73.85302092 21.07938584 76.50482178 21.85591793 C77.68231239 22.18499897 77.68231239 22.18499897 78.8835907 22.52072811 C83.16729771 23.79694448 86.03626952 25.03276202 88.8024292 28.60494137 C90.92398986 34.45418754 88.64614285 40.01216695 86.97821045 45.73384762 C86.67553757 46.80110577 86.37286469 47.86836391 86.0610199 48.96796322 C85.41887684 51.21973033 84.77044002 53.46971087 84.1161499 55.71797848 C83.11887268 59.15385507 82.14784204 62.59639263 81.17938232 66.04048824 C80.55138869 68.23039038 79.92188165 70.4198592 79.29071045 72.60884762 C79.00198563 73.63603405 78.7132608 74.66322048 78.41578674 75.72153378 C76.48465589 82.27604838 74.67059073 86.69283368 68.8024292 90.60494137 C69.27293701 91.17341793 69.74344482 91.74189449 70.22821045 92.32759762 C76.03931164 99.53432559 79.08361377 105.11250975 79.29852295 114.46822262 C78.8024292 117.60494137 78.8024292 117.60494137 74.8024292 127.60494137 C100.8724292 127.27494137 126.9424292 126.94494137 153.8024292 126.60494137 C151.8224292 123.96494137 149.8424292 121.32494137 147.8024292 118.60494137 C144.40424936 110.10949178 145.19232983 102.53664675 148.5524292 94.18306637 C152.29173451 86.47074917 157.81246321 82.52691679 165.8024292 79.60494137 C173.07597611 77.70911057 180.45114557 78.52755435 187.2243042 81.76119137 C194.21151764 85.98165586 198.21864683 91.57349533 201.1774292 99.10494137 C202.70718292 107.6715622 201.81050468 114.74960826 197.8024292 122.60494137 C196.49321609 123.96196627 195.16236891 125.29875626 193.8024292 126.60494137 C194.87904816 126.61707165 194.87904816 126.61707165 195.97741699 126.62944698 C202.74574431 126.70742927 209.51389437 126.794731 216.28196335 126.89246845 C219.76140109 126.94238701 223.24080912 126.98871719 226.72039795 127.02681637 C230.72189367 127.070788 234.72302336 127.13042108 238.7243042 127.19087887 C239.97233826 127.20243008 241.22037231 127.21398129 242.50622559 127.22588253 C243.66712708 127.24575222 244.82802856 127.26562191 246.02410889 127.28609371 C247.04559021 127.29941738 248.06707153 127.31274105 249.11950684 127.32646847 C251.87320617 127.61228764 253.52563827 128.04247062 255.8024292 129.60494137 C256.88302595 132.84673162 256.93359905 135.20225625 256.94287109 138.61318111 C256.94858124 139.8693121 256.95429138 141.12544308 256.96017456 142.41963863 C256.96141991 143.81441393 256.96254501 145.20918933 256.96356201 146.60396481 C256.96819068 148.07086468 256.97321541 149.53776334 256.97860718 151.00466061 C256.9917298 154.99242864 256.99817604 158.98017983 257.00261784 162.96796608 C257.00554922 165.46008118 257.00965419 167.95219168 257.01412201 170.44430447 C257.02779753 178.24351122 257.03746351 186.04270747 257.0413239 193.84192538 C257.04580278 202.84107212 257.0633425 211.84006684 257.0923245 220.83916736 C257.11395425 227.79724461 257.1240289 234.75527913 257.12536502 241.71338964 C257.12641226 245.86803198 257.13230268 250.02253142 257.15018463 254.17713833 C257.1666874 258.0874518 257.16881021 261.99751529 257.16004562 265.90785122 C257.15927638 267.3400963 257.16360307 268.77235494 257.17350388 270.204566 C257.26147738 283.72769671 257.26147738 283.72769671 253.8024292 289.60494137 C249.78715717 293.6202134 245.40904101 293.65045356 239.9899292 293.66744137 C238.59403141 293.65150126 237.19814972 293.63230844 235.8024292 293.60494137 C235.83723389 294.16439449 235.87203857 294.72384762 235.90789795 295.30025387 C236.47827405 312.19425088 229.5832818 325.40835525 221.35321045 339.55806637 C220.45964844 341.10409542 220.45964844 341.10409542 219.54803467 342.68135738 C218.35758959 344.72967519 217.15249875 346.76956204 215.93182373 348.80000973 C215.38252197 349.73981686 214.83322021 350.67962399 214.26727295 351.64791012 C213.51885132 352.90124142 213.51885132 352.90124142 212.75531006 354.17989254 C211.29985779 357.88396821 212.492893 360.5055648 213.53924561 364.22188473 C213.93929921 369.36431778 212.43169039 373.81681021 211.0133667 378.73384762 C210.56291489 380.33473484 210.56291489 380.33473484 210.10336304 381.96796322 C209.46558422 384.21976648 208.82133926 386.46974703 208.17108154 388.71797848 C207.18156042 392.15309985 206.22331816 395.59592083 205.26727295 399.04048824 C204.64284911 401.23047778 204.01660715 403.4199499 203.3883667 405.60884762 C203.10480316 406.63603405 202.82123962 407.66322048 202.52908325 408.72153378 C199.64532511 418.51200295 199.64532511 418.51200295 194.8024292 421.60494137 C186.14260113 422.95481473 177.68534077 419.5966785 169.44696045 417.15181637 C167.85699146 416.68951621 166.26670898 416.228293 164.6761322 415.76808834 C160.50110041 414.55705682 156.33038729 413.33177323 152.16046143 412.10329342 C147.95698887 410.86752933 143.74971094 409.64487488 139.54266357 408.42134762 C134.78984736 407.03818723 130.03744662 405.65369902 125.28773499 404.25990963 C124.56389964 404.04768387 123.8400643 403.83545811 123.09429455 403.61680126 C121.68222325 403.20188883 120.27061936 402.78538183 118.85952473 402.36715984 C115.50855691 401.37772751 112.15491932 400.42477698 108.77297974 399.54646969 C107.52417023 399.21546261 106.27536072 398.88445553 104.9887085 398.54341793 C103.88931442 398.26355038 102.78992035 397.98368282 101.6572113 397.69533443 C98.48695049 396.48444328 96.94053736 395.21286409 94.8024292 392.60494137 C92.68086853 386.75569519 94.95871555 381.19771579 96.62664795 375.47603512 C96.92932083 374.40877697 97.23199371 373.34151882 97.5438385 372.24191952 C98.18598156 369.99015241 98.83441838 367.74017187 99.4887085 365.49190426 C100.48598572 362.05602767 101.45701636 358.61349011 102.42547607 355.16939449 C103.05346971 352.97949236 103.68297675 350.79002354 104.31414795 348.60103512 C104.60287277 347.57384869 104.8915976 346.54666225 105.18907166 345.48834896 C107.12020251 338.93383436 108.93426767 334.51704905 114.8024292 330.60494137 C114.33192139 330.02486324 113.86141357 329.44478512 113.37664795 328.84712887 C107.45084454 321.41226994 104.50142856 316.53550989 104.30633545 306.89791012 C104.8024292 303.60494137 104.8024292 303.60494137 108.8024292 294.60494137 C81.4124292 294.27494137 54.0224292 293.94494137 25.8024292 293.60494137 C26.1324292 292.61494137 26.4624292 291.62494137 26.8024292 290.60494137 C27.4624292 290.60494137 28.1224292 290.60494137 28.8024292 290.60494137 C29.23362061 289.73869137 29.23362061 289.73869137 29.67352295 288.85494137 C30.38645235 287.43401634 31.10684407 286.01678885 31.83758545 284.60494137 C32.17660889 283.94494137 32.51563232 283.28494137 32.8649292 282.60494137 C33.20653076 281.94494137 33.54813232 281.28494137 33.90008545 280.60494137 C36.86715129 274.02858764 36.28574306 267.51804153 33.82977295 260.87447262 C30.73805813 254.04448664 26.61822407 249.51585054 19.7086792 246.45650387 C12.21372535 244.2604018 4.47165885 244.43061378 -2.6975708 247.60494137 C-9.32535122 251.46842585 -13.36207512 257.38182063 -15.7288208 264.60884762 C-17.48236274 272.0760137 -15.82987126 279.17638557 -11.9553833 285.69478512 C-9.58605131 289.19957668 -9.58605131 289.19957668 -6.1975708 291.60494137 C-6.1975708 292.26494137 -6.1975708 292.92494137 -6.1975708 293.60494137 C-14.21226913 293.65129766 -22.22691137 293.68682726 -30.24171066 293.70856571 C-33.9633737 293.71899948 -37.68494496 293.73315119 -41.40655518 293.75582027 C-44.99863842 293.77756326 -48.59063343 293.78951306 -52.1827774 293.79469585 C-53.55270018 293.798389 -54.92261818 293.80560082 -56.29250336 293.81640148 C-58.21230859 293.83093486 -60.13220276 293.83175845 -62.05206299 293.83199215 C-63.14460388 293.83643337 -64.23714478 293.8408746 -65.36279297 293.8454504 C-68.21659811 293.60332705 -69.85923688 293.23958125 -72.1975708 291.60494137 C-73.27816755 288.36315112 -73.32874065 286.00762648 -73.3380127 282.59670162 C-73.34657791 280.71250515 -73.34657791 280.71250515 -73.35531616 278.7902441 C-73.35656152 277.39546881 -73.35768661 276.00069341 -73.35870361 274.60591793 C-73.36333228 273.13901806 -73.36835701 271.67211939 -73.37374878 270.20522213 C-73.3868714 266.2174541 -73.39331765 262.22970291 -73.39775944 258.24191666 C-73.40069082 255.74980156 -73.40479579 253.25769106 -73.40926361 250.76557827 C-73.42293914 242.96637151 -73.43260512 235.16717527 -73.4364655 227.36795735 C-73.44094438 218.36881061 -73.4584841 209.3698159 -73.4874661 200.37071538 C-73.50909585 193.41263813 -73.5191705 186.45460361 -73.52050662 179.4964931 C-73.52155387 175.34185076 -73.52744428 171.18735132 -73.54532623 167.03274441 C-73.561829 163.12243094 -73.56395181 159.21236744 -73.55518723 155.30203152 C-73.55441799 153.86978644 -73.55874468 152.4375278 -73.56864548 151.00531673 C-73.65661898 137.48218603 -73.65661898 137.48218603 -70.1975708 131.60494137 C-66.18229877 127.58966934 -61.80418261 127.55942918 -56.3850708 127.54244137 C-54.98917301 127.55838147 -53.59329132 127.5775743 -52.1975708 127.60494137 C-52.24397705 126.99650387 -52.2903833 126.38806637 -52.3381958 125.76119137 C-53.24775017 103.67201374 -40.77296458 84.76745642 -29.1741333 66.87447262 C-27.64478617 63.32026988 -28.8700284 60.72689632 -29.91729736 57.13960934 C-30.33132804 51.91806215 -28.84897623 47.46984205 -27.4085083 42.47603512 C-27.10820709 41.40877697 -26.80790588 40.34151882 -26.49850464 39.24191952 C-25.86072582 36.99011625 -25.21648086 34.74013571 -24.56622314 32.49190426 C-23.57670202 29.05678289 -22.61845976 25.61396191 -21.66241455 22.16939449 C-21.03799071 19.97940496 -20.41174875 17.78993284 -19.7835083 15.60103512 C-19.49994476 14.57384869 -19.21638123 13.54666225 -18.92422485 12.48834896 C-15.70471378 1.55798576 -11.33736583 -2.03812511 0 0 Z " fill="#4187B4" transform="translate(164.19757080078125,45.39505863189697)"/>
<path d="M0 0 C2.26952651 0.55368102 4.50553541 1.17834291 6.74700928 1.83638668 C7.59045898 2.07380077 8.43390869 2.31121487 9.30291748 2.55582333 C12.06283293 3.33627236 14.81740136 4.13393569 17.57196045 4.93306637 C19.49988695 5.48465227 21.42800606 6.03556535 23.35630798 6.58583736 C27.3838595 7.73818941 31.40878154 8.89921424 35.43206787 10.06636715 C40.58653075 11.56082079 45.74718349 13.03247133 50.91003895 14.49763012 C54.88729913 15.629193 58.86090647 16.77316633 62.83353233 17.92088223 C64.73539121 18.46862877 66.63839737 19.01240808 68.54255104 19.55212307 C71.20049323 20.30741019 73.85302092 21.07938584 76.50482178 21.85591793 C77.68231239 22.18499897 77.68231239 22.18499897 78.8835907 22.52072811 C83.16729771 23.79694448 86.03626952 25.03276202 88.8024292 28.60494137 C90.92398986 34.45418754 88.64614285 40.01216695 86.97821045 45.73384762 C86.67553757 46.80110577 86.37286469 47.86836391 86.0610199 48.96796322 C85.41887684 51.21973033 84.77044002 53.46971087 84.1161499 55.71797848 C83.11887268 59.15385507 82.14784204 62.59639263 81.17938232 66.04048824 C80.55138869 68.23039038 79.92188165 70.4198592 79.29071045 72.60884762 C79.00198563 73.63603405 78.7132608 74.66322048 78.41578674 75.72153378 C76.48465589 82.27604838 74.67059073 86.69283368 68.8024292 90.60494137 C69.27293701 91.17341793 69.74344482 91.74189449 70.22821045 92.32759762 C76.04810831 99.54523493 79.39621723 105.27979676 79.17352295 114.73775387 C78.5630467 119.45448612 76.79706476 123.30400845 74.8024292 127.60494137 C83.2174292 128.09994137 83.2174292 128.09994137 91.8024292 128.60494137 C92.1324292 149.72494137 92.4624292 170.84494137 92.8024292 192.60494137 C95.1124292 190.62494137 97.4224292 188.64494137 99.8024292 186.60494137 C106.48965745 182.47356475 113.16174448 182.77357153 120.8024292 183.60494137 C128.82821028 185.96546522 133.75566916 190.66347743 138.0524292 197.63228512 C141.25269613 203.7772421 141.90159828 209.78838891 140.8024292 216.60494137 C138.02806043 225.14790332 133.58380866 231.08497487 125.8024292 235.60494137 C119.29451631 238.75255937 111.84635315 238.61455801 104.90789795 236.88228512 C99.34552521 234.82245593 97.27304062 233.07555279 92.8024292 228.60494137 C92.4724292 249.72494137 92.1424292 270.84494137 91.8024292 292.60494137 C80.5524292 293.72994137 80.5524292 293.72994137 75.52655029 293.71846676 C74.40614349 293.71839123 73.28573669 293.7183157 72.13137817 293.71823788 C70.95805939 293.71307659 69.7847406 293.70791531 68.5758667 293.70259762 C67.34703766 293.70118267 66.11820862 293.69976772 64.85214233 293.6983099 C60.96054562 293.69275096 57.06900827 293.68020617 53.1774292 293.66744137 C50.52508629 293.66242106 47.87274246 293.65785908 45.22039795 293.65376949 C38.74772174 293.642795 32.27507971 293.62609821 25.8024292 293.60494137 C26.1324292 292.61494137 26.4624292 291.62494137 26.8024292 290.60494137 C27.4624292 290.60494137 28.1224292 290.60494137 28.8024292 290.60494137 C29.23362061 289.73869137 29.23362061 289.73869137 29.67352295 288.85494137 C30.38645235 287.43401634 31.10684407 286.01678885 31.83758545 284.60494137 C32.17660889 283.94494137 32.51563232 283.28494137 32.8649292 282.60494137 C33.20653076 281.94494137 33.54813232 281.28494137 33.90008545 280.60494137 C36.86715129 274.02858764 36.28574306 267.51804153 33.82977295 260.87447262 C30.73805813 254.04448664 26.61822407 249.51585054 19.7086792 246.45650387 C12.21372535 244.2604018 4.47165885 244.43061378 -2.6975708 247.60494137 C-9.32535122 251.46842585 -13.36207512 257.38182063 -15.7288208 264.60884762 C-17.48236274 272.0760137 -15.82987126 279.17638557 -11.9553833 285.69478512 C-9.58605131 289.19957668 -9.58605131 289.19957668 -6.1975708 291.60494137 C-6.1975708 292.26494137 -6.1975708 292.92494137 -6.1975708 293.60494137 C-14.21226913 293.65129766 -22.22691137 293.68682726 -30.24171066 293.70856571 C-33.9633737 293.71899948 -37.68494496 293.73315119 -41.40655518 293.75582027 C-44.99863842 293.77756326 -48.59063343 293.78951306 -52.1827774 293.79469585 C-53.55270018 293.798389 -54.92261818 293.80560082 -56.29250336 293.81640148 C-58.21230859 293.83093486 -60.13220276 293.83175845 -62.05206299 293.83199215 C-63.14460388 293.83643337 -64.23714478 293.8408746 -65.36279297 293.8454504 C-68.21659811 293.60332705 -69.85923688 293.23958125 -72.1975708 291.60494137 C-73.27816755 288.36315112 -73.32874065 286.00762648 -73.3380127 282.59670162 C-73.34657791 280.71250515 -73.34657791 280.71250515 -73.35531616 278.7902441 C-73.35656152 277.39546881 -73.35768661 276.00069341 -73.35870361 274.60591793 C-73.36333228 273.13901806 -73.36835701 271.67211939 -73.37374878 270.20522213 C-73.3868714 266.2174541 -73.39331765 262.22970291 -73.39775944 258.24191666 C-73.40069082 255.74980156 -73.40479579 253.25769106 -73.40926361 250.76557827 C-73.42293914 242.96637151 -73.43260512 235.16717527 -73.4364655 227.36795735 C-73.44094438 218.36881061 -73.4584841 209.3698159 -73.4874661 200.37071538 C-73.50909585 193.41263813 -73.5191705 186.45460361 -73.52050662 179.4964931 C-73.52155387 175.34185076 -73.52744428 171.18735132 -73.54532623 167.03274441 C-73.561829 163.12243094 -73.56395181 159.21236744 -73.55518723 155.30203152 C-73.55441799 153.86978644 -73.55874468 152.4375278 -73.56864548 151.00531673 C-73.65661898 137.48218603 -73.65661898 137.48218603 -70.1975708 131.60494137 C-66.18229877 127.58966934 -61.80418261 127.55942918 -56.3850708 127.54244137 C-54.98917301 127.55838147 -53.59329132 127.5775743 -52.1975708 127.60494137 C-52.24397705 126.99650387 -52.2903833 126.38806637 -52.3381958 125.76119137 C-53.24775017 103.67201374 -40.77296458 84.76745642 -29.1741333 66.87447262 C-27.64478617 63.32026988 -28.8700284 60.72689632 -29.91729736 57.13960934 C-30.33132804 51.91806215 -28.84897623 47.46984205 -27.4085083 42.47603512 C-27.10820709 41.40877697 -26.80790588 40.34151882 -26.49850464 39.24191952 C-25.86072582 36.99011625 -25.21648086 34.74013571 -24.56622314 32.49190426 C-23.57670202 29.05678289 -22.61845976 25.61396191 -21.66241455 22.16939449 C-21.03799071 19.97940496 -20.41174875 17.78993284 -19.7835083 15.60103512 C-19.49994476 14.57384869 -19.21638123 13.54666225 -18.92422485 12.48834896 C-15.70471378 1.55798576 -11.33736583 -2.03812511 0 0 Z " fill="#19CEB9" transform="translate(164.19757080078125,45.39505863189697)"/>
<path d="M0 0 C2.26952651 0.55368102 4.50553541 1.17834291 6.74700928 1.83638668 C7.59045898 2.07380077 8.43390869 2.31121487 9.30291748 2.55582333 C12.06283293 3.33627236 14.81740136 4.13393569 17.57196045 4.93306637 C19.49988695 5.48465227 21.42800606 6.03556535 23.35630798 6.58583736 C27.3838595 7.73818941 31.40878154 8.89921424 35.43206787 10.06636715 C40.58653075 11.56082079 45.74718349 13.03247133 50.91003895 14.49763012 C54.88729913 15.629193 58.86090647 16.77316633 62.83353233 17.92088223 C64.73539121 18.46862877 66.63839737 19.01240808 68.54255104 19.55212307 C71.20049323 20.30741019 73.85302092 21.07938584 76.50482178 21.85591793 C77.68231239 22.18499897 77.68231239 22.18499897 78.8835907 22.52072811 C83.16729771 23.79694448 86.03626952 25.03276202 88.8024292 28.60494137 C90.92398986 34.45418754 88.64614285 40.01216695 86.97821045 45.73384762 C86.67553757 46.80110577 86.37286469 47.86836391 86.0610199 48.96796322 C85.41887684 51.21973033 84.77044002 53.46971087 84.1161499 55.71797848 C83.11887268 59.15385507 82.14784204 62.59639263 81.17938232 66.04048824 C80.55138869 68.23039038 79.92188165 70.4198592 79.29071045 72.60884762 C79.00198563 73.63603405 78.7132608 74.66322048 78.41578674 75.72153378 C76.48465589 82.27604838 74.67059073 86.69283368 68.8024292 90.60494137 C69.27293701 91.17341793 69.74344482 91.74189449 70.22821045 92.32759762 C77.02557847 100.75745982 79.63256223 106.69462158 78.8024292 117.60494137 C76.8224292 123.04994137 76.8224292 123.04994137 74.8024292 128.60494137 C42.7924292 128.60494137 10.7824292 128.60494137 -22.1975708 128.60494137 C-22.07896299 147.75179765 -22.07896299 147.75179765 -21.92730713 166.8983984 C-21.91854323 169.3031795 -21.91089907 171.70796505 -21.90460205 174.11275387 C-21.88925415 175.35597408 -21.87390625 176.5991943 -21.85809326 177.88008785 C-21.85773071 179.07722408 -21.85736816 180.27436031 -21.85699463 181.5077734 C-21.85033279 182.54257839 -21.84367096 183.57738338 -21.83680725 184.6435461 C-22.34274761 188.79665241 -23.87091737 192.15045935 -26.6975708 195.24947262 C-31.69176649 199.13818228 -34.93835299 199.77670115 -41.1975708 199.85494137 C-42.4350708 199.88072262 -43.6725708 199.90650387 -44.9475708 199.93306637 C-48.1975708 199.60494137 -48.1975708 199.60494137 -49.8697052 198.5488348 C-51.87826187 195.60846184 -51.66997303 192.61799979 -51.69342041 189.17452145 C-51.71003723 188.41949841 -51.72665405 187.66447536 -51.74377441 186.88657284 C-51.79446217 184.38255014 -51.82309879 181.87885719 -51.84991455 179.37447262 C-51.87694478 177.62345992 -51.9046706 175.87245783 -51.93305969 174.12146664 C-51.98904159 170.4403141 -52.03362868 166.75922984 -52.07086182 163.07784176 C-52.11943547 158.40318187 -52.20013762 153.72973874 -52.29038143 149.05572128 C-52.35589776 145.43086218 -52.40148542 141.80594213 -52.44171333 138.18072224 C-52.4635217 136.46058497 -52.49174739 134.74051477 -52.52699089 133.02060032 C-52.84727437 116.54117549 -50.28830543 102.84415501 -41.8850708 88.35494137 C-41.02437988 86.8132629 -41.02437988 86.8132629 -40.14630127 85.24043941 C-36.6558886 79.0184209 -33.05541322 72.86194471 -29.1741333 66.87447262 C-27.64478617 63.32026988 -28.8700284 60.72689632 -29.91729736 57.13960934 C-30.33132804 51.91806215 -28.84897623 47.46984205 -27.4085083 42.47603512 C-27.10820709 41.40877697 -26.80790588 40.34151882 -26.49850464 39.24191952 C-25.86072582 36.99011625 -25.21648086 34.74013571 -24.56622314 32.49190426 C-23.57670202 29.05678289 -22.61845976 25.61396191 -21.66241455 22.16939449 C-21.03799071 19.97940496 -20.41174875 17.78993284 -19.7835083 15.60103512 C-19.49994476 14.57384869 -19.21638123 13.54666225 -18.92422485 12.48834896 C-15.70471378 1.55798576 -11.33736583 -2.03812511 0 0 Z " fill="#EFB16E" transform="translate(164.19757080078125,45.39505863189697)"/>
<path d="M0 0 C0.68126953 -0.020625 1.36253906 -0.04125 2.06445312 -0.0625 C7.00283579 -0.10119448 7.00283579 -0.10119448 9.25149536 1.30986023 C11.23056627 4.23866312 11.02660326 7.20120084 11.04248047 10.62036133 C11.057491 11.36884338 11.07250153 12.11732544 11.08796692 12.88848877 C11.13353341 15.36968154 11.15731027 17.85052855 11.1796875 20.33203125 C11.20417262 22.06541624 11.22950493 23.79878946 11.25564575 25.53215027 C11.30709837 29.17462782 11.34769924 32.81702821 11.38085938 36.4597168 C11.42394919 41.09182093 11.49429231 45.72301829 11.57317924 50.35463428 C11.63101738 53.94170058 11.67354271 57.5288315 11.71176529 61.11615562 C11.73178562 62.82116572 11.75646755 64.52612852 11.78619003 66.23099709 C12.00182112 79.29594627 11.44266331 91.87370904 5.1875 103.6875 C4.85951416 104.32018799 4.53152832 104.95287598 4.19360352 105.60473633 C1.94804569 109.87064122 -0.46316567 114.03638397 -2.88671875 118.203125 C-3.48242676 119.23381104 -4.07813477 120.26449707 -4.69189453 121.32641602 C-5.88233961 123.37473382 -7.08743045 125.41462067 -8.30810547 127.44506836 C-8.85740723 128.38487549 -9.40670898 129.32468262 -9.97265625 130.29296875 C-10.471604 131.12852295 -10.97055176 131.96407715 -11.48461914 132.82495117 C-12.9400714 136.52902684 -11.7470362 139.15062343 -10.70068359 142.86694336 C-10.30062999 148.00937641 -11.80823881 152.46186884 -13.2265625 157.37890625 C-13.52686371 158.4461644 -13.82716492 159.51342255 -14.13656616 160.61302185 C-14.77434498 162.86482511 -15.41858994 165.11480566 -16.06884766 167.36303711 C-17.05836878 170.79815848 -18.01661104 174.24097946 -18.97265625 177.68554688 C-19.59708009 179.87553641 -20.22332205 182.06500853 -20.8515625 184.25390625 C-21.13512604 185.28109268 -21.41868958 186.30827911 -21.71084595 187.36659241 C-24.59460409 197.15706158 -24.59460409 197.15706158 -29.4375 200.25 C-38.09732807 201.59987336 -46.55458843 198.24173713 -54.79296875 195.796875 C-56.38293774 195.33457484 -57.97322022 194.87335163 -59.563797 194.41314697 C-63.73882879 193.20211545 -67.90954191 191.97683187 -72.07946777 190.74835205 C-76.28294033 189.51258796 -80.49021826 188.28993352 -84.69726562 187.06640625 C-89.45008184 185.68324586 -94.20248258 184.29875765 -98.95219421 182.90496826 C-100.03794723 182.58662962 -100.03794723 182.58662962 -101.14563465 182.26185989 C-102.55770595 181.84694746 -103.96930984 181.43044046 -105.38040447 181.01221848 C-108.73137229 180.02278614 -112.08500988 179.06983561 -115.46694946 178.19152832 C-116.71575897 177.86052124 -117.96456848 177.52951416 -119.2512207 177.18847656 C-120.90031181 176.76867523 -120.90031181 176.76867523 -122.5827179 176.34039307 C-125.75297871 175.12950191 -127.29939184 173.85792272 -129.4375 171.25 C-131.55906066 165.40075382 -129.28121365 159.84277442 -127.61328125 154.12109375 C-127.31060837 153.0538356 -127.00793549 151.98657745 -126.6960907 150.88697815 C-126.05394764 148.63521104 -125.40551082 146.3852305 -124.7512207 144.13696289 C-123.75394348 140.7010863 -122.78291284 137.25854874 -121.81445312 133.81445312 C-121.18645949 131.62455099 -120.55695245 129.43508217 -119.92578125 127.24609375 C-119.63705643 126.21890732 -119.3483316 125.19172089 -119.05085754 124.13340759 C-117.11972669 117.57889299 -115.30566153 113.16210769 -109.4375 109.25 C-110.14326172 108.37988281 -110.14326172 108.37988281 -110.86328125 107.4921875 C-116.7141611 100.15133203 -119.71570227 95.24415656 -120.03125 85.73828125 C-119.4375 82.25 -119.4375 82.25 -114.4375 71.25 C-82.7575 71.25 -51.0775 71.25 -18.4375 71.25 C-18.59565095 51.77394669 -18.59565095 51.77394669 -18.79785156 32.29833984 C-18.80953655 29.85254616 -18.81972882 27.40674469 -18.828125 24.9609375 C-18.84858887 23.69612549 -18.86905273 22.43131348 -18.89013672 21.12817383 C-18.89454924 10.01523863 -18.89454924 10.01523863 -14.4375 5.25 C-9.48888341 0.89050443 -6.47422418 0.04872417 0 0 Z " fill="#EFB06E" transform="translate(388.4375,266.75)"/>
<path d="M0 0 C2.26961321 0.55344167 4.5055801 1.17810453 6.74707985 1.83615589 C7.59052956 2.07356998 8.43397926 2.31098408 9.30298805 2.55559254 C12.0629035 3.33604157 14.81747194 4.1337049 17.57203102 4.93283558 C19.49995752 5.48442148 21.42807663 6.03533456 23.35637856 6.58560658 C27.38393007 7.73795862 31.40885212 8.89898345 35.43213844 10.06613636 C40.58660133 11.56059 45.74725406 13.03224054 50.91010952 14.49739933 C54.8873697 15.62896221 58.86097704 16.77293554 62.83360291 17.92065144 C64.73546178 18.46839798 66.63846794 19.01217729 68.54262161 19.55189228 C71.2005638 20.3071794 73.85309149 21.07915505 76.50489235 21.85568714 C77.28988609 22.0750745 78.07487984 22.29446186 78.88366127 22.52049732 C83.16736828 23.79671369 86.03634009 25.03253124 88.80249977 28.60471058 C90.92406044 34.45395675 88.64621342 40.01193616 86.97828102 45.73361683 C86.67560814 46.80087498 86.37293526 47.86813313 86.06109047 48.96773243 C85.41894741 51.21949954 84.77051059 53.46948008 84.11622047 55.71774769 C83.11894325 59.15362428 82.14791261 62.59616184 81.1794529 66.04025745 C80.55145926 68.23015959 79.92195222 70.41962841 79.29078102 72.60861683 C79.0020562 73.63580326 78.71333138 74.66298969 78.41585732 75.72130299 C76.92938239 80.76659629 75.66451987 84.82784591 71.80249977 88.60471058 C66.96066975 90.79990956 61.82257707 88.51815978 56.98999977 87.10471058 C55.51768898 86.68814198 55.51768898 86.68814198 54.01563454 86.26315784 C50.94092372 85.38924123 47.87132865 84.49904081 44.80249977 83.60471058 C43.06813296 83.10338016 41.33375827 82.60207699 39.59937477 82.10080433 C35.84551284 81.01173595 32.09512955 79.91127078 28.34546852 78.80783558 C22.04303154 76.95866592 15.73008016 75.14728922 9.41578102 73.33908558 C6.32905775 72.45349336 3.24242043 71.56760215 0.15580177 70.68164539 C-1.90723059 70.0903614 -3.97064482 69.50040808 -6.03444481 68.91180897 C-8.95961792 68.07731269 -11.88336083 67.2379652 -14.80687523 66.39767933 C-15.69440987 66.14584888 -16.5819445 65.89401844 -17.49637413 65.63455677 C-18.32039223 65.39678516 -19.14441032 65.15901356 -19.99339867 64.91403675 C-21.07062187 64.60595333 -21.07062187 64.60595333 -22.16960716 64.291646 C-25.09773408 63.29976229 -27.54255011 62.4156012 -29.51000023 59.97971058 C-31.40539153 53.43199518 -28.2340355 45.49759314 -26.43187523 39.15549183 C-26.15659996 38.17984776 -25.88132469 37.20420368 -25.59770775 36.19899464 C-25.01596444 34.14831152 -24.43084323 32.09858396 -23.84251976 30.04977894 C-22.94850694 26.92073406 -22.07869041 23.7855719 -21.20921898 20.64963245 C-20.63908291 18.65116319 -20.06751677 16.65310123 -19.49437523 14.65549183 C-19.23895958 13.72207462 -18.98354393 12.78865742 -18.72038841 11.82695484 C-15.59392217 1.17168655 -10.88436906 -1.95789556 0 0 Z " fill="#847784" transform="translate(164.19750022888184,45.39528942108154)"/>
<path d="M0 0 C1.14436523 0.30969727 2.28873047 0.61939453 3.46777344 0.93847656 C11.43764252 3.11568685 19.35414476 5.4309384 27.23803711 7.90063477 C32.79976494 9.63091839 38.38049232 11.26197651 43.99578857 12.80810547 C47.48126934 13.76781026 50.96297892 14.74089419 54.44494629 15.71325684 C56.18190808 16.19385164 57.92076902 16.66763751 59.66149902 17.13439941 C62.11799257 17.79374609 64.56689766 18.47652056 67.015625 19.1640625 C68.12967712 19.45293839 68.12967712 19.45293839 69.26623535 19.74765015 C72.47478053 20.66987883 74.55017301 21.53536322 76.86230469 23.97802734 C79.1518963 30.8079756 75.9450334 38.58178405 74.046875 45.26171875 C73.77159973 46.23736282 73.49632446 47.2130069 73.21270752 48.21821594 C72.63096422 50.26889906 72.045843 52.31862662 71.45751953 54.36743164 C70.56350671 57.49647652 69.69369018 60.63163868 68.82421875 63.76757812 C68.25408268 65.76604739 67.68251654 67.76410935 67.109375 69.76171875 C66.72625153 71.16184456 66.72625153 71.16184456 66.33538818 72.59025574 C64.81319819 77.77801135 63.52794441 81.72247331 58.8125 84.8125 C50.15267193 86.16237336 41.69541157 82.80423713 33.45703125 80.359375 C31.86706226 79.89707484 30.27677978 79.43585163 28.686203 78.97564697 C24.51117121 77.76461545 20.34045809 76.53933187 16.17053223 75.31085205 C11.96705967 74.07508796 7.75978174 72.85243352 3.55273438 71.62890625 C-1.20008184 70.24574586 -5.95248258 68.86125765 -10.70219421 67.46746826 C-11.78794723 67.14912962 -11.78794723 67.14912962 -12.89563465 66.82435989 C-14.30770595 66.40944746 -15.71930984 65.99294046 -17.13040447 65.57471848 C-20.48137229 64.58528614 -23.83500988 63.63233561 -27.21694946 62.75402832 C-28.46575897 62.42302124 -29.71456848 62.09201416 -31.0012207 61.75097656 C-32.10061478 61.47110901 -33.20000885 61.19124146 -34.3327179 60.90289307 C-37.50297871 59.69200191 -39.04939184 58.42042272 -41.1875 55.8125 C-43.30906066 49.96325382 -41.03121365 44.40527442 -39.36328125 38.68359375 C-39.06060837 37.6163356 -38.75793549 36.54907745 -38.4460907 35.44947815 C-37.80394764 33.19771104 -37.15551082 30.9477305 -36.5012207 28.69946289 C-35.50394348 25.2635863 -34.53291284 21.82104874 -33.56445312 18.37695312 C-32.93645949 16.18705099 -32.30695245 13.99758217 -31.67578125 11.80859375 C-31.24269402 10.2678141 -31.24269402 10.2678141 -30.80085754 8.69590759 C-29.31283372 3.64535709 -28.04186636 -0.39728261 -24.1875 -4.1875 C-18.17749436 -7.19250282 -6.19835074 -1.68467995 0 0 Z " fill="#847784" transform="translate(300.1875,382.1875)"/>
</svg>
