<?xml version="1.0" encoding="UTF-8"?>
<svg version="1.1" xmlns="http://www.w3.org/2000/svg" width="512" height="512">
<path d="M0 0 C0.99372037 0.25965199 0.99372037 0.25965199 2.00751591 0.52454948 C4.20184951 1.10045376 6.39217611 1.69029466 8.58276367 2.28027344 C10.16083876 2.69752952 11.73914302 3.11391965 13.31765747 3.5295105 C17.57881936 4.65405955 21.83664142 5.79079843 26.09391403 6.92996979 C30.54811714 8.11975862 35.00517859 9.29874378 39.46191406 10.47900391 C46.87729824 12.44438806 54.29074314 14.41694062 61.70288086 16.39453125 C71.78559169 19.08456601 81.87221962 21.75965462 91.95973396 24.43161011 C98.7799882 26.23884114 105.59913312 28.05025229 112.41820908 29.86192322 C114.86793781 30.51257817 117.31782671 31.16262741 119.76773071 31.81262207 C123.61986444 32.83502052 127.47115738 33.86053087 131.32183456 34.88840103 C132.72508109 35.26253169 134.128578 35.63572477 135.53235245 36.00786972 C151.47365298 40.23562013 151.47365298 40.23562013 156.93823242 42.38964844 C157.26823242 43.37964844 157.59823242 44.36964844 157.93823242 45.38964844 C157.60823242 46.04964844 157.27823242 46.70964844 156.93823242 47.38964844 C153.87573242 48.01464844 153.87573242 48.01464844 150.93823242 48.38964844 C150.81395963 60.0035005 150.7490454 71.61603379 150.75944996 83.23059177 C150.7624262 88.62420685 150.74512799 94.01615439 150.68115234 99.40942383 C150.62013437 104.61671431 150.61282257 109.82159077 150.64240074 115.02912712 C150.64430111 117.01346236 150.6270015 118.99791374 150.59000587 120.98190498 C150.26351391 129.80689528 150.26351391 129.80689528 151.93823242 138.38964844 C154.63144756 140.88325526 157.14751865 142.13128877 160.46162415 143.66835022 C162.93823242 145.38964844 162.93823242 145.38964844 163.91642761 148.34251404 C164.20689662 152.13538436 164.17889014 155.84294747 164.01245117 159.63574219 C163.99190654 161.01572947 163.97626174 162.3957976 163.96528625 163.77589417 C163.92349457 167.38994094 163.8156697 170.99903984 163.69354248 174.61114502 C163.58053411 178.30420985 163.53067697 181.99808343 163.4753418 185.69238281 C163.35774529 192.92704879 163.17030653 200.15765273 162.93823242 207.38964844 C155.44213867 203.18652344 155.44213867 203.18652344 152.41088867 200.81152344 C151.84692383 200.37324219 151.28295898 199.93496094 150.7019043 199.48339844 C150.14051758 199.03996094 149.57913086 198.59652344 149.00073242 198.13964844 C148.41227539 197.68074219 147.82381836 197.22183594 147.2175293 196.74902344 C145.78794901 195.63325346 144.36262819 194.51202946 142.93823242 193.38964844 C136.97167958 197.19440677 131.43562621 201.31201419 126.00463867 205.85058594 C123.93823242 207.38964844 123.93823242 207.38964844 121.93823242 207.38964844 C121.70611778 199.40985233 121.52865721 191.43147423 121.4201107 183.44913292 C121.36800019 179.74205372 121.29739185 176.03728943 121.18383789 172.33154297 C121.07484876 168.75219821 121.01533002 165.17507261 120.98945999 161.59419632 C120.9710375 160.23116726 120.93505414 158.8682547 120.88093185 157.50617599 C120.7200611 153.28826409 120.71672499 149.44695137 121.93823242 145.38964844 C125.17836934 142.17033353 129.22264942 139.38964844 133.93823242 139.38964844 C133.93823242 111.00964844 133.93823242 82.62964844 133.93823242 53.38964844 C123.04823242 56.35964844 123.04823242 56.35964844 111.93823242 59.38964844 C110.94823242 59.38964844 109.95823242 59.38964844 108.93823242 59.38964844 C108.94711487 60.49132355 108.95599731 61.59299866 108.96514893 62.72805786 C109.04627335 73.11572919 109.10621643 83.50333615 109.14548111 93.89125252 C109.16634622 99.23167256 109.19464454 104.57183664 109.23999023 109.91210938 C109.28348588 115.06682726 109.30737763 120.22129912 109.31774139 125.37618637 C109.32512605 127.34177396 109.33954662 129.30734825 109.36115265 131.27283096 C109.39023596 134.02837356 109.39418635 136.78290256 109.39233398 139.53857422 C109.40671509 140.34921829 109.42109619 141.15986237 109.43591309 141.99507141 C109.39776562 147.2475786 108.42922144 150.23139942 104.93823242 154.38964844 C101.79635337 156.48423447 99.93717391 156.94299124 96.2734375 157.62646484 C95.09624146 157.84955322 93.91904541 158.0726416 92.70617676 158.30249023 C91.46920044 158.52976807 90.23222412 158.7570459 88.95776367 158.99121094 C87.25203186 159.31255005 87.25203186 159.31255005 85.51184082 159.64038086 C81.25955034 160.43935693 77.00500141 161.22627511 72.75073242 162.01464844 C63.24260742 163.78839844 53.73448242 165.56214844 43.93823242 167.38964844 C43.93823242 195.10964844 43.93823242 222.82964844 43.93823242 251.38964844 C54.58168954 240.62759567 54.58168954 240.62759567 65.20849609 229.84912109 C66.54879801 228.5000549 67.88966203 227.15154681 69.23120117 225.80371094 C69.91815063 225.10141357 70.6051001 224.39911621 71.31286621 223.67553711 C76.12034034 218.86545919 79.80412448 216.12661502 86.81323242 216.01464844 C93.8316178 216.19140777 97.702752 219.07059485 102.68823242 223.76464844 C107.7594768 229.15498235 109.26631807 233.51055561 109.33666992 240.82714844 C108.61597947 245.46217723 107.03309014 248.58425324 103.23043823 251.38154602 C102.13869293 251.98403671 101.04694763 252.5865274 99.92211914 253.20727539 C77.18618393 266.41273338 52.06769566 285.2680872 43.93823242 311.38964844 C37.1745091 338.22671073 39.06952918 368.02940234 39.75073242 395.45214844 C39.77383075 396.38303929 39.79692907 397.31393014 39.82072735 398.2730298 C40.25400238 415.14547116 40.83901426 432.0127851 41.84788513 448.86126709 C41.93862707 450.42907767 42.02936174 451.99688867 42.12008858 453.56470013 C42.28849306 456.45800184 42.47963414 459.34848979 42.68575859 462.23932362 C42.76297709 463.51116851 42.84019558 464.7830134 42.91975403 466.09339905 C43.03363071 467.74659952 43.03363071 467.74659952 43.14980793 469.43319798 C42.88279615 473.16428724 41.59275286 475.735128 38.93823242 478.38964844 C37.48155714 478.48901905 36.02008145 478.51887633 34.56002235 478.5210762 C33.60891441 478.52491735 32.65780647 478.52875849 31.67787707 478.53271604 C30.62060738 478.53184955 29.5633377 478.53098307 28.47402954 478.53009033 C26.80370826 478.53454702 26.80370826 478.53454702 25.09964311 478.53909373 C21.3370105 478.54782346 17.57440954 478.54929257 13.81176758 478.55078125 C11.1268651 478.55540638 8.44196558 478.56040962 5.75706482 478.56582642 C-1.55895811 478.57942952 -8.87497557 478.58543753 -16.19100904 478.58983707 C-20.75584626 478.59259617 -25.32068134 478.5968329 -29.88551712 478.60134125 C-42.51461085 478.61353651 -55.14370286 478.62383531 -67.77280235 478.62721634 C-68.98610445 478.62754569 -68.98610445 478.62754569 -70.2239177 478.62788169 C-71.44018718 478.62820911 -71.44018718 478.62820911 -72.68102777 478.62854314 C-74.32421708 478.62898661 -75.96740639 478.62943317 -77.6105957 478.62988281 C-78.8332238 478.63021496 -78.8332238 478.63021496 -80.08055146 478.63055381 C-93.29283347 478.63450323 -106.50506037 478.65196046 -119.71732108 478.67524233 C-133.26960815 478.69893138 -146.82186755 478.71141707 -160.37417567 478.71258426 C-167.98836619 478.7135024 -175.60248493 478.7192896 -183.21665573 478.73740387 C-189.69950678 478.75277191 -196.18226386 478.75794493 -202.66512965 478.74966577 C-205.9748754 478.74574746 -209.28439127 478.74836372 -212.59412193 478.76072311 C-216.17744616 478.77332377 -219.76027756 478.76763063 -223.34359741 478.75714111 C-224.39640565 478.76519752 -225.44921389 478.77325392 -226.53392541 478.78155446 C-227.49024885 478.77496462 -228.44657229 478.76837477 -229.43187523 478.76158524 C-230.2595032 478.76218232 -231.08713116 478.76277941 -231.93983877 478.76339459 C-234.5922237 478.29621649 -235.44163538 477.5075058 -237.06176758 475.38964844 C-237.97212261 472.65858333 -238.18392471 471.09071605 -238.17529297 468.28540039 C-238.17521744 467.46477615 -238.17514191 466.64415192 -238.17506409 465.79866028 C-238.1699028 464.91731918 -238.16474152 464.03597809 -238.15942383 463.12792969 C-238.15800888 462.22213669 -238.15659393 461.31634369 -238.15513611 460.38310242 C-238.14953759 457.48941753 -238.13698539 454.59580995 -238.12426758 451.70214844 C-238.11925239 449.74056101 -238.11468951 447.77897238 -238.1105957 445.81738281 C-238.09956865 441.00810822 -238.08230505 436.19889144 -238.06176758 431.38964844 C-239.30788818 431.4105957 -240.55400879 431.43154297 -241.83789062 431.453125 C-246.46895825 431.52562195 -251.09997588 431.57148357 -255.73144531 431.609375 C-257.73446086 431.62946835 -259.7374179 431.65674809 -261.74023438 431.69140625 C-264.62229866 431.74002455 -267.50358624 431.76263995 -270.38598633 431.78027344 C-271.72532478 431.81124115 -271.72532478 431.81124115 -273.09172058 431.84283447 C-273.93221451 431.8431366 -274.77270844 431.84343872 -275.63867188 431.84375 C-276.37369431 431.85263245 -277.10871674 431.86151489 -277.86601257 431.8706665 C-281.37161753 431.10270318 -282.64374612 430.11525037 -285.06176758 427.38964844 C-285.92137075 423.38060888 -285.90559189 419.37299014 -285.9591217 415.28405762 C-286.01209723 413.40214525 -286.01209723 413.40214525 -286.06614298 411.48221445 C-286.16283834 407.9963681 -286.22784148 404.51054326 -286.28709376 401.02388525 C-286.34185924 398.03278573 -286.41488811 395.04224042 -286.48785514 392.05153805 C-287.18085055 363.54729283 -287.49620736 335.03041499 -287.75216007 306.51931 C-287.78617809 302.79607086 -287.82077205 299.07283766 -287.85595703 295.34960938 C-287.86467118 294.42436 -287.87338533 293.49911063 -287.88236355 292.5458234 C-288.02744639 277.65316143 -288.3424841 262.7691256 -288.72716815 247.88093132 C-289.12032356 232.53520388 -289.34083667 217.19387399 -289.40501302 201.84320879 C-289.44539697 193.24571088 -289.5582006 184.66344532 -289.86671638 176.07102966 C-291.90477504 117.48906822 -291.90477504 117.48906822 -272.11063546 95.88578844 C-246.46695357 68.85731277 -246.46695357 68.85731277 -237.11337852 68.26660061 C-235.91043868 68.2679833 -235.91043868 68.2679833 -234.68319702 68.26939392 C-233.7633049 68.26801926 -232.84341278 68.26664459 -231.89564514 68.26522827 C-230.88360519 68.26882355 -229.87156525 68.27241882 -228.82885742 68.27612305 C-227.76542618 68.27597702 -226.70199493 68.27583099 -225.6063385 68.27568054 C-222.0784402 68.27637925 -218.55059419 68.28416973 -215.02270508 68.29199219 C-212.58175689 68.29385651 -210.14080832 68.29528035 -207.69985962 68.29627991 C-201.26528903 68.30010393 -194.8307409 68.30993324 -188.3961792 68.32098389 C-181.83419092 68.33120048 -175.27219902 68.33577806 -168.71020508 68.34082031 C-155.82738269 68.35155559 -142.944577 68.36863065 -130.06176758 68.38964844 C-130.06176758 65.41964844 -130.06176758 62.44964844 -130.06176758 59.38964844 C-131.48102539 59.16535156 -132.9002832 58.94105469 -134.36254883 58.70996094 C-143.12676575 57.11646695 -151.66815845 54.62624066 -160.24926758 52.26464844 C-161.98157355 51.79156759 -163.71399462 51.31890797 -165.4465332 50.84667969 C-169.65295367 49.69918687 -173.85777659 48.54600877 -178.06176758 47.38964844 C-178.39176758 45.73964844 -178.72176758 44.08964844 -179.06176758 42.38964844 C-159.36673831 36.57160179 -139.48713237 31.43365371 -119.62868118 26.20967484 C-110.87909735 23.90780312 -102.13037491 21.60266366 -93.38208008 19.29589844 C-92.42123316 19.04262346 -91.46038624 18.78934849 -90.47042274 18.52839851 C-78.71235343 15.42784308 -66.96277985 12.29891007 -55.22991753 9.1042347 C-53.21578415 8.55592446 -51.20133554 8.00878824 -49.18678284 7.46202087 C-43.20840408 5.83852183 -37.23281308 4.20599592 -31.26171875 2.5559082 C-29.18607452 1.99092991 -27.11031725 1.42636667 -25.03442383 0.86230469 C-23.67334 0.47969482 -23.67334 0.47969482 -22.28475952 0.08935547 C-21.44168243 -0.1376001 -20.59860535 -0.36455566 -19.72998047 -0.59838867 C-18.65799156 -0.89403969 -18.65799156 -0.89403969 -17.56434631 -1.19566345 C-11.37338342 -2.22153276 -6.02179649 -1.59975421 0 0 Z " fill="#EBEEF0" transform="translate(317.061767578125,17.6103515625)"/>
<path d="M0 0 C0.66248025 0.17310133 1.3249605 0.34620266 2.00751591 0.52454948 C4.20184951 1.10045376 6.39217611 1.69029466 8.58276367 2.28027344 C10.16083876 2.69752952 11.73914302 3.11391965 13.31765747 3.5295105 C17.57881936 4.65405955 21.83664142 5.79079843 26.09391403 6.92996979 C30.54811714 8.11975862 35.00517859 9.29874378 39.46191406 10.47900391 C46.87729824 12.44438806 54.29074314 14.41694062 61.70288086 16.39453125 C71.78559169 19.08456601 81.87221962 21.75965462 91.95973396 24.43161011 C98.7799882 26.23884114 105.59913312 28.05025229 112.41820908 29.86192322 C114.86793781 30.51257817 117.31782671 31.16262741 119.76773071 31.81262207 C123.61986444 32.83502052 127.47115738 33.86053087 131.32183456 34.88840103 C132.72508109 35.26253169 134.128578 35.63572477 135.53235245 36.00786972 C151.47365298 40.23562013 151.47365298 40.23562013 156.93823242 42.38964844 C157.26823242 43.37964844 157.59823242 44.36964844 157.93823242 45.38964844 C157.60823242 46.04964844 157.27823242 46.70964844 156.93823242 47.38964844 C153.87573242 48.01464844 153.87573242 48.01464844 150.93823242 48.38964844 C150.81395963 60.0035005 150.7490454 71.61603379 150.75944996 83.23059177 C150.7624262 88.62420685 150.74512799 94.01615439 150.68115234 99.40942383 C150.62013437 104.61671431 150.61282257 109.82159077 150.64240074 115.02912712 C150.64430111 117.01346236 150.6270015 118.99791374 150.59000587 120.98190498 C150.26351391 129.80689528 150.26351391 129.80689528 151.93823242 138.38964844 C154.63144756 140.88325526 157.14751865 142.13128877 160.46162415 143.66835022 C162.93823242 145.38964844 162.93823242 145.38964844 163.91642761 148.34251404 C164.20689662 152.13538436 164.17889014 155.84294747 164.01245117 159.63574219 C163.99190654 161.01572947 163.97626174 162.3957976 163.96528625 163.77589417 C163.92349457 167.38994094 163.8156697 170.99903984 163.69354248 174.61114502 C163.58053411 178.30420985 163.53067697 181.99808343 163.4753418 185.69238281 C163.35774529 192.92704879 163.17030653 200.15765273 162.93823242 207.38964844 C155.44213867 203.18652344 155.44213867 203.18652344 152.41088867 200.81152344 C151.84692383 200.37324219 151.28295898 199.93496094 150.7019043 199.48339844 C150.14051758 199.03996094 149.57913086 198.59652344 149.00073242 198.13964844 C148.41227539 197.68074219 147.82381836 197.22183594 147.2175293 196.74902344 C145.78794901 195.63325346 144.36262819 194.51202946 142.93823242 193.38964844 C136.97167958 197.19440677 131.43562621 201.31201419 126.00463867 205.85058594 C123.93823242 207.38964844 123.93823242 207.38964844 121.93823242 207.38964844 C121.70611778 199.40985233 121.52865721 191.43147423 121.4201107 183.44913292 C121.36800019 179.74205372 121.29739185 176.03728943 121.18383789 172.33154297 C121.07484876 168.75219821 121.01533002 165.17507261 120.98945999 161.59419632 C120.9710375 160.23116726 120.93505414 158.8682547 120.88093185 157.50617599 C120.7200611 153.28826409 120.71672499 149.44695137 121.93823242 145.38964844 C125.17836934 142.17033353 129.22264942 139.38964844 133.93823242 139.38964844 C133.93823242 111.00964844 133.93823242 82.62964844 133.93823242 53.38964844 C123.04823242 56.35964844 123.04823242 56.35964844 111.93823242 59.38964844 C110.94823242 59.38964844 109.95823242 59.38964844 108.93823242 59.38964844 C108.94711487 60.49132355 108.95599731 61.59299866 108.96514893 62.72805786 C109.04627335 73.11572919 109.10621643 83.50333615 109.14548111 93.89125252 C109.16634622 99.23167256 109.19464454 104.57183664 109.23999023 109.91210938 C109.28348588 115.06682726 109.30737763 120.22129912 109.31774139 125.37618637 C109.32512605 127.34177396 109.33954662 129.30734825 109.36115265 131.27283096 C109.39023596 134.02837356 109.39418635 136.78290256 109.39233398 139.53857422 C109.40671509 140.34921829 109.42109619 141.15986237 109.43591309 141.99507141 C109.39776562 147.2475786 108.42922144 150.23139942 104.93823242 154.38964844 C101.79635337 156.48423447 99.93717391 156.94299124 96.2734375 157.62646484 C95.09624146 157.84955322 93.91904541 158.0726416 92.70617676 158.30249023 C91.46920044 158.52976807 90.23222412 158.7570459 88.95776367 158.99121094 C87.25203186 159.31255005 87.25203186 159.31255005 85.51184082 159.64038086 C81.25955034 160.43935693 77.00500141 161.22627511 72.75073242 162.01464844 C63.24260742 163.78839844 53.73448242 165.56214844 43.93823242 167.38964844 C43.93823242 195.10964844 43.93823242 222.82964844 43.93823242 251.38964844 C54.58168954 240.62759567 54.58168954 240.62759567 65.20849609 229.84912109 C66.54879801 228.5000549 67.88966203 227.15154681 69.23120117 225.80371094 C69.91815063 225.10141357 70.6051001 224.39911621 71.31286621 223.67553711 C76.12034034 218.86545919 79.80412448 216.12661502 86.81323242 216.01464844 C93.8316178 216.19140777 97.702752 219.07059485 102.68823242 223.76464844 C107.7594768 229.15498235 109.26631807 233.51055561 109.33666992 240.82714844 C108.61597947 245.46217723 107.03309014 248.58425324 103.23043823 251.38154602 C102.13869293 251.98403671 101.04694763 252.5865274 99.92211914 253.20727539 C77.18618393 266.41273338 52.06769566 285.2680872 43.93823242 311.38964844 C37.1745091 338.22671073 39.06952918 368.02940234 39.75073242 395.45214844 C39.77383075 396.38303929 39.79692907 397.31393014 39.82072735 398.2730298 C40.25400238 415.14547116 40.83901426 432.0127851 41.84788513 448.86126709 C41.93862707 450.42907767 42.02936174 451.99688867 42.12008858 453.56470013 C42.28849306 456.45800184 42.47963414 459.34848979 42.68575859 462.23932362 C42.76297709 463.51116851 42.84019558 464.7830134 42.91975403 466.09339905 C43.03363071 467.74659952 43.03363071 467.74659952 43.14980793 469.43319798 C42.88279615 473.16428724 41.59275286 475.735128 38.93823242 478.38964844 C37.48155714 478.48901905 36.02008145 478.51887633 34.56002235 478.5210762 C33.60891441 478.52491735 32.65780647 478.52875849 31.67787707 478.53271604 C30.62060738 478.53184955 29.5633377 478.53098307 28.47402954 478.53009033 C26.80370826 478.53454702 26.80370826 478.53454702 25.09964311 478.53909373 C21.3370105 478.54782346 17.57440954 478.54929257 13.81176758 478.55078125 C11.1268651 478.55540638 8.44196558 478.56040962 5.75706482 478.56582642 C-1.55895811 478.57942952 -8.87497557 478.58543753 -16.19100904 478.58983707 C-20.75584626 478.59259617 -25.32068134 478.5968329 -29.88551712 478.60134125 C-42.51461085 478.61353651 -55.14370286 478.62383531 -67.77280235 478.62721634 C-68.98610445 478.62754569 -68.98610445 478.62754569 -70.2239177 478.62788169 C-71.44018718 478.62820911 -71.44018718 478.62820911 -72.68102777 478.62854314 C-74.32421708 478.62898661 -75.96740639 478.62943317 -77.6105957 478.62988281 C-78.8332238 478.63021496 -78.8332238 478.63021496 -80.08055146 478.63055381 C-93.29283347 478.63450323 -106.50506037 478.65196046 -119.71732108 478.67524233 C-133.26960815 478.69893138 -146.82186755 478.71141707 -160.37417567 478.71258426 C-167.98836619 478.7135024 -175.60248493 478.7192896 -183.21665573 478.73740387 C-189.69950678 478.75277191 -196.18226386 478.75794493 -202.66512965 478.74966577 C-205.9748754 478.74574746 -209.28439127 478.74836372 -212.59412193 478.76072311 C-216.17744616 478.77332377 -219.76027756 478.76763063 -223.34359741 478.75714111 C-224.39640565 478.76519752 -225.44921389 478.77325392 -226.53392541 478.78155446 C-227.49024885 478.77496462 -228.44657229 478.76837477 -229.43187523 478.76158524 C-230.2595032 478.76218232 -231.08713116 478.76277941 -231.93983877 478.76339459 C-234.5922237 478.29621649 -235.44163538 477.5075058 -237.06176758 475.38964844 C-237.97212261 472.65858333 -238.18392471 471.09071605 -238.17529297 468.28540039 C-238.17521744 467.46477615 -238.17514191 466.64415192 -238.17506409 465.79866028 C-238.1699028 464.91731918 -238.16474152 464.03597809 -238.15942383 463.12792969 C-238.15800888 462.22213669 -238.15659393 461.31634369 -238.15513611 460.38310242 C-238.14953759 457.48941753 -238.13698539 454.59580995 -238.12426758 451.70214844 C-238.11925239 449.74056101 -238.11468951 447.77897238 -238.1105957 445.81738281 C-238.09956865 441.00810822 -238.08230505 436.19889144 -238.06176758 431.38964844 C-236.89647931 431.38910367 -235.73119104 431.3885589 -234.53059101 431.38799763 C-206.87422684 431.37395604 -179.21799691 431.33421569 -151.56171887 431.26279281 C-148.15833388 431.25402598 -144.75494838 431.24547618 -141.3515625 431.23706055 C-140.3352255 431.23454195 -140.3352255 431.23454195 -139.29835644 431.23197248 C-128.32479789 431.20529651 -117.35129158 431.19620698 -106.37770394 431.19360701 C-95.11929709 431.19054846 -83.86103987 431.1682407 -72.60269088 431.12912387 C-66.27835169 431.1077617 -59.95426796 431.09520991 -53.62989235 431.10349464 C-47.67986826 431.11101421 -41.73036265 431.09529672 -35.78043365 431.06158829 C-33.59430914 431.0533298 -31.40813331 431.05363455 -29.22201347 431.06305122 C-26.24100594 431.07462279 -23.26171193 431.05563122 -20.28083801 431.02888489 C-19.41215696 431.03955815 -18.5434759 431.05023141 -17.64847118 431.0612281 C-13.29963968 430.98823772 -11.57365749 430.78562066 -8.02315521 428.03913116 C-5.59289112 424.75628048 -5.45413278 423.00381733 -5.49414062 418.94702148 C-5.49451828 417.66607101 -5.49489594 416.38512054 -5.49528503 415.06535339 C-5.52081448 413.677348 -5.5468944 412.28935263 -5.57348633 410.90136719 C-5.58281876 409.47363017 -5.58993285 408.04587708 -5.59492493 406.61811829 C-5.61396157 402.87107676 -5.66303125 399.12501351 -5.71844482 395.37835693 C-5.76971073 391.55087517 -5.79245448 387.72323439 -5.81762695 383.89550781 C-5.87115526 376.39311003 -5.95642506 368.89151661 -6.06176758 361.38964844 C-6.80547607 362.21384277 -7.54918457 363.03803711 -8.31542969 363.88720703 C-14.52510201 370.56121331 -19.44387863 375.11382884 -28.62426758 377.01464844 C-29.98007935 377.34843506 -29.98007935 377.34843506 -31.36328125 377.68896484 C-33.92166377 378.30525956 -36.48410935 378.86062782 -39.06176758 379.38964844 C-40.31473633 379.65261719 -41.56770508 379.91558594 -42.85864258 380.18652344 C-45.25701573 380.64631518 -47.64254457 381.06104203 -50.06176758 381.38964844 C-49.95864258 382.11152344 -49.85551758 382.83339844 -49.74926758 383.57714844 C-50.20258777 387.65703021 -51.90657948 388.85534533 -55.06176758 391.38964844 C-58.47416687 392.01885414 -58.47416687 392.01885414 -62.46289062 392.02456665 C-63.19867435 392.0323666 -63.93445807 392.04016656 -64.69253826 392.04820287 C-67.15336651 392.06811672 -69.61264714 392.05236215 -72.07348633 392.03662109 C-73.83949689 392.04339754 -75.60550038 392.05230082 -77.37149048 392.06317139 C-82.16494186 392.08596823 -86.95785526 392.07712682 -91.75131607 392.06127596 C-96.7671682 392.04861897 -101.78297419 392.06035651 -106.79882812 392.06820679 C-115.22217074 392.07730393 -123.64529418 392.06531371 -132.06860352 392.04150391 C-141.80778537 392.01429253 -151.54644389 392.02310665 -161.28561306 392.05063593 C-169.64670257 392.07332413 -178.00763451 392.07652849 -186.36874485 392.06344259 C-191.36280967 392.05564649 -196.35662847 392.05461087 -201.35067749 392.07112503 C-206.04584634 392.0855663 -210.74034033 392.07555445 -215.43543625 392.04665375 C-217.1587652 392.04004108 -218.88215092 392.04194373 -220.60545731 392.05296707 C-222.95795355 392.06662798 -225.30828628 392.04950371 -227.66064453 392.02456665 C-228.97692337 392.02268152 -230.29320221 392.02079639 -231.64936829 392.01885414 C-235.92827575 391.22987467 -237.40617986 389.76953539 -240.06176758 386.38964844 C-240.74926758 383.38964844 -240.74926758 383.38964844 -240.06176758 380.38964844 C-236.79856345 377.03218522 -235.18888597 375.5867525 -230.54358864 374.77440929 C-229.23648619 374.77901826 -227.92938374 374.78362722 -226.58267212 374.78837585 C-225.85067325 374.78410373 -225.11867438 374.77983161 -224.36449373 374.77543002 C-221.92262152 374.76722324 -219.48248419 374.79464394 -217.04077148 374.82202148 C-215.28621461 374.82343247 -213.53165477 374.82263899 -211.77709961 374.81980896 C-207.02114885 374.81837536 -202.2658296 374.84775611 -197.5100255 374.88267875 C-192.5372644 374.91395152 -187.56448855 374.91687372 -182.59164429 374.92280579 C-173.17814049 374.9383415 -163.76492729 374.97936637 -154.35155141 375.02955323 C-143.63339851 375.08545508 -132.91523168 375.11293533 -122.19696927 375.13803041 C-100.15173989 375.19028239 -78.10677205 375.2782195 -56.06176758 375.38964844 C-55.87655139 374.36487113 -55.87655139 374.36487113 -55.68759346 373.31939125 C-55.33191794 371.35654654 -54.97256662 369.39436571 -54.61029434 367.43272781 C-54.27840245 365.59148062 -53.96215657 363.74718758 -53.67550278 361.89835739 C-51.7500842 350.03733857 -47.84063731 343.09721461 -38.39819336 335.59130859 C-37.47867197 334.85809954 -36.55915058 334.12489048 -35.61176491 333.36946297 C-34.66825865 332.6172994 -33.72475239 331.86513584 -32.75265503 331.09017944 C-17.80613941 319.10759163 -4.84028343 306.92887199 -2.52563477 287.00195312 C-1.01596634 272.19543714 -1.73904273 257.18184692 -2.5912621 242.3556006 C-3.00956659 234.92397451 -3.17254954 227.49220018 -3.32141852 220.05108142 C-3.63158259 204.81569367 -4.23932189 189.60669055 -5.06176758 174.38964844 C-5.7483847 174.39137054 -6.43500183 174.39309265 -7.14242554 174.39486694 C-8.04312775 174.39620636 -8.94382996 174.39754578 -9.87182617 174.39892578 C-11.21112686 174.40150894 -11.21112686 174.40150894 -12.57748413 174.40414429 C-25.42687737 174.32916779 -38.64166652 172.63440205 -51.09375 169.46630859 C-74.65067104 163.64975766 -97.67135324 162.62736174 -121.80004883 162.60058594 C-123.02514546 162.59874156 -123.02514546 162.59874156 -124.27499151 162.59685993 C-136.10856555 162.58380267 -147.94122835 162.6574471 -159.77440643 162.74581146 C-171.8310502 162.8331664 -183.88756161 162.89431747 -195.94453591 162.89784968 C-200.7608109 162.9012611 -205.57560054 162.93494171 -210.39151251 162.99316001 C-213.36251196 163.02341132 -216.333197 163.02913379 -219.30433464 163.02834892 C-221.33207144 163.03543811 -223.35963294 163.07265068 -225.38702393 163.11076355 C-233.99433712 163.07442761 -233.99433712 163.07442761 -237.00975609 161.13997269 C-239.55361742 158.31006209 -240.05991101 156.49918623 -240.12426758 152.70214844 C-238.94066792 149.01210245 -238.2968776 148.31293551 -235.06176758 146.38964844 C-232.92975235 146.02050495 -232.92975235 146.02050495 -230.59454346 146.02888489 C-229.26106621 146.0226989 -229.26106621 146.0226989 -227.90065002 146.01638794 C-226.93320358 146.02717377 -225.96575714 146.03795959 -224.96899414 146.04907227 C-223.43193062 146.04841515 -223.43193062 146.04841515 -221.86381531 146.04774475 C-218.47648065 146.04983493 -215.08964079 146.07317733 -211.70239258 146.09667969 C-209.35398631 146.10227481 -207.00557655 146.1065453 -204.65716553 146.10954285 C-198.47571142 146.12099812 -192.29446872 146.15047143 -186.11309814 146.18365479 C-179.80565247 146.21434081 -173.49817263 146.22804506 -167.19067383 146.24316406 C-154.81426391 146.2753403 -142.4380664 146.32811406 -130.06176758 146.38964844 C-130.06176758 139.12964844 -130.06176758 131.86964844 -130.06176758 124.38964844 C-131.64111084 124.4105957 -133.2204541 124.43154297 -134.84765625 124.453125 C-140.70872934 124.52554006 -146.5697629 124.57145439 -152.43115234 124.609375 C-154.96767833 124.62948685 -157.50415797 124.65678005 -160.04052734 124.69140625 C-163.68704669 124.73994086 -167.33295286 124.76262206 -170.97973633 124.78027344 C-172.67999214 124.81124115 -172.67999214 124.81124115 -174.41459656 124.84283447 C-182.25925192 124.84506885 -182.25925192 124.84506885 -186.25048828 122.58007812 C-188.80645831 119.48907353 -189.13165543 117.37325575 -189.06176758 113.38964844 C-187.83422852 110.69750977 -187.83422852 110.69750977 -185.06176758 108.38964844 C-180.9237579 107.67071055 -176.82834728 107.80995321 -172.63989258 107.90136719 C-171.4247699 107.90844193 -170.20964722 107.91551666 -168.95770264 107.92280579 C-165.07509916 107.95080338 -161.1939355 108.01355748 -157.31176758 108.07714844 C-154.68027798 108.10222411 -152.04876579 108.12503854 -149.41723633 108.14550781 C-142.96441194 108.19639759 -136.51470197 108.29425355 -130.06176758 108.38964844 C-130.06176758 92.21964844 -130.06176758 76.04964844 -130.06176758 59.38964844 C-133.69176758 58.72964844 -137.32176758 58.06964844 -141.06176758 57.38964844 C-144.13586189 56.63190931 -147.18083063 55.8512098 -150.22973633 55.00683594 C-151.03542557 54.78770538 -151.84111481 54.56857483 -152.67121887 54.34280396 C-155.19843839 53.65440457 -157.7238599 52.95966152 -160.24926758 52.26464844 C-161.98157355 51.79156759 -163.71399462 51.31890797 -165.4465332 50.84667969 C-169.65295367 49.69918687 -173.85777659 48.54600877 -178.06176758 47.38964844 C-178.39176758 45.73964844 -178.72176758 44.08964844 -179.06176758 42.38964844 C-159.36673831 36.57160179 -139.48713237 31.43365371 -119.62868118 26.20967484 C-110.87909735 23.90780312 -102.13037491 21.60266366 -93.38208008 19.29589844 C-92.42123316 19.04262346 -91.46038624 18.78934849 -90.47042274 18.52839851 C-78.71235343 15.42784308 -66.96277985 12.29891007 -55.22991753 9.1042347 C-53.21578415 8.55592446 -51.20133554 8.00878824 -49.18678284 7.46202087 C-43.20840408 5.83852183 -37.23281308 4.20599592 -31.26171875 2.5559082 C-29.18607452 1.99092991 -27.11031725 1.42636667 -25.03442383 0.86230469 C-23.67334 0.47969482 -23.67334 0.47969482 -22.28475952 0.08935547 C-21.02014389 -0.25107788 -21.02014389 -0.25107788 -19.72998047 -0.59838867 C-18.65799156 -0.89403969 -18.65799156 -0.89403969 -17.56434631 -1.19566345 C-11.37338342 -2.22153276 -6.02179649 -1.59975421 0 0 Z " fill="#685E68" transform="translate(317.061767578125,17.6103515625)"/>
<path d="M0 0 C0.33 27.72 0.66 55.44 1 84 C11.64345712 73.23794723 11.64345712 73.23794723 22.27026367 62.45947266 C23.61056559 61.11040646 24.9514296 59.76189838 26.29296875 58.4140625 C26.97991821 57.71176514 27.66686768 57.00946777 28.37463379 56.28588867 C33.18210791 51.47581075 36.86589205 48.73696658 43.875 48.625 C50.89338538 48.80175934 54.76451958 51.68094641 59.75 56.375 C64.82124438 61.76533391 66.32808565 66.12090717 66.3984375 73.4375 C65.67774705 78.07252879 64.09485772 81.1946048 60.29220581 83.99189758 C59.20046051 84.59438828 58.10871521 85.19687897 56.98388672 85.81762695 C34.24795151 99.02308494 9.12946324 117.87843877 1 144 C-5.76372332 170.83706229 -3.86870324 200.6397539 -3.1875 228.0625 C-3.16440167 228.99339085 -3.14130335 229.9242817 -3.11750507 230.88338137 C-2.68423004 247.75582272 -2.09921816 264.62313666 -1.09034729 281.47161865 C-0.99960535 283.03942923 -0.90887068 284.60724023 -0.81814384 286.17505169 C-0.64973936 289.0683534 -0.45859828 291.95884135 -0.25247383 294.84967518 C-0.17525534 296.12152007 -0.09803684 297.39336496 -0.01847839 298.70375061 C0.09539829 300.35695108 0.09539829 300.35695108 0.21157551 302.04354954 C-0.05543627 305.7746388 -1.34547956 308.34547956 -4 311 C-5.45667529 311.09937062 -6.91815097 311.12922789 -8.37821007 311.13142776 C-9.32931801 311.13526891 -10.28042596 311.13911005 -11.26035535 311.1430676 C-12.31762504 311.14220112 -13.37489472 311.14133463 -14.46420288 311.14044189 C-16.13452416 311.14489858 -16.13452416 311.14489858 -17.83858931 311.1494453 C-21.60122192 311.15817503 -25.36382288 311.15964413 -29.12646484 311.16113281 C-31.81136732 311.16575794 -34.49626684 311.17076118 -37.1811676 311.17617798 C-44.49719053 311.18978109 -51.81320799 311.19578909 -59.12924147 311.20018864 C-63.69407868 311.20294773 -68.25891377 311.20718446 -72.82374954 311.21169281 C-85.45284327 311.22388807 -98.08193529 311.23418687 -110.71103477 311.2375679 C-111.92433687 311.23789725 -111.92433687 311.23789725 -113.16215012 311.23823325 C-114.37841961 311.23856067 -114.37841961 311.23856067 -115.61926019 311.2388947 C-117.2624495 311.23933817 -118.90563881 311.23978474 -120.54882812 311.24023438 C-121.77145622 311.24056652 -121.77145622 311.24056652 -123.01878388 311.24090537 C-136.23106589 311.24485479 -149.44329279 311.26231202 -162.6555535 311.2855939 C-176.20784058 311.30928294 -189.76009997 311.32176863 -203.31240809 311.32293582 C-210.92659861 311.32385396 -218.54071735 311.32964116 -226.15488815 311.34775543 C-232.6377392 311.36312347 -239.12049628 311.36829649 -245.60336207 311.36001733 C-248.91310782 311.35609902 -252.22262369 311.35871528 -255.53235435 311.37107468 C-259.11567858 311.38367533 -262.69850998 311.37798219 -266.28182983 311.36749268 C-267.33463807 311.37554908 -268.38744632 311.38360548 -269.47215784 311.39190602 C-270.42848127 311.38531618 -271.38480471 311.37872633 -272.37010765 311.3719368 C-273.19773562 311.37253389 -274.02536359 311.37313097 -274.87807119 311.37374616 C-277.53045613 310.90656805 -278.3798678 310.11785736 -280 308 C-280.91035504 305.26893489 -281.12215713 303.70106761 -281.11352539 300.89575195 C-281.11344986 300.07512772 -281.11337433 299.25450348 -281.11329651 298.40901184 C-281.10813522 297.52767075 -281.10297394 296.64632965 -281.09765625 295.73828125 C-281.0962413 294.83248825 -281.09482635 293.92669525 -281.09336853 292.99345398 C-281.08777001 290.09976909 -281.07521781 287.20616151 -281.0625 284.3125 C-281.05748481 282.35091258 -281.05292193 280.38932394 -281.04882812 278.42773438 C-281.03780107 273.61845979 -281.02053747 268.809243 -281 264 C-279.83471173 263.99945523 -278.66942347 263.99891047 -277.46882343 263.99834919 C-249.81245926 263.98430761 -222.15622933 263.94456725 -194.49995129 263.87314438 C-191.0965663 263.86437754 -187.6931808 263.85582775 -184.28979492 263.84741211 C-183.27345792 263.84489352 -183.27345792 263.84489352 -182.23658886 263.84232404 C-171.26303031 263.81564807 -160.289524 263.80655854 -149.31593636 263.80395857 C-138.05752951 263.80090003 -126.79927229 263.77859226 -115.5409233 263.73947543 C-109.21658412 263.71811327 -102.89250039 263.70556147 -96.56812477 263.71384621 C-90.61810068 263.72136577 -84.66859508 263.70564828 -78.71866608 263.67193985 C-76.53254156 263.66368137 -74.34636573 263.66398611 -72.1602459 263.67340279 C-69.17923836 263.68497435 -66.19994435 263.66598279 -63.21907043 263.63923645 C-62.35038938 263.64990971 -61.48170832 263.66058297 -60.5867036 263.67157966 C-56.2378721 263.59858929 -54.51188991 263.39597222 -50.96138763 260.64948273 C-48.53112354 257.36663204 -48.3923652 255.61416889 -48.43237305 251.55737305 C-48.4327507 250.27642258 -48.43312836 248.99547211 -48.43351746 247.67570496 C-48.45904691 246.28769956 -48.48512682 244.8997042 -48.51171875 243.51171875 C-48.52105119 242.08398173 -48.52816527 240.65622864 -48.53315735 239.22846985 C-48.55219399 235.48142832 -48.60126367 231.73536507 -48.65667725 227.9887085 C-48.70794315 224.16122673 -48.7306869 220.33358595 -48.75585938 216.50585938 C-48.80938768 209.00346159 -48.89465748 201.50186818 -49 194 C-49.7437085 194.82419434 -50.48741699 195.64838867 -51.25366211 196.49755859 C-57.46333443 203.17156487 -62.38211105 207.7241804 -71.5625 209.625 C-72.46637451 209.84752441 -73.37024902 210.07004883 -74.30151367 210.29931641 C-76.85989619 210.91561112 -79.42234177 211.47097938 -82 212 C-83.25296875 212.26296875 -84.5059375 212.5259375 -85.796875 212.796875 C-88.19524815 213.25666674 -90.580777 213.6713936 -93 214 C-92.8453125 215.0828125 -92.8453125 215.0828125 -92.6875 216.1875 C-93.1408202 220.26738177 -94.8448119 221.46569689 -98 224 C-101.41239929 224.6292057 -101.41239929 224.6292057 -105.40112305 224.63491821 C-106.13690677 224.64271817 -106.87269049 224.65051812 -107.63077068 224.65855443 C-110.09159893 224.67846828 -112.55087956 224.66271371 -115.01171875 224.64697266 C-116.77772931 224.6537491 -118.5437328 224.66265238 -120.3097229 224.67352295 C-125.10317429 224.69631979 -129.89608768 224.68747839 -134.68954849 224.67162752 C-139.70540062 224.65897054 -144.72120662 224.67070808 -149.73706055 224.67855835 C-158.16040316 224.68765549 -166.5835266 224.67566527 -175.00683594 224.65185547 C-184.74601779 224.62464409 -194.48467631 224.63345821 -204.22384548 224.6609875 C-212.58493499 224.68367569 -220.94586693 224.68688006 -229.30697727 224.67379415 C-234.30104209 224.66599806 -239.29486089 224.66496243 -244.28890991 224.68147659 C-248.98407876 224.69591786 -253.67857275 224.68590601 -258.37366867 224.65700531 C-260.09699762 224.65039264 -261.82038335 224.6522953 -263.54368973 224.66331863 C-265.89618598 224.67697955 -268.2465187 224.65985528 -270.59887695 224.63491821 C-271.91515579 224.63303308 -273.23143463 224.63114796 -274.58760071 224.6292057 C-278.86650817 223.84022623 -280.34441228 222.37988695 -283 219 C-283.6875 216 -283.6875 216 -283 213 C-279.73679587 209.64253679 -278.12711839 208.19710406 -273.48182106 207.38476086 C-271.52116738 207.3916743 -271.52116738 207.3916743 -269.52090454 207.39872742 C-268.78890567 207.39445529 -268.0569068 207.39018317 -267.30272615 207.38578159 C-264.86085394 207.3775748 -262.42071661 207.4049955 -259.97900391 207.43237305 C-258.22444703 207.43378403 -256.4698872 207.43299056 -254.71533203 207.43016052 C-249.95938127 207.42872692 -245.20406202 207.45810767 -240.44825792 207.49303031 C-235.47549682 207.52430308 -230.50272097 207.52722528 -225.52987671 207.53315735 C-216.11637291 207.54869307 -206.70315971 207.58971794 -197.28978384 207.6399048 C-186.57163094 207.69580664 -175.8534641 207.7232869 -165.13520169 207.74838197 C-143.08997231 207.80063396 -121.04500447 207.88857106 -99 208 C-98.87652254 207.31681513 -98.75304508 206.63363026 -98.62582588 205.92974281 C-98.27015037 203.9668981 -97.91079904 202.00471727 -97.54852676 200.04307938 C-97.21663487 198.20183218 -96.90038899 196.35753914 -96.6137352 194.50870895 C-94.68831662 182.64769013 -90.77886974 175.70756617 -81.33642578 168.20166016 C-80.41690439 167.4684511 -79.497383 166.73524204 -78.54999733 165.97981453 C-77.60649107 165.22765097 -76.66298481 164.4754874 -75.69088745 163.70053101 C-60.74437184 151.71794319 -47.77851585 139.53922355 -45.46386719 119.61230469 C-43.95419876 104.8057887 -44.67727515 89.79219848 -45.52949452 74.96595216 C-45.94779901 67.53432607 -46.11078196 60.10255174 -46.25965095 52.66143298 C-46.56982439 37.42558485 -47.18649508 22.21793011 -48 7 C-51.3 7 -54.6 7 -58 7 C-58 6.67 -58 6.34 -58 6 C-56.84371094 5.98582031 -55.68742188 5.97164062 -54.49609375 5.95703125 C-41.61880987 5.64006409 -29.15118887 3.94091921 -16.48803711 1.7277832 C-14.57776733 1.39653442 -14.57776733 1.39653442 -12.62890625 1.05859375 C-11.49525635 0.85548584 -10.36160645 0.65237793 -9.19360352 0.44311523 C-6 0 -6 0 0 0 Z " fill="#B0B0B5" transform="translate(360,185)"/>
<path d="M0 0 C0.33 27.72 0.66 55.44 1 84 C11.64345712 73.23794723 11.64345712 73.23794723 22.27026367 62.45947266 C23.61056559 61.11040646 24.9514296 59.76189838 26.29296875 58.4140625 C26.97991821 57.71176514 27.66686768 57.00946777 28.37463379 56.28588867 C33.18210791 51.47581075 36.86589205 48.73696658 43.875 48.625 C50.89338538 48.80175934 54.76451958 51.68094641 59.75 56.375 C64.82124438 61.76533391 66.32808565 66.12090717 66.3984375 73.4375 C65.48518127 79.31099105 62.12872236 83.25631559 58.07302856 87.38867188 C57.57892168 87.89592552 57.08481479 88.40317917 56.57573497 88.92580414 C54.92752885 90.61388883 53.26888047 92.2912941 51.60986328 93.96875 C50.42130229 95.18103787 49.23328726 96.39386121 48.04577637 97.60717773 C44.14866258 101.58272323 40.23538461 105.54215031 36.3203125 109.5 C34.96769105 110.86871388 33.61508978 112.2374477 32.26250839 113.60620117 C26.62794596 119.30563509 20.98904918 125.00072233 15.33888435 130.68469238 C7.27369121 138.79847502 -0.76509566 146.93648809 -8.76848018 155.11125946 C-14.41442666 160.87388885 -20.08938517 166.6069293 -25.78606617 172.3194046 C-29.17883774 175.72306414 -32.55826141 179.13774741 -35.90707016 182.5847168 C-62.37276109 209.78840614 -62.37276109 209.78840614 -82 212 C-84.27340352 212.44540981 -86.54504139 212.9002528 -88.8125 213.375 C-90.20647229 213.59544213 -91.60154692 213.81004619 -93 214 C-92.8453125 215.0828125 -92.8453125 215.0828125 -92.6875 216.1875 C-93.1408202 220.26738177 -94.8448119 221.46569689 -98 224 C-101.41239929 224.6292057 -101.41239929 224.6292057 -105.40112305 224.63491821 C-106.13690677 224.64271817 -106.87269049 224.65051812 -107.63077068 224.65855443 C-110.09159893 224.67846828 -112.55087956 224.66271371 -115.01171875 224.64697266 C-116.77772931 224.6537491 -118.5437328 224.66265238 -120.3097229 224.67352295 C-125.10317429 224.69631979 -129.89608768 224.68747839 -134.68954849 224.67162752 C-139.70540062 224.65897054 -144.72120662 224.67070808 -149.73706055 224.67855835 C-158.16040316 224.68765549 -166.5835266 224.67566527 -175.00683594 224.65185547 C-184.74601779 224.62464409 -194.48467631 224.63345821 -204.22384548 224.6609875 C-212.58493499 224.68367569 -220.94586693 224.68688006 -229.30697727 224.67379415 C-234.30104209 224.66599806 -239.29486089 224.66496243 -244.28890991 224.68147659 C-248.98407876 224.69591786 -253.67857275 224.68590601 -258.37366867 224.65700531 C-260.09699762 224.65039264 -261.82038335 224.6522953 -263.54368973 224.66331863 C-265.89618598 224.67697955 -268.2465187 224.65985528 -270.59887695 224.63491821 C-271.91515579 224.63303308 -273.23143463 224.63114796 -274.58760071 224.6292057 C-278.86650817 223.84022623 -280.34441228 222.37988695 -283 219 C-283.6875 216 -283.6875 216 -283 213 C-279.73679587 209.64253679 -278.12711839 208.19710406 -273.48182106 207.38476086 C-271.52116738 207.3916743 -271.52116738 207.3916743 -269.52090454 207.39872742 C-268.78890567 207.39445529 -268.0569068 207.39018317 -267.30272615 207.38578159 C-264.86085394 207.3775748 -262.42071661 207.4049955 -259.97900391 207.43237305 C-258.22444703 207.43378403 -256.4698872 207.43299056 -254.71533203 207.43016052 C-249.95938127 207.42872692 -245.20406202 207.45810767 -240.44825792 207.49303031 C-235.47549682 207.52430308 -230.50272097 207.52722528 -225.52987671 207.53315735 C-216.11637291 207.54869307 -206.70315971 207.58971794 -197.28978384 207.6399048 C-186.57163094 207.69580664 -175.8534641 207.7232869 -165.13520169 207.74838197 C-143.08997231 207.80063396 -121.04500447 207.88857106 -99 208 C-98.87652254 207.31681513 -98.75304508 206.63363026 -98.62582588 205.92974281 C-98.27015037 203.9668981 -97.91079904 202.00471727 -97.54852676 200.04307938 C-97.21663487 198.20183218 -96.90038899 196.35753914 -96.6137352 194.50870895 C-94.68831662 182.64769013 -90.77886974 175.70756617 -81.33642578 168.20166016 C-80.41690439 167.4684511 -79.497383 166.73524204 -78.54999733 165.97981453 C-77.60649107 165.22765097 -76.66298481 164.4754874 -75.69088745 163.70053101 C-60.74437184 151.71794319 -47.77851585 139.53922355 -45.46386719 119.61230469 C-43.95419876 104.8057887 -44.67727515 89.79219848 -45.52949452 74.96595216 C-45.94779901 67.53432607 -46.11078196 60.10255174 -46.25965095 52.66143298 C-46.56982439 37.42558485 -47.18649508 22.21793011 -48 7 C-51.3 7 -54.6 7 -58 7 C-58 6.67 -58 6.34 -58 6 C-56.84371094 5.98582031 -55.68742188 5.97164062 -54.49609375 5.95703125 C-41.61880987 5.64006409 -29.15118887 3.94091921 -16.48803711 1.7277832 C-14.57776733 1.39653442 -14.57776733 1.39653442 -12.62890625 1.05859375 C-11.49525635 0.85548584 -10.36160645 0.65237793 -9.19360352 0.44311523 C-6 0 -6 0 0 0 Z " fill="#C48A59" transform="translate(360,185)"/>
<path d="M0 0 C0.09286954 8.87551703 0.1638505 17.75086561 0.20724869 26.62676334 C0.22808259 30.74866518 0.25632261 34.87023346 0.30175781 38.99194336 C0.34536665 42.97309565 0.36916865 46.95392803 0.37950897 50.93530083 C0.38687351 52.45070872 0.4012548 53.96610002 0.42292023 55.48137093 C0.62994462 70.56684505 0.62994462 70.56684505 -4 76 C-6.05834961 77.27172852 -6.05834961 77.27172852 -8.21484375 77.81640625 C-9.00487793 78.02797363 -9.79491211 78.23954102 -10.60888672 78.45751953 C-11.3979541 78.63653809 -12.18702148 78.81555664 -13 79 C-13.70012207 79.17515137 -14.40024414 79.35030273 -15.12158203 79.53076172 C-17.26132901 80.04411927 -19.40627642 80.49867058 -21.5625 80.9375 C-22.36187988 81.1037085 -23.16125977 81.26991699 -23.98486328 81.44116211 C-31.71608733 83.01205121 -39.49334557 84.30011236 -47.28735352 85.51733398 C-52.33668775 86.32090155 -57.29897091 87.27125724 -62.2734375 88.45703125 C-69.54760972 90.17963393 -76.87440485 91.42294123 -84.25 92.625 C-85.54679688 92.8415625 -86.84359375 93.058125 -88.1796875 93.28125 C-125.13993915 99.37856239 -160.08398681 92.45528244 -196.2902832 84.79418945 C-203.19926228 83.34196202 -210.12031678 82.03336627 -217.08886719 80.90014648 C-221.89890063 80.10109937 -221.89890063 80.10109937 -223 79 C-223.09492722 76.65746218 -223.12559791 74.34453896 -223.11352539 72.00170898 C-223.11367142 71.27004517 -223.11381744 70.53838135 -223.1139679 69.7845459 C-223.11326867 67.35503216 -223.10547585 64.92559417 -223.09765625 62.49609375 C-223.0957921 60.81600486 -223.09436819 59.13591543 -223.09336853 57.45582581 C-223.08954307 53.02526357 -223.07971256 48.5947339 -223.06866455 44.16418457 C-223.05845103 39.64657024 -223.05387104 35.12895066 -223.04882812 30.61132812 C-223.03809031 21.74087107 -223.02101356 12.87043824 -223 4 C-216.8913107 5.3063665 -210.85467975 6.78996233 -204.82763672 8.43017578 C-203.95974518 8.66455353 -203.09185364 8.89893127 -202.19766235 9.14041138 C-200.32981808 9.64489251 -198.46218756 10.15016564 -196.59475327 10.65616226 C-192.61707816 11.73297614 -188.6375543 12.80287845 -184.658144 13.87325859 C-177.26582532 15.86177715 -169.87434122 17.85329694 -162.48583984 19.85595703 C-157.32926625 21.25336755 -152.17045579 22.64222845 -147.01007462 24.02550888 C-145.05007288 24.55261968 -143.09091902 25.082894 -141.1326561 25.61642838 C-138.39506693 26.36191576 -135.65475448 27.09645873 -132.91357422 27.82861328 C-131.71018402 28.16052673 -131.71018402 28.16052673 -130.48248291 28.49914551 C-123.6808416 30.29498089 -117.7960802 30.42635304 -110.9296875 28.6796875 C-109.79724609 28.39480469 -108.66480469 28.10992187 -107.49804688 27.81640625 C-106.30244141 27.50574219 -105.10683594 27.19507812 -103.875 26.875 C-102.62525391 26.55660156 -101.37550781 26.23820312 -100.08789062 25.91015625 C-92.0238732 23.83737758 -84.0124376 21.61807599 -76.02392578 19.27319336 C-67.44651164 16.78044937 -58.77896442 14.67376603 -50.10620117 12.54174805 C-42.95878897 10.77346322 -35.88832907 8.86521788 -28.84838867 6.71166992 C-23.07510085 4.96527048 -17.23743468 3.57301321 -11.3527832 2.25512695 C-1.33146519 0 -1.33146519 0 0 0 Z " fill="#827582" transform="translate(426,77)"/>
<path d="M0 0 C0.69887833 0.18259463 1.39775665 0.36518927 2.11781311 0.55331707 C4.42324636 1.15819244 6.72469407 1.77698068 9.02636719 2.39599609 C10.66837978 2.82994885 12.31061748 3.26305064 13.95306396 3.69535828 C18.34065008 4.85287982 22.72490538 6.02256832 27.10858154 7.19479752 C31.63533291 8.40314279 36.16502315 9.60037163 40.69433594 10.79907227 C51.32481318 13.61526899 61.9496866 16.45225492 72.57324219 19.29443359 C74.0949666 19.70132964 75.61669496 20.10821092 77.13842773 20.51507568 C92.95795228 24.74559717 108.77057805 29.00133246 124.57324219 33.29443359 C120.80788428 35.25739681 116.95258235 36.49063934 112.88574219 37.66943359 C112.13679688 37.88857422 111.38785156 38.10771484 110.61621094 38.33349609 C104.76122081 40.01754008 98.86722368 41.43420548 92.92724609 42.78100586 C88.14303787 43.88158048 83.45514663 45.17380817 78.76074219 46.60693359 C71.0967498 48.94136806 63.35214406 50.88173224 55.57324219 52.79443359 C47.47284298 54.78751128 39.44474993 56.85062679 31.47070312 59.30126953 C23.66032198 61.64936352 15.73499926 63.57285038 7.82324219 65.54443359 C7.10680542 65.72328094 6.39036865 65.9021283 5.65222168 66.08639526 C1.29645443 67.17196206 -3.05925665 68.25693785 -7.42675781 69.29443359 C-8.31709717 69.51083496 -9.20743652 69.72723633 -10.12475586 69.95019531 C-13.78508085 70.4975554 -17.02142942 69.2368066 -20.48925781 68.16943359 C-22.10310976 67.69558131 -23.71772404 67.2243193 -25.33300781 66.75537109 C-26.58791016 66.38943848 -26.58791016 66.38943848 -27.86816406 66.01611328 C-32.04930038 64.8367775 -36.26831568 63.82013275 -40.48925781 62.79443359 C-46.43676303 61.33595274 -52.32125061 59.7733614 -58.17675781 57.98193359 C-66.51372758 55.43988515 -74.96700122 53.37898014 -83.42675781 51.29443359 C-100.63554938 47.0538914 -100.63554938 47.0538914 -108.17675781 44.73193359 C-117.07136101 41.99942227 -126.11206157 39.8551574 -135.16210938 37.7043457 C-136.3309668 37.42083252 -137.49982422 37.13731934 -138.70410156 36.84521484 C-139.75847412 36.59425049 -140.81284668 36.34328613 -141.89916992 36.0847168 C-144.42675781 35.29443359 -144.42675781 35.29443359 -146.42675781 33.29443359 C-145.61150635 33.07718124 -144.79625488 32.85992889 -143.95629883 32.63609314 C-142.79283936 32.32603836 -141.62937988 32.01598358 -140.43066406 31.6965332 C-139.46669724 31.43964281 -139.46669724 31.43964281 -138.48325634 31.17756271 C-134.78861687 30.1929319 -131.09402174 29.20813507 -127.39949036 28.22309875 C-125.79765907 27.79602774 -124.19582698 27.36895973 -122.59399414 26.94189453 C-121.77090917 26.72245021 -120.94782419 26.50300589 -120.09979725 26.27691174 C-114.98175173 24.91254707 -109.86337033 23.54945046 -104.7447443 22.1872654 C-88.57625011 17.88408446 -72.40932009 13.57688067 -56.26764297 9.17399788 C-51.78950341 7.95343658 -47.30968857 6.73902929 -42.83032227 5.52297974 C-40.44814261 4.87384833 -38.06694212 4.22111221 -35.68676758 3.56466675 C-32.40061254 2.65845938 -29.11139116 1.76430973 -25.82128906 0.87255859 C-24.87566605 0.60792313 -23.93004303 0.34328766 -22.95576477 0.07063293 C-22.07454453 -0.16585464 -21.19332428 -0.40234222 -20.28540039 -0.64599609 C-19.1591198 -0.95522003 -19.1591198 -0.95522003 -18.01008606 -1.27069092 C-11.6329687 -2.34420994 -6.2068099 -1.6472501 0 0 Z " fill="#827582" transform="translate(317.4267578125,17.70556640625)"/>
<path d="M0 0 C0.16245653 11.07462002 0.2867041 22.14895488 0.3626852 33.22452545 C0.39915974 38.36788634 0.44860388 43.51042983 0.52807617 48.65332031 C0.60434304 53.62007129 0.64603374 58.58603796 0.6641407 63.55332947 C0.67703784 65.44478192 0.70222408 67.33619322 0.7401104 69.22731018 C1.0609176 85.90970044 1.0609176 85.90970044 -2.95532227 90.62890625 C-4.27589539 91.78497577 -5.62628268 92.90761233 -7 94 C-8.49753378 95.51298943 -9.98027627 97.04071243 -11.45068359 98.58007812 C-13.09724564 100.23315178 -14.7466171 101.8834307 -16.3984375 103.53125 C-17.71178574 104.84603333 -17.71178574 104.84603333 -19.05166626 106.18737793 C-20.8875455 108.02393355 -22.72467164 109.8592435 -24.56298828 111.69335938 C-26.4502334 113.57699975 -28.33606586 115.46191165 -30.21923828 117.34960938 C-32.94298235 120.07949332 -35.67012213 122.80593553 -38.3984375 125.53125 C-39.24626801 126.38110474 -40.09409851 127.23095947 -40.96762085 128.10656738 C-41.74578156 128.88157593 -42.52394226 129.65658447 -43.32568359 130.45507812 C-44.01294525 131.14154419 -44.70020691 131.82801025 -45.40829468 132.53527832 C-47 134 -47 134 -48 134 C-48 92.09 -48 50.18 -48 7 C-51.3 7 -54.6 7 -58 7 C-58 6.67 -58 6.34 -58 6 C-56.84371094 5.98582031 -55.68742187 5.97164062 -54.49609375 5.95703125 C-41.61880987 5.64006409 -29.15118887 3.94091921 -16.48803711 1.7277832 C-15.21452393 1.50695068 -13.94101074 1.28611816 -12.62890625 1.05859375 C-11.49525635 0.85548584 -10.36160645 0.65237793 -9.19360352 0.44311523 C-6.07854234 0.01089782 -3.13934355 -0.0310467 0 0 Z " fill="#B1B0B4" transform="translate(360,185)"/>
<path d="M0 0 C5.06623768 4.23816537 9.80038069 8.67408963 14.4375 13.375 C15.07365234 14.01566406 15.70980469 14.65632813 16.36523438 15.31640625 C17.91250332 16.87530879 19.45736492 18.43651416 21 20 C19.47800665 23.58592537 17.36744251 25.8793792 14.62142944 28.61907959 C13.70153732 29.54172104 12.7816452 30.46436249 11.83387756 31.41496277 C10.81170737 32.43005519 9.78944158 33.44505136 8.76708984 34.45996094 C7.69248727 35.53399927 6.6183251 36.60847838 5.54457092 37.68336487 C2.6298224 40.5986874 -0.29105311 43.50780072 -3.21305895 46.41584682 C-6.26624767 49.45653627 -9.31377666 52.50288731 -12.36190796 55.54864502 C-18.13418678 61.31470672 -23.91154509 67.07565104 -29.69074094 72.83477902 C-36.27017801 79.39186433 -42.84393953 85.95462699 -49.41722798 92.51787519 C-62.93850849 106.01824844 -76.46690799 119.51146743 -90 133 C-93.3247945 131.42411996 -95.51631617 129.7182851 -98.109375 127.0859375 C-99.24052734 125.94511719 -99.24052734 125.94511719 -100.39453125 124.78125 C-101.17183594 123.9871875 -101.94914062 123.193125 -102.75 122.375 C-103.54277344 121.57320313 -104.33554687 120.77140625 -105.15234375 119.9453125 C-107.10614493 117.96797154 -109.05512103 115.98611091 -111 114 C-109.60547859 110.8524206 -107.97641762 108.73036213 -105.54170227 106.30792236 C-104.82545181 105.59036774 -104.10920135 104.87281311 -103.37124634 104.1335144 C-102.58527069 103.35630035 -101.79929504 102.5790863 -100.98950195 101.77832031 C-100.16164688 100.95177948 -99.33379181 100.12523865 -98.48085022 99.27365112 C-95.73788872 96.53718983 -92.98802449 93.80777008 -90.23828125 91.078125 C-88.32865076 89.17598491 -86.42068109 87.2721827 -84.51274109 85.36834717 C-79.99522485 80.86221054 -75.47306495 76.36076744 -70.94885176 71.86135554 C-62.86519503 63.82195468 -54.78696836 55.77710774 -46.71411294 47.72686076 C-43.43070042 44.45314296 -40.14278492 41.18399005 -36.85383606 37.91583252 C-35.12159618 36.19042617 -33.38946854 34.46490713 -31.6574707 32.73925781 C-30.88161621 31.97014069 -30.10576172 31.20102356 -29.30639648 30.40859985 C-25.18525317 26.29600892 -21.23780366 22.09552708 -17.44792366 17.6748848 C-15.65474752 15.60062941 -13.76288888 13.649146 -11.81640625 11.71875 C-11.11708984 11.02265625 -10.41777344 10.3265625 -9.69726562 9.609375 C-8.99279297 8.91328125 -8.28832031 8.2171875 -7.5625 7.5 C-6.83095703 6.77296875 -6.09941406 6.0459375 -5.34570312 5.296875 C-3.56610176 3.52890501 -1.78419082 1.76333622 0 0 Z " fill="#E2A66F" transform="translate(381,249)"/>
<path d="M0 0 C-0.01784798 1.66797386 -0.01784798 1.66797386 -0.03605652 3.36964417 C-0.14111762 13.8602707 -0.18818066 24.34977676 -0.17878246 34.84094334 C-0.17580622 40.23455841 -0.19310443 45.62650595 -0.25708008 51.01977539 C-0.31809805 56.22706587 -0.32540985 61.43194233 -0.29583168 66.63947868 C-0.29393131 68.62381392 -0.31123093 70.6082653 -0.34822655 72.59225655 C-0.67471851 81.41724684 -0.67471851 81.41724684 1 90 C3.69321514 92.49360682 6.20928623 93.74164034 9.52339172 95.27870178 C12 97 12 97 12.97819519 99.9528656 C13.2686642 103.74573592 13.24065772 107.45329904 13.07421875 111.24609375 C13.05367412 112.62608104 13.03802932 114.00614916 13.02705383 115.38624573 C12.98526215 119.0002925 12.87743728 122.6093914 12.75531006 126.22149658 C12.64230168 129.91456142 12.59244455 133.60843499 12.53710938 137.30273438 C12.41951287 144.53740036 12.23207411 151.7680043 12 159 C4.50390625 154.796875 4.50390625 154.796875 1.47265625 152.421875 C0.90869141 151.98359375 0.34472656 151.5453125 -0.23632812 151.09375 C-0.79771484 150.6503125 -1.35910156 150.206875 -1.9375 149.75 C-2.52595703 149.29109375 -3.11441406 148.8321875 -3.72070312 148.359375 C-5.15028342 147.24360502 -6.57560423 146.12238102 -8 145 C-13.96655284 148.80475834 -19.50260621 152.92236576 -24.93359375 157.4609375 C-27 159 -27 159 -29 159 C-29.23211464 151.02020389 -29.40957522 143.04182579 -29.51812172 135.05948448 C-29.57023223 131.35240528 -29.64084057 127.64764099 -29.75439453 123.94189453 C-29.86338366 120.36254978 -29.9229024 116.78542417 -29.94877243 113.20454788 C-29.96719492 111.84151882 -30.00317829 110.47860626 -30.05730057 109.11652756 C-30.21817132 104.89861565 -30.22150743 101.05730293 -29 97 C-25.75986308 93.7806851 -21.715583 91 -17 91 C-17 62.29 -17 33.58 -17 4 C-4 0 -4 0 0 0 Z " fill="#FEE076" transform="translate(468,66)"/>
<path d="M0 0 C1.10851927 -0.01169993 1.10851927 -0.01169993 2.23943287 -0.02363622 C4.71718081 -0.04358932 7.19339837 -0.02778003 9.67115784 -0.01205444 C11.44687294 -0.0188292 13.22258102 -0.02773153 14.99827576 -0.03860474 C19.82277571 -0.06142331 24.64674181 -0.05255078 29.47125125 -0.03670931 C34.51780573 -0.02406158 39.56431411 -0.03578747 44.61087036 -0.04364014 C53.08726722 -0.05274082 61.56344637 -0.04073866 70.03981018 -0.01693726 C79.84088616 0.01026603 89.64144197 0.0014673 99.4425053 -0.02606928 C107.85452937 -0.04875786 116.26639681 -0.05196139 124.67844158 -0.03887594 C129.70381989 -0.03107893 134.72895371 -0.03004655 139.75431633 -0.04655838 C144.47983903 -0.06099989 149.2046912 -0.0509873 153.93014145 -0.0220871 C155.66475753 -0.01547419 157.39943001 -0.01737749 159.13402367 -0.02840042 C161.50189526 -0.04206055 163.8676171 -0.02493775 166.23535156 0 C166.92232052 -0.01115361 167.60928947 -0.02230722 168.31707567 -0.03379881 C172.07626553 0.04302938 173.64162299 0.60393789 176.63871861 2.95194435 C178.6811676 5.63491821 178.6811676 5.63491821 178.8061676 9.19741821 C177.45219631 13.33455273 176.32994443 14.3390074 172.6811676 16.63491821 C169.30000305 17.13828278 169.30000305 17.13828278 165.35597229 17.14285278 C164.26454737 17.15221273 164.26454737 17.15221273 163.15107346 17.16176176 C160.71806482 17.17768997 158.2860583 17.16508893 155.8530426 17.15249634 C154.10673946 17.15791756 152.3604409 17.16504022 150.614151 17.17373657 C145.87447905 17.1919729 141.13515534 17.18490113 136.39547729 17.17222023 C131.43568482 17.16209418 126.47592219 17.17148481 121.51612854 17.17776489 C113.18697251 17.18504244 104.85795834 17.17545075 96.52882385 17.15640259 C86.89876817 17.13463365 77.26905123 17.14168494 67.63900375 17.16370821 C59.37134781 17.18185912 51.10379385 17.18442204 42.83612442 17.17395353 C37.89798174 17.16771691 32.9599983 17.16688763 28.02186584 17.18009949 C23.37931458 17.19165286 18.73720011 17.18364168 14.09469604 17.16052246 C12.39071376 17.15523262 10.68669472 17.15675387 8.98272705 17.16557312 C6.65677583 17.17650182 4.33222486 17.16279913 2.00636292 17.14285278 C0.05406769 17.14059063 0.05406769 17.14059063 -1.93766785 17.13828278 C-5.90484333 16.54767693 -7.55314272 15.49834608 -10.3188324 12.63491821 C-11.3813324 9.19741821 -11.3813324 9.19741821 -11.3188324 5.63491821 C-8.37610295 0.52960154 -5.56677949 -0.09008954 0 0 Z " fill="#A89DA8" transform="translate(88.31883239746094,278.3650817871094)"/>
<path d="M0 0 C0.7349293 -0.0060911 1.46985859 -0.01218221 2.22705847 -0.01845789 C4.69063749 -0.03511214 7.15370102 -0.03030876 9.61732483 -0.0255127 C11.38318418 -0.03285161 13.14903873 -0.04143732 14.91488647 -0.05117798 C19.71239537 -0.07342084 24.50973265 -0.0763233 29.30728602 -0.07443047 C33.31089481 -0.0743109 37.31446706 -0.08286937 41.3180657 -0.09120798 C50.76224451 -0.11045184 60.20633491 -0.11332221 69.65052795 -0.10656738 C79.39704642 -0.09992469 89.14318662 -0.12279789 98.88962835 -0.15988111 C107.2549206 -0.19055579 115.62009102 -0.2019406 123.98543841 -0.1980443 C128.98290015 -0.19597458 133.98006756 -0.20149043 138.97747612 -0.22593689 C143.67669081 -0.24816479 148.3752895 -0.24635934 153.07450676 -0.22600937 C154.79946367 -0.22259235 156.52446172 -0.22771818 158.24936295 -0.24199295 C160.60405677 -0.26013562 162.95664966 -0.24747648 165.3112793 -0.22705078 C167.28764578 -0.22811954 167.28764578 -0.22811954 169.30393887 -0.2292099 C173.59690824 0.55469248 175.10207588 1.95954104 177.71913147 5.39440918 C177.84413147 8.95690918 177.84413147 8.95690918 176.71913147 12.39440918 C173.94620653 15.26213623 172.29741615 16.30776285 168.32234955 16.90336037 C167.01344505 16.90746611 165.70454056 16.91157185 164.35597229 16.915802 C163.62427212 16.9234531 162.89257195 16.93110419 162.13869905 16.93898714 C159.69190853 16.95959152 157.24606156 16.95167477 154.79920959 16.94372559 C153.04305148 16.95242165 151.28690096 16.96278857 149.53076172 16.97470093 C144.76425965 17.00148184 139.99807472 17.00263851 135.23151207 16.99757433 C131.25269595 16.99543533 127.27394406 17.00520033 123.2951417 17.01478517 C113.90989282 17.03697499 104.52480404 17.03785008 95.13954163 17.02575684 C85.45484347 17.01366981 75.7707259 17.03831761 66.0861268 17.08089697 C57.7717539 17.11610886 49.45756598 17.12813511 41.14312124 17.12162149 C36.17692878 17.11799278 31.21115064 17.12329756 26.24502563 17.15105057 C21.57606391 17.17616693 16.90800884 17.17235963 12.23906136 17.14622879 C10.52539326 17.14148939 8.81166174 17.1469952 7.09806633 17.16347504 C4.75841794 17.18435398 2.42182826 17.16826831 0.08229065 17.14285278 C-1.22661385 17.14318827 -2.53551834 17.14352375 -3.88408661 17.1438694 C-8.63747398 16.09509005 -9.67835261 14.44861033 -12.28086853 10.39440918 C-12.34411237 6.66302268 -12.30403652 4.46267861 -9.66951656 1.7120285 C-6.35246805 -0.11771249 -3.78173482 0.01070528 0 0 Z " fill="#A79BA7" transform="translate(89.28086853027344,316.6055908203125)"/>
<path d="M0 0 C1.09755025 -0.01064158 1.09755025 -0.01064158 2.21727324 -0.02149814 C4.66430722 -0.03907314 7.10975168 -0.02097759 9.5567627 -0.00291443 C11.31291934 -0.00805348 13.06907083 -0.01533465 14.82521057 -0.02459717 C19.59182116 -0.04312131 24.35787285 -0.03016624 29.12446022 -0.01050687 C34.11227703 0.00587257 39.10005825 -0.00293228 44.08789062 -0.00802612 C52.46416151 -0.01254787 60.84020914 0.00332778 69.21643066 0.03126526 C78.90102696 0.0633175 88.5852206 0.06330167 98.26984549 0.04605049 C107.58547103 0.0301877 116.90094891 0.03691737 126.21656799 0.0539875 C130.18140085 0.0608608 134.14611545 0.05982268 138.11094666 0.05244255 C142.77978025 0.04478242 147.4481555 0.05689692 152.11691093 0.08429146 C153.8305621 0.09117924 155.54425605 0.09126904 157.25790596 0.08407593 C159.59700965 0.0753887 161.93469644 0.09132301 164.27368164 0.11352539 C166.23703838 0.11773577 166.23703838 0.11773577 168.2400589 0.12203121 C172.20636127 0.7130539 173.86202437 1.77808165 176.63684082 4.62818909 C177.62558539 7.79217171 177.91991401 9.70176773 176.94934082 12.87818909 C175.29959147 15.07785488 174.21594648 15.64060855 171.63684082 16.62818909 C168.36310673 16.8882513 168.36310673 16.8882513 164.39393616 16.90234375 C163.66309041 16.90758043 162.93224467 16.91281711 162.17925209 16.91821247 C159.72959418 16.93321786 157.28014505 16.93391773 154.83044434 16.93458557 C153.07443896 16.94220659 151.31843692 16.95063399 149.56243896 16.95980835 C144.79182467 16.98176329 140.02127447 16.99055335 135.25061536 16.99563479 C132.27088423 16.99927656 129.29116995 17.00551562 126.31144524 17.01263618 C115.91851945 17.03713213 105.52564361 17.05018333 95.13269043 17.0537262 C85.44071756 17.05736372 75.74906092 17.08727424 66.05718476 17.12913078 C57.7386124 17.16379874 49.42014506 17.17927401 41.10150093 17.17997223 C36.13196844 17.18076611 31.16275818 17.18955569 26.19330025 17.21796989 C21.5203711 17.24409141 16.84803274 17.24638902 12.17506409 17.23031425 C10.4597743 17.22849515 8.74445098 17.235232 7.02923393 17.25113297 C4.68769581 17.27151762 2.34823974 17.26108936 0.00672913 17.24291992 C-1.30347419 17.24493125 -2.6136775 17.24694258 -3.96358395 17.24901485 C-8.23731659 16.46855166 -9.71408931 15.00455842 -12.36315918 11.62818909 C-12.98815918 8.62818909 -12.98815918 8.62818909 -12.36315918 5.62818909 C-8.56424401 0.78880223 -6.06491017 0.00271671 0 0 Z " fill="#A79BA7" transform="translate(89.3631591796875,354.37181091308594)"/>
<path d="M0 0 C1.09142492 -0.00935994 1.09142492 -0.00935994 2.20489883 -0.01890898 C4.63790747 -0.03483719 7.06991399 -0.02223615 9.50292969 -0.00964355 C11.24923283 -0.01506478 12.99553139 -0.02218744 14.74182129 -0.03088379 C19.48149324 -0.04912012 24.22081695 -0.04204834 28.960495 -0.02936745 C33.92028747 -0.0192414 38.8800501 -0.02863203 43.83984375 -0.03491211 C52.16899978 -0.04218966 60.49801395 -0.03259797 68.82714844 -0.0135498 C78.45720412 0.00821913 88.08692106 0.00116784 97.71696854 -0.02085543 C105.98462448 -0.03900634 114.25217844 -0.04156925 122.51984787 -0.03110075 C127.45799055 -0.02486413 132.39597399 -0.02403485 137.33410645 -0.0372467 C141.97665771 -0.04880008 146.61877218 -0.04078889 151.26127625 -0.01766968 C152.96525853 -0.01237984 154.66927757 -0.01390109 156.37324524 -0.02272034 C158.69919646 -0.03364904 161.02374743 -0.01994634 163.34960938 0 C165.3019046 0.00226215 165.3019046 0.00226215 167.29364014 0.00457001 C171.26138597 0.59526076 172.90636434 1.64695891 175.67480469 4.50793457 C176.79980469 7.94543457 176.79980469 7.94543457 176.67480469 11.50793457 C174.05893499 14.93946441 172.5503772 16.34648945 168.2624054 17.13714027 C166.28798714 17.13996797 166.28798714 17.13996797 164.27368164 17.14285278 C163.53789792 17.15065274 162.8021142 17.15845269 162.044034 17.16648901 C159.58320576 17.18640285 157.12392512 17.17064828 154.66308594 17.15490723 C152.89707538 17.16168367 151.13107189 17.17058695 149.36508179 17.18145752 C144.5716304 17.20425436 139.778717 17.19541296 134.9852562 17.17956209 C129.96940407 17.16690511 124.95359807 17.17864265 119.93774414 17.18649292 C111.51440153 17.19559006 103.09127809 17.18359984 94.66796875 17.15979004 C84.92878689 17.13257866 75.19012838 17.14139278 65.45095921 17.16892207 C57.0898697 17.19161026 48.72893776 17.19481463 40.36782742 17.18172872 C35.3737626 17.17393263 30.3799438 17.172897 25.38589478 17.18941116 C20.69072593 17.20385243 15.99623194 17.19384058 11.30113602 17.16493988 C9.57780707 17.15832721 7.85442134 17.16022987 6.13111496 17.1712532 C3.77861871 17.18491412 1.42828599 17.16778985 -0.92407227 17.14285278 C-2.2403511 17.14096766 -3.55662994 17.13908253 -4.91279602 17.13714027 C-9.20076783 16.34648945 -10.70932562 14.93946441 -13.32519531 11.50793457 C-13.45019531 7.94543457 -13.45019531 7.94543457 -12.32519531 4.50793457 C-8.39470832 0.44607078 -5.55218308 0.0064334 0 0 Z " fill="#A89CA8" transform="translate(90.3251953125,239.4920654296875)"/>
<path d="M0 0 C1.09755025 -0.01064158 1.09755025 -0.01064158 2.21727324 -0.02149814 C4.66430722 -0.03907314 7.10975168 -0.02097759 9.5567627 -0.00291443 C11.31291934 -0.00805348 13.06907083 -0.01533465 14.82521057 -0.02459717 C19.59182116 -0.04312131 24.35787285 -0.03016624 29.12446022 -0.01050687 C34.11227703 0.00587257 39.10005825 -0.00293228 44.08789062 -0.00802612 C52.46416151 -0.01254787 60.84020914 0.00332778 69.21643066 0.03126526 C78.90102696 0.0633175 88.5852206 0.06330167 98.26984549 0.04605049 C107.58547103 0.0301877 116.90094891 0.03691737 126.21656799 0.0539875 C130.18140085 0.0608608 134.14611545 0.05982268 138.11094666 0.05244255 C142.77978025 0.04478242 147.4481555 0.05689692 152.11691093 0.08429146 C153.8305621 0.09117924 155.54425605 0.09126904 157.25790596 0.08407593 C159.59700965 0.0753887 161.93469644 0.09132301 164.27368164 0.11352539 C166.23703838 0.11773577 166.23703838 0.11773577 168.2400589 0.12203121 C172.20636127 0.7130539 173.86202437 1.77808165 176.63684082 4.62818909 C177.62558539 7.79217171 177.91991401 9.70176773 176.94934082 12.87818909 C175.29959147 15.07785488 174.21594648 15.64060855 171.63684082 16.62818909 C168.36310673 16.8882513 168.36310673 16.8882513 164.39393616 16.90234375 C163.66309041 16.90758043 162.93224467 16.91281711 162.17925209 16.91821247 C159.72959418 16.93321786 157.28014505 16.93391773 154.83044434 16.93458557 C153.07443896 16.94220659 151.31843692 16.95063399 149.56243896 16.95980835 C144.79182467 16.98176329 140.02127447 16.99055335 135.25061536 16.99563479 C132.27088423 16.99927656 129.29116995 17.00551562 126.31144524 17.01263618 C115.91851945 17.03713213 105.52564361 17.05018333 95.13269043 17.0537262 C85.44071756 17.05736372 75.74906092 17.08727424 66.05718476 17.12913078 C57.7386124 17.16379874 49.42014506 17.17927401 41.10150093 17.17997223 C36.13196844 17.18076611 31.16275818 17.18955569 26.19330025 17.21796989 C21.5203711 17.24409141 16.84803274 17.24638902 12.17506409 17.23031425 C10.4597743 17.22849515 8.74445098 17.235232 7.02923393 17.25113297 C4.68769581 17.27151762 2.34823974 17.26108936 0.00672913 17.24291992 C-1.30347419 17.24493125 -2.6136775 17.24694258 -3.96358395 17.24901485 C-8.23731659 16.46855166 -9.71408931 15.00455842 -12.36315918 11.62818909 C-12.98815918 8.62818909 -12.98815918 8.62818909 -12.36315918 5.62818909 C-8.56424401 0.78880223 -6.06491017 0.00271671 0 0 Z " fill="#A79BA7" transform="translate(89.3631591796875,201.37181091308594)"/>
<path d="M0 0 C0.73199887 -0.00427212 1.46399774 -0.00854425 2.21817839 -0.01294583 C4.6600506 -0.02115261 7.10018793 0.00626809 9.54190063 0.03364563 C11.29645751 0.03505661 13.05101735 0.03426314 14.80557251 0.03143311 C19.56152327 0.0299995 24.31684252 0.05938025 29.07264662 0.09430289 C34.04540772 0.12557566 39.01818357 0.12849786 43.99102783 0.13442993 C53.40453163 0.14996565 62.81774483 0.19099052 72.23112071 0.24117738 C82.94927361 0.29707923 93.66744044 0.32455948 104.38570285 0.34965456 C126.43093223 0.40190654 148.47590007 0.48984364 170.52090454 0.60127258 C169.86090454 3.24127258 169.20090454 5.88127258 168.52090454 8.60127258 C171.16090454 7.94127258 173.80090454 7.28127258 176.52090454 6.60127258 C176.83340454 8.78877258 176.83340454 8.78877258 176.52090454 11.60127258 C173.87951583 14.98634482 172.38190621 16.44251415 168.10850525 17.23047829 C166.13408699 17.23330598 166.13408699 17.23330598 164.11978149 17.2361908 C163.38399777 17.24399075 162.64821405 17.2517907 161.89013386 17.25982702 C159.42930561 17.27974087 156.97002498 17.26398629 154.50918579 17.24824524 C152.74317523 17.25502168 150.97717174 17.26392497 149.21118164 17.27479553 C144.41773025 17.29759237 139.62481686 17.28875097 134.83135605 17.2729001 C129.81550392 17.26024312 124.79969792 17.27198066 119.78384399 17.27983093 C111.36050138 17.28892807 102.93737794 17.27693786 94.5140686 17.25312805 C84.77488675 17.22591668 75.03622823 17.23473079 65.29705906 17.26226008 C56.93596955 17.28494827 48.57503761 17.28815264 40.21392727 17.27506673 C35.21986245 17.26727064 30.22604365 17.26623501 25.23199463 17.28274918 C20.53682578 17.29719044 15.84233179 17.2871786 11.14723587 17.25827789 C9.42390692 17.25166523 7.70052119 17.25356788 5.97721481 17.26459122 C3.62471857 17.27825213 1.27438584 17.26112786 -1.07797241 17.2361908 C-2.39425125 17.23430567 -3.71053009 17.23242054 -5.06669617 17.23047829 C-9.34560363 16.44149882 -10.82350774 14.98115953 -13.47909546 11.60127258 C-14.16659546 8.60127258 -14.16659546 8.60127258 -13.47909546 5.60127258 C-9.06525076 1.05993205 -6.49316743 -0.02289551 0 0 Z " fill="#A89CA8" transform="translate(90.47909545898438,392.3987274169922)"/>
<path d="M0 0 C7.92 0.66 15.84 1.32 24 2 C24.45372891 18.34401335 24.82112722 34.68255133 25.03624344 51.03113937 C25.13883809 58.62430978 25.27832523 66.21325589 25.50878906 73.80371094 C25.70987566 80.42984224 25.83755265 87.05291397 25.8817699 93.68201184 C25.90758056 97.18530972 25.96688853 100.67986747 26.11460114 104.18032074 C27.04082002 126.98836605 27.04082002 126.98836605 19.44958496 136.30432129 C14.72688155 141.35071079 9.64400308 145.99718681 4 150 C3.67 150 3.34 150 3 150 C3 100.83 3 51.66 3 1 C2.01 0.67 1.02 0.34 0 0 Z " fill="#D0D0D5" transform="translate(288,190)"/>
<path d="M0 0 C1.33347725 -0.00618599 1.33347725 -0.00618599 2.69389343 -0.01249695 C3.66133987 -0.00171112 4.62878632 0.00907471 5.62554932 0.02018738 C7.16261284 0.01953026 7.16261284 0.01953026 8.73072815 0.01885986 C12.11806281 0.02095004 15.50490267 0.04429245 18.89215088 0.0677948 C21.24055714 0.07338992 23.58896691 0.07766042 25.93737793 0.08065796 C32.11883204 0.09211323 38.30007474 0.12158655 44.48144531 0.1547699 C50.78889099 0.18545592 57.09637082 0.19916017 63.40386963 0.21427917 C75.78026461 0.24645537 88.15650266 0.29766018 100.53277588 0.36076355 C101.51316102 2.14314111 102.49354617 3.92551867 103.47393131 5.70789623 C104.85959782 7.87093597 105.96132161 8.48829742 108.43511963 9.1302948 C109.61437012 9.44667908 109.61437012 9.44667908 110.81744385 9.76945496 C116.23028662 10.94819126 121.64592672 12.05007065 127.09527588 13.04826355 C128.29474854 13.27320496 129.49422119 13.49814636 130.7300415 13.72990417 C133.66328589 14.27915711 136.5974748 14.82263034 139.53277588 15.36076355 C139.53277588 15.69076355 139.53277588 16.02076355 139.53277588 16.36076355 C120.84396424 16.50091175 102.15525919 16.60672368 83.46603107 16.67163658 C74.78831226 16.70257768 66.11091992 16.74476267 57.43341064 16.81340027 C49.87025953 16.87319498 42.30734482 16.91191087 34.7439639 16.92529452 C30.73889125 16.93311835 26.73449495 16.95151 22.72963905 16.99514389 C18.95954833 17.03588695 15.19041211 17.04842976 11.42012215 17.03940964 C10.03698284 17.04105959 8.65381145 17.05298619 7.27086258 17.0759964 C-3.09387525 17.2399832 -3.09387525 17.2399832 -6.42270851 15.10886002 C-8.96433769 12.28095716 -9.4654274 10.46677 -9.52972412 6.67326355 C-7.905072 1.60817165 -5.23534865 -0.01878714 0 0 Z " fill="#A79BA7" transform="translate(86.46722412109375,163.6392364501953)"/>
<path d="M0 0 C0.23180386 11.50009977 0.40943275 22.99964316 0.51812172 34.50160408 C0.5702914 39.84272957 0.64103173 45.18225595 0.75439453 50.52246094 C0.86313648 55.67731264 0.92285787 60.83062776 0.94877243 65.98653793 C0.96723601 67.95233231 1.00329493 69.91804339 1.05730057 71.88318253 C1.4642576 87.3062899 1.4642576 87.3062899 -2.22247314 91.57073975 C-5.40238953 93.54260404 -8.20944351 95 -12 95 C-11.9800145 95.67349991 -11.96002899 96.34699982 -11.93943787 97.04090881 C-11.73998248 104.0648389 -11.60444997 111.08796246 -11.50561523 118.11401367 C-11.46041554 120.73413781 -11.39904176 123.3540357 -11.32104492 125.97338867 C-11.21158049 129.7445455 -11.16076784 133.51269816 -11.12109375 137.28515625 C-11.07464218 138.45208511 -11.02819061 139.61901398 -10.98033142 140.82130432 C-10.97540636 148.79534594 -10.97540636 148.79534594 -13.99319458 152.34347534 C-19.80844278 157 -19.80844278 157 -23 157 C-23.23211464 149.02020389 -23.40957522 141.04182579 -23.51812172 133.05948448 C-23.57023223 129.35240528 -23.64084057 125.64764099 -23.75439453 121.94189453 C-23.86338366 118.36254978 -23.9229024 114.78542417 -23.94877243 111.20454788 C-23.96719492 109.84151882 -24.00317829 108.47860626 -24.05730057 107.11652756 C-24.21817132 102.89861565 -24.22150743 99.05730293 -23 95 C-19.75986308 91.7806851 -15.715583 89 -11 89 C-11 60.29 -11 31.58 -11 2 C-4.25 -0.25 -4.25 -0.25 0 0 Z " fill="#FED165" transform="translate(462,68)"/>
<path d="M0 0 C0.33 0 0.66 0 1 0 C1.09276481 8.38853685 1.16379728 16.77685865 1.20724869 25.16578197 C1.22810547 29.0613081 1.2563873 32.95648277 1.30175781 36.85180664 C1.34528508 40.61250058 1.36915148 44.3728569 1.37950897 48.13378334 C1.38688812 49.56711452 1.4012982 51.00042765 1.42292023 52.43361473 C1.45203957 54.44408454 1.45363462 56.45489555 1.45410156 58.46557617 C1.46298401 59.60919113 1.47186646 60.75280609 1.48101807 61.93107605 C0.89492397 65.67039135 -0.38656447 67.31491582 -3 70 C-6.35257937 71.67628968 -10.13391412 71.13254717 -13.82034302 71.12025452 C-15.20723054 71.12153615 -15.20723054 71.12153615 -16.622136 71.12284368 C-19.73915818 71.12449879 -22.85612726 71.1189766 -25.97314453 71.11352539 C-28.20001219 71.1132435 -30.42687995 71.11340129 -32.65374756 71.1139679 C-38.71542736 71.1142558 -44.77708753 71.10836027 -50.83876276 71.10139394 C-57.16756244 71.09515915 -63.49636252 71.0945565 -69.82516479 71.09336853 C-80.45294577 71.09060967 -91.08071897 71.08435578 -101.70849609 71.07543945 C-112.65641239 71.06626408 -123.60432673 71.05918386 -134.55224609 71.05493164 C-135.22678165 71.05466892 -135.9013172 71.05440619 -136.59629323 71.05413551 C-139.98015205 71.0528305 -143.36401088 71.05156678 -146.74786973 71.05032361 C-174.83191819 71.03995251 -202.91595864 71.02226131 -231 71 C-231 70.67 -231 70.34 -231 70 C-161.37 70 -91.74 70 -20 70 C-20 51.85 -20 33.7 -20 15 C-17.03 13.68 -14.06 12.36 -11 11 C-8.79541794 9.10278755 -6.92432881 7.37512834 -5 5.25 C-3.3451993 3.48756999 -1.67932261 1.73929842 0 0 Z " fill="#CFCFD4" transform="translate(311,378)"/>
<path d="M0 0 C5.70792701 3.81877859 11.11081585 8.83244754 13.3125 15.4375 C14.03657624 21.66863496 13.59014428 25.97243001 10.3125 31.4375 C8.53814293 33.53064447 6.61350925 35.42405767 4.625 37.3125 C3.85833008 38.05886719 3.85833008 38.05886719 3.07617188 38.8203125 C1.82841888 40.03308176 0.57140136 41.23630719 -0.6875 42.4375 C-6.93354549 39.4682878 -11.06983229 35.09063848 -15.4765625 29.90625 C-20.3004987 24.51980534 -25.54146176 19.51389261 -30.6875 14.4375 C-29.11483845 10.65959795 -26.74467851 8.19508561 -23.875 5.3125 C-23.02292969 4.44367188 -22.17085938 3.57484375 -21.29296875 2.6796875 C-15.44414747 -2.35363096 -6.9968586 -3.68006333 0 0 Z " fill="#847682" transform="translate(412.6875,235.5625)"/>
<path d="M0 0 C0.07409532 5.92648574 0.12857616 11.85270253 0.16479492 17.77954102 C0.17989179 19.79619034 0.20037115 21.81280679 0.22631836 23.8293457 C0.26266211 26.72615671 0.2797172 29.62253406 0.29296875 32.51953125 C0.30845261 33.42274612 0.32393646 34.325961 0.33988953 35.25654602 C0.34011612 36.09719101 0.34034271 36.937836 0.34057617 37.80395508 C0.34723801 38.54341873 0.35389984 39.28288239 0.36076355 40.04475403 C-0.11343616 42.61479492 -0.8948452 43.47759314 -3 45 C-4.95524597 45.36076355 -4.95524597 45.36076355 -7.19604492 45.34057617 C-8.03668991 45.34034958 -8.8773349 45.34012299 -9.74345398 45.33988953 C-10.64666885 45.32440567 -11.54988373 45.30892181 -12.48046875 45.29296875 C-13.40845779 45.28872391 -14.33644684 45.28447906 -15.29255676 45.28010559 C-18.25783243 45.26330662 -21.2224296 45.22565216 -24.1875 45.1875 C-26.19725581 45.17245474 -28.20702227 45.15876606 -30.21679688 45.14648438 C-35.14479286 45.11339908 -40.07228138 45.06160833 -45 45 C-43.53091388 41.61037866 -41.64216474 39.38914109 -39.04101562 36.78222656 C-38.22677124 35.96167786 -37.41252686 35.14112915 -36.5736084 34.29571533 C-35.69338013 33.41953552 -34.81315186 32.54335571 -33.90625 31.640625 C-33.0037854 30.73624695 -32.1013208 29.8318689 -31.17150879 28.90008545 C-29.26404896 26.99126509 -27.35469588 25.08459451 -25.44189453 23.18115234 C-22.98693691 20.73762119 -20.54111007 18.28517765 -18.09784698 15.82995987 C-15.76799406 13.49116087 -13.43055469 11.15997507 -11.09375 8.828125 C-10.21352173 7.94384827 -9.33329346 7.05957153 -8.4263916 6.14849854 C-7.61214722 5.34055847 -6.79790283 4.53261841 -5.95898438 3.70019531 C-5.24109741 2.98389954 -4.52321045 2.26760376 -3.78356934 1.52960205 C-2 0 -2 0 0 0 Z " fill="#A99EAA" transform="translate(78,87)"/>
<path d="M0 0 C1.21512268 0.00707474 2.43024536 0.01414948 3.68218994 0.0214386 C7.56479342 0.04943619 11.44595708 0.11219029 15.328125 0.17578125 C17.9596146 0.20085692 20.59112679 0.22367135 23.22265625 0.24414062 C29.67503428 0.29928139 36.1263355 0.38559606 42.578125 0.48828125 C42.578125 5.76828125 42.578125 11.04828125 42.578125 16.48828125 C35.12170278 16.58717784 27.66566257 16.6597648 20.20874023 16.70800781 C17.67221425 16.72811966 15.1357346 16.75541286 12.59936523 16.79003906 C8.95284589 16.83857367 5.30693972 16.86125488 1.66015625 16.87890625 C-0.04009956 16.90987396 -0.04009956 16.90987396 -1.77470398 16.94146729 C-9.61935934 16.94370167 -9.61935934 16.94370167 -13.6105957 14.67871094 C-16.16656573 11.58770634 -16.49176285 9.47188857 -16.421875 5.48828125 C-13.21194356 -1.55147888 -6.69455659 -0.14611022 0 0 Z " fill="#A89DA8" transform="translate(144.421875,125.51171875)"/>
<path d="M0 0 C6.55377097 5.38640924 12.47246635 11.35885127 18.4375 17.375 C19.46525983 18.40778595 20.49325285 19.44033991 21.52148438 20.47265625 C24.01701598 22.97910287 26.50938082 25.4886708 29 28 C28.67 28.66 28.34 29.32 28 30 C25.44996916 30.81912383 22.94658539 31.51949129 20.3515625 32.1640625 C19.5832309 32.36099701 18.81489929 32.55793152 18.02328491 32.76083374 C16.3950824 33.17643913 14.76586419 33.5880821 13.13574219 33.99609375 C10.64019512 34.62119383 8.14808583 35.25872173 5.65625 35.8984375 C4.07570842 36.30021782 2.49498489 36.7012832 0.9140625 37.1015625 C0.16710114 37.2921524 -0.57986023 37.48274231 -1.34945679 37.67910767 C-4.31139231 38.41709963 -6.93455723 39 -10 39 C-9.38565517 34.15233834 -8.45190551 29.54275595 -7.1875 24.82421875 C-7.01371826 24.17298538 -6.83993652 23.52175201 -6.66088867 22.8507843 C-6.2963629 21.48814005 -5.92988543 20.12601651 -5.56152344 18.7644043 C-4.99712913 16.67688152 -4.43951365 14.58763296 -3.8828125 12.49804688 C-1.14551633 2.29103265 -1.14551633 2.29103265 0 0 Z " fill="#857783" transform="translate(269,362)"/>
<path d="M0 0 C4.14843485 1.84866286 6.26089141 4.37253187 9 8 C9.95231986 10.85695958 10.19511098 12.83477041 10.25 15.8125 C10.27578125 16.64394531 10.3015625 17.47539062 10.328125 18.33203125 C9.54290763 24.71659629 5.76218633 28.64923337 1.3125 32.875 C0.80138672 33.37257813 0.29027344 33.87015625 -0.23632812 34.3828125 C-1.48408112 35.59558176 -2.74109864 36.79880719 -4 38 C-7.76488042 36.27845212 -10.15063897 34.00765886 -13 31 C-11.5563244 27.63391699 -9.73566659 25.604026 -7.0625 23.125 C-1.49637125 17.59927872 0.14470655 14.04178819 0.1875 6.125 C0.13953215 4.08294023 0.08176057 2.04098609 0 0 Z " fill="#6C6068" transform="translate(416,240)"/>
<path d="M0 0 C2.56085633 2.13404694 4.79272432 4.50647819 7 7 C6.67 7.66 6.34 8.32 6 9 C3.44996916 9.81912383 0.94658539 10.51949129 -1.6484375 11.1640625 C-2.4167691 11.36099701 -3.18510071 11.55793152 -3.97671509 11.76083374 C-5.6049176 12.17643913 -7.23413581 12.5880821 -8.86425781 12.99609375 C-11.35980488 13.62119383 -13.85191417 14.25872173 -16.34375 14.8984375 C-17.92429158 15.30021782 -19.50501511 15.7012832 -21.0859375 16.1015625 C-21.83289886 16.2921524 -22.57986023 16.48274231 -23.34945679 16.67910767 C-26.31139231 17.41709963 -28.93455723 18 -32 18 C-31.49800802 14.27091669 -30.95792977 10.63852314 -30 7 C-26.58364488 6.0197441 -23.16686255 5.04098554 -19.75 4.0625 C-18.78191406 3.78470703 -17.81382812 3.50691406 -16.81640625 3.22070312 C-15.88183594 2.95322266 -14.94726562 2.68574219 -13.984375 2.41015625 C-13.12553711 2.16402588 -12.26669922 1.91789551 -11.38183594 1.66430664 C-3.24796592 -0.60427273 -3.24796592 -0.60427273 0 0 Z " fill="#6A6069" transform="translate(291,383)"/>
<path d="M0 0 C3.84289716 1.7352617 7.18352706 3.74764689 10.015625 6.91015625 C10.71868581 9.87685984 10.44055627 11.82940454 10.015625 14.91015625 C4.18465548 11.80857672 -0.85039399 8.05459444 -5.984375 3.91015625 C-2.56801471 -0.11626838 -2.56801471 -0.11626838 0 0 Z " fill="#FFD166" transform="translate(469.984375,210.08984375)"/>
</svg>
