<?xml version="1.0" encoding="UTF-8"?>
<svg version="1.1" xmlns="http://www.w3.org/2000/svg" width="512" height="512">
<path d="M0 0 C23.23976351 -1.07047945 42.46960938 13.44908215 61.33901978 25.05247498 C63.04310841 26.09836207 64.75128102 27.13758544 66.45947266 28.17675781 C68.60361355 29.48796655 70.73685917 30.81721703 72.85693359 32.16699219 C84.24151936 39.2210289 94.77500516 40.62754277 108.00390625 40.87890625 C109.23753906 40.91306641 110.47117187 40.94722656 111.7421875 40.98242188 C114.74600263 41.06392073 117.7495618 41.13338381 120.75390625 41.19140625 C120.66689453 40.30388672 120.66689453 40.30388672 120.578125 39.3984375 C120.33551571 35.14930906 120.34658824 32.84127503 122.65625 29.15625 C126.95863358 26.42724756 130.32979561 26.5602146 135.31640625 26.75390625 C136.16654297 26.75970703 137.01667969 26.76550781 137.89257812 26.77148438 C142.05665073 26.85313286 145.12737484 26.95828628 148.75390625 29.19140625 C150.26055176 32.20469727 149.90995482 35.31715301 149.91503906 38.62280273 C149.92000397 39.38880798 149.92496887 40.15481323 149.93008423 40.94403076 C149.94471562 43.48352957 149.95150892 46.02296593 149.95703125 48.5625 C149.96278123 50.3236542 149.96853898 52.08480837 149.9743042 53.84596252 C149.98481651 57.54062187 149.99065789 61.23525944 149.99414062 64.92993164 C149.99963048 69.66930448 150.02366791 74.40839076 150.05211258 79.14767361 C150.07071387 82.78588204 150.07594318 86.42402105 150.0774765 90.06227303 C150.08050848 91.80982088 150.08855531 93.55736736 150.10166168 95.3048687 C150.11867256 97.74700777 150.11685454 100.18844134 150.11035156 102.63061523 C150.11956635 103.35539566 150.12878113 104.08017609 150.13827515 104.82691956 C150.11386565 107.7457742 150.09297171 109.71041491 148.38189697 112.13771057 C144.65683341 114.54870919 139.53697289 113.70184003 135.25390625 113.69140625 C134.19558594 113.71976562 133.13726562 113.748125 132.046875 113.77734375 C124.37026124 113.7968523 124.37026124 113.7968523 121.546875 111.0234375 C120.69578395 107.98382662 120.45247467 105.53101332 120.56640625 102.37890625 C120.60701172 100.91517578 120.60701172 100.91517578 120.6484375 99.421875 C120.68324219 98.68582031 120.71804688 97.94976562 120.75390625 97.19140625 C115.90083509 97.0373405 113.10446934 96.95907427 109.43359375 100.30859375 C107.92202398 102.08350321 106.42747393 103.87303103 104.94921875 105.67578125 C100.63586301 110.61848782 95.12780857 113.66721222 88.75390625 115.19140625 C86.75408884 115.21843081 84.75367417 115.22187363 82.75390625 115.19140625 C82.97046875 116.12082031 83.18703125 117.05023438 83.41015625 118.0078125 C83.68859375 119.24402344 83.96703125 120.48023438 84.25390625 121.75390625 C84.6715625 123.58115234 84.6715625 123.58115234 85.09765625 125.4453125 C85.75390625 129.19140625 85.75390625 129.19140625 85.75390625 136.19140625 C41.53390625 136.19140625 -2.68609375 136.19140625 -48.24609375 136.19140625 C-48.24609375 91.97140625 -48.24609375 47.75140625 -48.24609375 2.19140625 C-33.77652853 3.30444973 -33.77652853 3.30444973 -28.74609375 4.81640625 C-22.70831983 6.62442097 -19.00079523 5.63734433 -13.30859375 3.19140625 C-8.78117859 1.35380833 -4.87088024 0.41508371 0 0 Z " fill="#CF8C48" transform="translate(323.24609375,100.80859375)"/>
<path d="M0 0 C0.76600525 -0.0049649 1.5320105 -0.00992981 2.32122803 -0.01504517 C4.86072683 -0.02967656 7.4001632 -0.03646986 9.93969727 -0.04199219 C11.70085147 -0.04774217 13.46200564 -0.05349992 15.22315979 -0.05926514 C18.91781914 -0.06977745 22.6124567 -0.07561883 26.30712891 -0.07910156 C31.04650174 -0.08459142 35.78558802 -0.10862885 40.52487087 -0.13707352 C44.16307931 -0.1556748 47.80121831 -0.16090412 51.43947029 -0.16243744 C53.18701815 -0.16546942 54.93456463 -0.17351625 56.68206596 -0.18662262 C59.12420504 -0.2036335 61.5656386 -0.20181548 64.0078125 -0.1953125 C64.73259293 -0.20452728 65.45737335 -0.21374207 66.20411682 -0.22323608 C69.12297147 -0.19882659 71.08761218 -0.17793265 73.51490784 1.53314209 C75.92590645 5.25820566 75.0790373 10.37806617 75.06860352 14.66113281 C75.09696289 15.71945313 75.12532227 16.77777344 75.15454102 17.86816406 C75.17404956 25.54477783 75.17404956 25.54477783 72.40063477 28.36816406 C69.36102389 29.21925511 66.90821058 29.46256439 63.75610352 29.34863281 C62.7802832 29.3215625 61.80446289 29.29449219 60.79907227 29.26660156 C59.69499023 29.21439453 59.69499023 29.21439453 58.56860352 29.16113281 C58.41453776 34.01420397 58.33627153 36.81056972 61.68579102 40.48144531 C63.46070047 41.99301509 65.25022829 43.48756513 67.05297852 44.96582031 C71.99568509 49.27917605 75.04440948 54.78723049 76.56860352 61.16113281 C76.59562808 63.16095022 76.59907089 65.16136489 76.56860352 67.16113281 C77.49801758 66.94457031 78.42743164 66.72800781 79.38500977 66.50488281 C80.6212207 66.22644531 81.85743164 65.94800781 83.13110352 65.66113281 C84.34926758 65.38269531 85.56743164 65.10425781 86.82250977 64.81738281 C90.56860352 64.16113281 90.56860352 64.16113281 97.56860352 64.16113281 C97.56860352 108.38113281 97.56860352 152.60113281 97.56860352 198.16113281 C53.34860352 198.16113281 9.12860352 198.16113281 -36.43139648 198.16113281 C-36.43139648 190.30332827 -36.43139648 190.30332827 -35.52124023 186.71582031 C-35.24376953 185.56533203 -35.24376953 185.56533203 -34.96069336 184.39160156 C-34.56408361 182.81301623 -34.16562652 181.23489394 -33.76538086 179.65722656 C-32.21692232 173.21346578 -32.80797414 169.32887672 -35.43139648 163.22363281 C-36.95007695 159.4819563 -38.10032128 156.21680402 -38.43139648 152.16113281 C-38.49456055 151.41992188 -38.55772461 150.67871094 -38.62280273 149.91503906 C-39.69328218 126.67527555 -25.17372059 107.44542969 -13.57032776 88.57601929 C-12.52444067 86.87193065 -11.48521729 85.16375804 -10.44604492 83.45556641 C-9.13483619 81.31142551 -7.8055857 79.17817989 -6.45581055 77.05810547 C0.59822617 65.6735197 2.00474003 55.1400339 2.25610352 41.91113281 C2.29026367 40.6775 2.32442383 39.44386719 2.35961914 38.17285156 C2.441118 35.16903644 2.51058107 32.16547726 2.56860352 29.16113281 C0.67948242 29.20367187 0.67948242 29.20367187 -1.24780273 29.24707031 C-5.11868695 29.33423454 -7.32334339 28.60990192 -10.43139648 26.16113281 C-12.18494062 22.65404454 -11.61603932 18.64901532 -11.61889648 14.78613281 C-11.63114258 13.92246094 -11.64338867 13.05878906 -11.65600586 12.16894531 C-11.65793945 11.33363281 -11.65987305 10.49832031 -11.66186523 9.63769531 C-11.66597412 8.87537598 -11.67008301 8.11305664 -11.67431641 7.32763672 C-11.39727267 4.8567964 -10.74226446 3.2653223 -9.43139648 1.16113281 C-6.41810546 -0.3455127 -3.30564973 0.00508424 0 0 Z " fill="#EFB06D" transform="translate(139.431396484375,38.8388671875)"/>
<path d="M0 0 C44.22 0 88.44 0 134 0 C134 7.85780454 134 7.85780454 133.08984375 11.4453125 C132.90486328 12.21230469 132.71988281 12.97929687 132.52929688 13.76953125 C132.13268713 15.34811659 131.73423004 16.92623887 131.33398438 18.50390625 C129.78552584 24.94766703 130.37657766 28.8322561 133 34.9375 C138.11090191 47.52957716 136.72882349 60.93074286 131.6171875 73.36328125 C124.17013312 89.38446416 114.44352739 104.85810026 105.00390625 119.78125 C104.59003662 120.44181396 104.17616699 121.10237793 103.74975586 121.78295898 C102.73599242 123.3868925 101.70127185 124.97753376 100.6640625 126.56640625 C96.07739336 136.03044892 95.50942274 145.88623751 95.3125 156.25 C95.27833984 157.48363281 95.24417969 158.71726562 95.20898438 159.98828125 C95.12748552 162.99209638 95.05802244 165.99565555 95 169 C96.25941406 168.97164062 97.51882813 168.94328125 98.81640625 168.9140625 C102.68729047 168.82689827 104.89194691 169.5512309 108 172 C109.75354414 175.50708827 109.18464284 179.51211749 109.1875 183.375 C109.19974609 184.23867188 109.21199219 185.10234375 109.22460938 185.9921875 C109.22654297 186.8275 109.22847656 187.6628125 109.23046875 188.5234375 C109.23457764 189.28575684 109.23868652 190.04807617 109.24291992 190.83349609 C108.96587619 193.30433641 108.31086798 194.89581051 107 197 C103.98670898 198.50664551 100.87425324 198.15604857 97.56860352 198.16113281 C96.41959564 198.16858017 96.41959564 198.16858017 95.24737549 198.17617798 C92.70787668 198.19080937 90.16844032 198.19760267 87.62890625 198.203125 C85.86775205 198.20887498 84.10659788 198.21463273 82.34544373 198.22039795 C78.65078438 198.23091026 74.95614681 198.23675164 71.26147461 198.24023438 C66.52210177 198.24572423 61.78301549 198.26976166 57.04373264 198.29820633 C53.40552421 198.31680762 49.7673852 198.32203693 46.12913322 198.32357025 C44.38158537 198.32660223 42.63403889 198.33464906 40.88653755 198.34775543 C38.44439848 198.36476631 36.00296491 198.36294829 33.56079102 198.35644531 C32.83601059 198.3656601 32.11123016 198.37487488 31.36448669 198.3843689 C28.44563205 198.3599594 26.48099134 198.33906546 24.05369568 196.62799072 C21.64269706 192.90292716 22.48956622 187.78306664 22.5 183.5 C22.47164063 182.44167969 22.44328125 181.38335937 22.4140625 180.29296875 C22.39455395 172.61635499 22.39455395 172.61635499 25.16796875 169.79296875 C28.20757963 168.9418777 30.66039293 168.69856842 33.8125 168.8125 C35.27623047 168.85310547 35.27623047 168.85310547 36.76953125 168.89453125 C37.50558594 168.92933594 38.24164063 168.96414063 39 169 C39.15406575 164.14692884 39.23233198 161.35056309 35.8828125 157.6796875 C34.10790304 156.16811773 32.31837522 154.67356768 30.515625 153.1953125 C25.57291843 148.88195676 22.52419403 143.37390232 21 137 C20.97297544 135.00018259 20.96953262 132.99976792 21 131 C20.07058594 131.2165625 19.14117187 131.433125 18.18359375 131.65625 C16.94738281 131.9346875 15.71117187 132.213125 14.4375 132.5 C12.61025391 132.91765625 12.61025391 132.91765625 10.74609375 133.34375 C7 134 7 134 0 134 C0 89.78 0 45.56 0 0 Z " fill="#EFB06D" transform="translate(275,275)"/>
<path d="M0 0 C44.22 0 88.44 0 134 0 C134 44.22 134 88.44 134 134 C126.1454377 134 126.1454377 134 122.84375 133.08984375 C122.13089844 132.90486328 121.41804687 132.71988281 120.68359375 132.52929688 C119.22687381 132.13449711 117.77113693 131.73605216 116.31640625 131.33398438 C109.59767848 129.60266664 104.27879168 130.19962808 97.875 133 C86.748122 137.83468182 75.39850324 136.47588427 64 133 C46.60877126 125.99602392 30.04432043 114.95046366 14.18359375 105.00390625 C13.51851807 104.59003662 12.85344238 104.17616699 12.16821289 103.74975586 C10.54918672 102.73425503 8.94180831 101.70024135 7.3359375 100.6640625 C-2.00097356 96.00654012 -11.39765155 95.49920021 -21.6875 95.3125 C-22.97333984 95.27833984 -24.25917969 95.24417969 -25.58398438 95.20898438 C-28.72256889 95.12731117 -31.86090231 95.05790041 -35 95 C-34.94199219 95.59167969 -34.88398437 96.18335938 -34.82421875 96.79296875 C-34.58160946 101.04209719 -34.59268199 103.35013122 -36.90234375 107.03515625 C-41.20472733 109.76415869 -44.57588936 109.63119165 -49.5625 109.4375 C-50.41263672 109.43169922 -51.26277344 109.42589844 -52.13867188 109.41992188 C-56.30274448 109.33827339 -59.37346859 109.23311997 -63 107 C-64.50664551 103.98670898 -64.15604857 100.87425324 -64.16113281 97.56860352 C-64.16609772 96.80259827 -64.17106262 96.03659302 -64.17617798 95.24737549 C-64.19080937 92.70787668 -64.19760267 90.16844032 -64.203125 87.62890625 C-64.20887498 85.86775205 -64.21463273 84.10659788 -64.22039795 82.34544373 C-64.23091026 78.65078438 -64.23675164 74.95614681 -64.24023438 71.26147461 C-64.24572423 66.52210177 -64.26976166 61.78301549 -64.29820633 57.04373264 C-64.31680762 53.40552421 -64.32203693 49.7673852 -64.32357025 46.12913322 C-64.32660223 44.38158537 -64.33464906 42.63403889 -64.34775543 40.88653755 C-64.36476631 38.44439848 -64.36294829 36.00296491 -64.35644531 33.56079102 C-64.3656601 32.83601059 -64.37487488 32.11123016 -64.3843689 31.36448669 C-64.3599594 28.44563205 -64.33906546 26.48099134 -62.62799072 24.05369568 C-58.90292716 21.64269706 -53.78306664 22.48956622 -49.5 22.5 C-48.44167969 22.47164063 -47.38335937 22.44328125 -46.29296875 22.4140625 C-38.61635499 22.39455395 -38.61635499 22.39455395 -35.79296875 25.16796875 C-34.9418777 28.20757963 -34.69856842 30.66039293 -34.8125 33.8125 C-34.83957031 34.78832031 -34.86664063 35.76414062 -34.89453125 36.76953125 C-34.92933594 37.50558594 -34.96414062 38.24164063 -35 39 C-30.14692884 39.15406575 -27.35056309 39.23233198 -23.6796875 35.8828125 C-22.16811773 34.10790304 -20.67356768 32.31837522 -19.1953125 30.515625 C-14.88195676 25.57291843 -9.37390232 22.52419403 -3 21 C-1.00018259 20.97297544 1.00023208 20.96953262 3 21 C2.7834375 20.07058594 2.566875 19.14117187 2.34375 18.18359375 C2.0653125 16.94738281 1.786875 15.71117187 1.5 14.4375 C1.2215625 13.21933594 0.943125 12.00117188 0.65625 10.74609375 C0 7 0 7 0 0 Z " fill="#FBD4A8" transform="translate(103,275)"/>
<path d="M0 0 C0 44.22 0 88.44 0 134 C-44.22 134 -88.44 134 -134 134 C-134 126.125 -134 126.125 -132.90625 121.72265625 C-132.68066406 120.79775391 -132.45507812 119.87285156 -132.22265625 118.91992188 C-131.98417969 117.97697266 -131.74570313 117.03402344 -131.5 116.0625 C-131.26152344 115.09248047 -131.02304688 114.12246094 -130.77734375 113.12304688 C-130.19206612 110.74681968 -129.59946749 108.37267958 -129 106 C-128.34 106 -127.68 106 -127 106 C-126.64808594 104.09154297 -126.64808594 104.09154297 -126.2890625 102.14453125 C-125.05444254 96.61468792 -122.85264005 91.76133859 -120.375 86.6875 C-119.92697021 85.76251709 -119.47894043 84.83753418 -119.01733398 83.88452148 C-115.52672416 76.80832347 -111.74298513 70.32398017 -107 64 C-106.60232422 63.45859375 -106.20464844 62.9171875 -105.79492188 62.359375 C-94.44030323 46.96563248 -79.21412225 29.07261673 -61 22 C-60.99413376 22.66319244 -60.98826752 23.32638489 -60.98222351 24.00967407 C-60.91822292 30.92062848 -60.83378543 37.8311201 -60.73754883 44.74169922 C-60.70432219 47.3197621 -60.67628327 49.89789733 -60.65356445 52.47607422 C-60.61997793 56.18488354 -60.56765756 59.8930312 -60.51171875 63.6015625 C-60.50532883 64.75177887 -60.4989389 65.90199524 -60.49235535 67.08706665 C-60.35219145 74.96180554 -60.35219145 74.96180554 -57 82 C-52.03896761 86.47702923 -49.07449255 87.29959717 -42.5390625 87.21484375 C-37.66767875 86.80264974 -34.90687564 85.00491625 -31.6875 81.4375 C-29.43043206 78.17729076 -28.87630169 76.5552806 -28.87402344 72.64892578 C-28.87021667 71.7468338 -28.86640991 70.84474182 -28.86248779 69.91531372 C-28.86146057 68.93521332 -28.86043335 67.95511292 -28.859375 66.9453125 C-28.84102789 64.86457256 -28.82145587 62.78384312 -28.80078125 60.703125 C-28.77196823 57.42723109 -28.75000406 54.15200485 -28.74951172 50.87597656 C-28.72648613 29.23850418 -28.72648613 29.23850418 -24.17138672 20.34521484 C-22.41030444 16.81937984 -22.08560658 13.65868275 -21.6875 9.75 C-21.54699219 8.46609375 -21.40648437 7.1821875 -21.26171875 5.859375 C-21.13216797 4.44398437 -21.13216797 4.44398437 -21 3 C-18.81462633 2.49078672 -16.62657569 1.99305563 -14.4375 1.5 C-13.21933594 1.2215625 -12.00117188 0.943125 -10.74609375 0.65625 C-7 0 -7 0 0 0 Z " fill="#F96E84" transform="translate(237,103)"/>
<path d="M0 0 C26.60679051 2.04667619 52.97538113 13.45810768 74 30 C74.87914062 30.67546875 75.75828125 31.3509375 76.6640625 32.046875 C90.21956879 42.75064654 105.60317506 56.58842123 112 73 C111.32427948 73.00364563 110.64855896 73.00729126 109.95236206 73.01104736 C102.91157795 73.05289738 95.87144418 73.12226138 88.83105469 73.20751953 C86.20449329 73.23572378 83.5778471 73.25694096 80.95117188 73.27099609 C77.17273566 73.292432 73.39531837 73.33908948 69.6171875 73.390625 C68.44509735 73.39185364 67.2730072 73.39308228 66.06539917 73.39434814 C59.7576897 73.50734961 55.76525011 73.70703517 51 78 C47.03687498 82.38029608 46.42268923 85.89620084 46.6796875 91.6015625 C47.31786976 96.38014673 49.02654903 99.12151985 52.5625 102.3125 C55.83525565 104.57825391 57.47565198 105.12485459 61.39868164 105.1418457 C62.3104567 105.14888016 63.22223175 105.15591461 64.16163635 105.16316223 C65.15114792 105.16732651 66.14065948 105.17149078 67.16015625 105.17578125 C69.25456718 105.19899441 71.34896823 105.22311234 73.44335938 105.24804688 C76.74575251 105.28305112 80.0477864 105.31243991 83.3503418 105.32592773 C86.53739197 105.34149301 89.72338784 105.38177458 92.91015625 105.42578125 C93.8854982 105.42387283 94.86084015 105.42196442 95.86573792 105.41999817 C102.47746884 105.53675651 107.14662235 107.02255691 113 110 C118.92468567 112.08461162 124.776407 112.572339 131 113 C131.50921328 115.18537367 132.00694437 117.37342431 132.5 119.5625 C132.91765625 121.38974609 132.91765625 121.38974609 133.34375 123.25390625 C134 127 134 127 134 134 C89.78 134 45.56 134 0 134 C0 89.78 0 45.56 0 0 Z " fill="#FEE076" transform="translate(275,103)"/>
<path d="M0 0 C44.22 0 88.44 0 134 0 C134 5.86900234 133.51972977 10.29387437 132.25 15.875 C132.09273437 16.62652344 131.93546875 17.37804687 131.7734375 18.15234375 C130.51313151 23.80433136 128.45415926 28.77257189 126 34 C125.37474998 35.43904694 124.75489664 36.88045144 124.140625 38.32421875 C115.8281502 57.60715096 105.42102898 73.70340855 91 89 C90.34 89.72445312 89.68 90.44890625 89 91.1953125 C84.31059187 96.15116428 79.17923945 100.33164151 73.75 104.4375 C73.06413818 104.95812012 72.37827637 105.47874023 71.67163086 106.01513672 C71.01171143 106.50385254 70.35179199 106.99256836 69.671875 107.49609375 C68.79160645 108.14856079 68.79160645 108.14856079 67.89355469 108.81420898 C65.68919456 110.19463409 63.42002507 111.0591944 61 112 C60.99453156 110.98641922 60.99453156 110.98641922 60.98895264 109.95236206 C60.94710262 102.91157795 60.87773862 95.87144418 60.79248047 88.83105469 C60.76427622 86.20449329 60.74305904 83.5778471 60.72900391 80.95117188 C60.707568 77.17273566 60.66091052 73.39531837 60.609375 69.6171875 C60.60814636 68.44509735 60.60691772 67.2730072 60.60565186 66.06539917 C60.49279122 59.76555099 60.28541858 55.76480099 56 51 C51.49878305 47.0443851 47.31168601 46.6465718 41.50390625 46.72265625 C36.57730191 47.26834877 33.9772121 49.86062702 30.86523438 53.48901367 C28.3210631 58.27798318 28.46886962 62.21151489 28.53125 67.55078125 C28.52420044 68.56416061 28.51715088 69.57753998 28.5098877 70.62162781 C28.48049883 74.93791006 28.49698471 79.25373645 28.50927734 83.57006836 C28.51167004 86.73057588 28.49067331 89.89036343 28.46875 93.05078125 C28.48006958 94.01357498 28.49138916 94.97636871 28.50305176 95.96833801 C28.46029045 101.75284842 27.52358464 105.90025278 24.94091797 111.07972717 C23.85128571 113.30350362 23.31540866 115.37099151 22.953125 117.81640625 C22.83066406 118.59951172 22.70820313 119.38261719 22.58203125 120.18945312 C22.47246094 120.97255859 22.36289062 121.75566406 22.25 122.5625 C22.12496094 123.38041016 21.99992187 124.19832031 21.87109375 125.04101562 C21.56933723 127.02564506 21.28299427 129.01260843 21 131 C18.81462633 131.50921328 16.62657569 132.00694437 14.4375 132.5 C12.61025391 132.91765625 12.61025391 132.91765625 10.74609375 133.34375 C7 134 7 134 0 134 C0 89.78 0 45.56 0 0 Z " fill="#C89D8C" transform="translate(275,275)"/>
<path d="M0 0 C44.22 0 88.44 0 134 0 C134 44.22 134 88.44 134 134 C100.14379195 134 64.79080257 111.13368394 41.64282227 88.02001953 C37.39544313 83.62284659 33.60244098 78.9037099 29.875 74.0625 C29.31828613 73.340625 28.76157227 72.61875 28.18798828 71.875 C25.5121685 68.31500352 23.6179034 65.16932781 22 61 C22.66319244 60.99413376 23.32638489 60.98826752 24.00967407 60.98222351 C30.92062848 60.91822292 37.8311201 60.83378543 44.74169922 60.73754883 C47.3197621 60.70432219 49.89789733 60.67628327 52.47607422 60.65356445 C56.18488354 60.61997793 59.8930312 60.56765756 63.6015625 60.51171875 C64.75177887 60.50532883 65.90199524 60.4989389 67.08706665 60.49235535 C74.96050911 60.34996679 74.96050911 60.34996679 82 57 C86.58489498 52.04335678 87.36331663 48.06650268 87.27734375 41.50390625 C86.73156061 36.5764838 84.13916904 33.97617543 80.50878906 30.86523438 C75.72955815 28.32464683 71.81330392 28.46878816 66.484375 28.53125 C64.96786346 28.52067566 64.96786346 28.52067566 63.42071533 28.5098877 C59.11546463 28.48051391 54.81067141 28.49696723 50.50537109 28.50927734 C47.35226974 28.51167368 44.19988675 28.49065243 41.046875 28.46875 C40.08924255 28.48006958 39.13161011 28.49138916 38.1449585 28.50305176 C32.1887653 28.4590177 27.63131435 27.43193791 22.19586182 24.9744873 C16.09576412 22.26736442 9.58936636 21.57962019 3 21 C2.49078672 18.81462633 1.99305563 16.62657569 1.5 14.4375 C1.2215625 13.21933594 0.943125 12.00117188 0.65625 10.74609375 C0 7 0 7 0 0 Z " fill="#19CEB9" transform="translate(103,275)"/>
<path d="M0 0 C18.15 0 36.3 0 55 0 C55 1.98 55 3.96 55 6 C56.8253125 5.9071875 56.8253125 5.9071875 58.6875 5.8125 C62.58249203 5.80559399 64.87690125 6.53937675 68 9 C69.75354414 12.50708827 69.18464284 16.51211749 69.1875 20.375 C69.19974609 21.23867188 69.21199219 22.10234375 69.22460938 22.9921875 C69.22654297 23.8275 69.22847656 24.6628125 69.23046875 25.5234375 C69.23457764 26.28575684 69.23868652 27.04807617 69.24291992 27.83349609 C68.96587619 30.30433641 68.31086798 31.89581051 67 34 C63.98670898 35.50664551 60.87425324 35.15604857 57.56860352 35.16113281 C56.41959564 35.16858017 56.41959564 35.16858017 55.24737549 35.17617798 C52.70787668 35.19080937 50.16844032 35.19760267 47.62890625 35.203125 C45.86775205 35.20887498 44.10659788 35.21463273 42.34544373 35.22039795 C38.65078438 35.23091026 34.95614681 35.23675164 31.26147461 35.24023438 C26.52210177 35.24572423 21.78301549 35.26976166 17.04373264 35.29820633 C13.40552421 35.31680762 9.7673852 35.32203693 6.12913322 35.32357025 C4.38158537 35.32660223 2.63403889 35.33464906 0.88653755 35.34775543 C-1.55560152 35.36476631 -3.99703509 35.36294829 -6.43920898 35.35644531 C-7.16398941 35.3656601 -7.88876984 35.37487488 -8.63551331 35.3843689 C-11.55436795 35.3599594 -13.51900866 35.33906546 -15.94630432 33.62799072 C-18.35730294 29.90292716 -17.51043378 24.78306664 -17.5 20.5 C-17.52835937 19.44167969 -17.55671875 18.38335937 -17.5859375 17.29296875 C-17.6054232 9.62534572 -17.6054232 9.62534572 -14.86328125 6.79296875 C-11.65741412 5.90512287 -9.01157099 5.70291524 -5.6875 5.8125 C-4.08455078 5.85310547 -4.08455078 5.85310547 -2.44921875 5.89453125 C-1.64097656 5.92933594 -0.83273437 5.96414063 0 6 C0 4.02 0 2.04 0 0 Z " fill="#A37767" transform="translate(315,438)"/>
<path d="M0 0 C1.05832031 -0.02835937 2.11664063 -0.05671875 3.20703125 -0.0859375 C4.22152344 -0.08851563 5.23601563 -0.09109375 6.28125 -0.09375 C7.21001953 -0.10083984 8.13878906 -0.10792969 9.09570312 -0.11523438 C11.5 0.5 11.5 0.5 13.12402344 2.57189941 C14.78584025 6.10827273 14.93630031 9.13752337 14.91992188 12.96484375 C14.92839142 13.69881378 14.93686096 14.43278381 14.94558716 15.18899536 C14.96890895 17.60534175 14.96998066 20.02104977 14.96875 22.4375 C14.97585353 24.12231703 14.98355281 25.80713164 14.99182129 27.49194336 C15.00525426 31.01911144 15.00683979 34.54605571 15.00097656 38.07324219 C14.99507555 42.58955353 15.02569322 47.1047917 15.06609344 51.62089539 C15.09195989 55.09881357 15.09484897 58.57647277 15.09120178 62.05447388 C15.09289343 63.7194387 15.10254035 65.38441542 15.12034607 67.04928589 C15.1425213 69.37863814 15.13284486 71.7058105 15.11523438 74.03515625 C15.13512924 75.06239304 15.13512924 75.06239304 15.15542603 76.11038208 C15.08839811 79.93229837 14.55769214 81.42952867 12.10206604 84.42909241 C9.37894498 86.59634412 8.39317809 87.11999792 4.99609375 87.05859375 C4.17302734 87.05150391 3.34996094 87.04441406 2.50195312 87.03710938 C1.23254883 86.98780273 1.23254883 86.98780273 -0.0625 86.9375 C-0.91263672 86.93169922 -1.76277344 86.92589844 -2.63867188 86.91992188 C-6.80274448 86.83827339 -9.87346859 86.73311997 -13.5 84.5 C-15.00664551 81.48670898 -14.65604857 78.37425324 -14.66113281 75.06860352 C-14.66609772 74.30259827 -14.67106262 73.53659302 -14.67617798 72.74737549 C-14.69080937 70.20787668 -14.69760267 67.66844032 -14.703125 65.12890625 C-14.70887498 63.36775205 -14.71463273 61.60659788 -14.72039795 59.84544373 C-14.73091026 56.15078438 -14.73675164 52.45614681 -14.74023438 48.76147461 C-14.74572423 44.02210177 -14.76976166 39.28301549 -14.79820633 34.54373264 C-14.81680762 30.90552421 -14.82203693 27.2673852 -14.82357025 23.62913322 C-14.82660223 21.88158537 -14.83464906 20.13403889 -14.84775543 18.38653755 C-14.86476631 15.94439848 -14.86294829 13.50296491 -14.85644531 11.06079102 C-14.8656601 10.33601059 -14.87487488 9.61123016 -14.8843689 8.86448669 C-14.8599594 5.94563205 -14.83906546 3.98099134 -13.12799072 1.55369568 C-9.40292716 -0.85730294 -4.28306664 -0.01043378 0 0 Z " fill="#00BEA9" transform="translate(53.5,297.5)"/>
<path d="M0 0 C0.82306641 0.00708984 1.64613281 0.01417969 2.49414062 0.02148438 C3.34041016 0.05435547 4.18667969 0.08722656 5.05859375 0.12109375 C5.90873047 0.12689453 6.75886719 0.13269531 7.63476562 0.13867188 C11.79883823 0.22032036 14.86956234 0.32547378 18.49609375 2.55859375 C20.00273926 5.57188477 19.65214232 8.68434051 19.65722656 11.98999023 C19.66219147 12.75599548 19.66715637 13.52200073 19.67227173 14.31121826 C19.68690312 16.85071707 19.69369642 19.39015343 19.69921875 21.9296875 C19.70496873 23.6908417 19.71072648 25.45199587 19.7164917 27.21315002 C19.72700401 30.90780937 19.73284539 34.60244694 19.73632812 38.29711914 C19.74181798 43.03649198 19.76585541 47.77557826 19.79430008 52.51486111 C19.81290137 56.15306954 19.81813068 59.79120855 19.819664 63.42946053 C19.82269598 65.17700838 19.83074281 66.92455486 19.84384918 68.6720562 C19.86086006 71.11419527 19.85904204 73.55562884 19.85253906 75.99780273 C19.86175385 76.72258316 19.87096863 77.44736359 19.88046265 78.19410706 C19.85605315 81.1129617 19.83515921 83.07760241 18.12408447 85.50489807 C14.39902091 87.91589669 9.27916039 87.06902753 4.99609375 87.05859375 C3.93777344 87.08695312 2.87945312 87.1153125 1.7890625 87.14453125 C0.77457031 87.14710938 -0.23992187 87.1496875 -1.28515625 87.15234375 C-2.67831055 87.16297852 -2.67831055 87.16297852 -4.09960938 87.17382812 C-6.50390625 86.55859375 -6.50390625 86.55859375 -8.12792969 84.48669434 C-9.7897465 80.95032102 -9.94020656 77.92107038 -9.92382812 74.09375 C-9.93229767 73.35977997 -9.94076721 72.62580994 -9.94949341 71.86959839 C-9.9728152 69.453252 -9.97388691 67.03754398 -9.97265625 64.62109375 C-9.97975978 62.93627672 -9.98745906 61.25146211 -9.99572754 59.56665039 C-10.00916051 56.03948231 -10.01074604 52.51253804 -10.00488281 48.98535156 C-9.9989818 44.46904022 -10.02959947 39.95380205 -10.06999969 35.43769836 C-10.09586614 31.95978018 -10.09875522 28.48212098 -10.09510803 25.00411987 C-10.09679968 23.33915505 -10.1064466 21.67417833 -10.12425232 20.00930786 C-10.14642755 17.67995561 -10.13675111 15.35278325 -10.11914062 13.0234375 C-10.13240387 12.33861298 -10.14566711 11.65378845 -10.15933228 10.94821167 C-10.09230436 7.12629538 -9.56159839 5.62906508 -7.10597229 2.62950134 C-4.38285123 0.46224963 -3.39708434 -0.06140417 0 0 Z " fill="#FFE076" transform="translate(453.50390625,127.44140625)"/>
<path d="M0 0 C0.76600525 -0.0049649 1.5320105 -0.00992981 2.32122803 -0.01504517 C4.86072683 -0.02967656 7.4001632 -0.03646986 9.93969727 -0.04199219 C11.70085147 -0.04774217 13.46200564 -0.05349992 15.22315979 -0.05926514 C18.91781914 -0.06977745 22.6124567 -0.07561883 26.30712891 -0.07910156 C31.04650174 -0.08459142 35.78558802 -0.10862885 40.52487087 -0.13707352 C44.16307931 -0.1556748 47.80121831 -0.16090412 51.43947029 -0.16243744 C53.18701815 -0.16546942 54.93456463 -0.17351625 56.68206596 -0.18662262 C59.12420504 -0.2036335 61.5656386 -0.20181548 64.0078125 -0.1953125 C64.73259293 -0.20452728 65.45737335 -0.21374207 66.20411682 -0.22323608 C69.12297147 -0.19882659 71.08761218 -0.17793265 73.51490784 1.53314209 C75.92590645 5.25820566 75.0790373 10.37806617 75.06860352 14.66113281 C75.09696289 15.71945313 75.12532227 16.77777344 75.15454102 17.86816406 C75.1584082 19.38990234 75.1584082 19.38990234 75.16235352 20.94238281 C75.16944336 21.87115234 75.1765332 22.79992187 75.18383789 23.75683594 C74.56860352 26.16113281 74.56860352 26.16113281 72.4909668 27.78713989 C68.85706981 29.49567105 66.20808634 29.54198434 62.19555664 29.54931641 C61.10923195 29.55720184 61.10923195 29.55720184 60.0009613 29.56524658 C57.61703659 29.57840515 55.23378453 29.56972361 52.84985352 29.55957031 C51.18745801 29.56159225 49.52506337 29.56450469 47.8626709 29.56826782 C44.38256364 29.57268555 40.90268774 29.56627799 37.42260742 29.55224609 C32.96706983 29.53515441 28.51207441 29.54499857 24.0565567 29.56296349 C20.62497897 29.5738163 17.19352927 29.57034813 13.76194763 29.56258011 C12.11933833 29.56058224 10.47671732 29.56302286 8.8341217 29.57001877 C6.53631909 29.57765808 4.23938826 29.56599528 1.94165039 29.54931641 C-0.0176239 29.54573624 -0.0176239 29.54573624 -2.01647949 29.54208374 C-5.64924623 29.13683059 -7.54458402 28.35986044 -10.43139648 26.16113281 C-12.18494062 22.65404454 -11.61603932 18.64901532 -11.61889648 14.78613281 C-11.63114258 13.92246094 -11.64338867 13.05878906 -11.65600586 12.16894531 C-11.65793945 11.33363281 -11.65987305 10.49832031 -11.66186523 9.63769531 C-11.66802856 8.49421631 -11.66802856 8.49421631 -11.67431641 7.32763672 C-11.39727267 4.8567964 -10.74226446 3.2653223 -9.43139648 1.16113281 C-6.41810546 -0.3455127 -3.30564973 0.00508424 0 0 Z " fill="#FA6E85" transform="translate(139.431396484375,38.8388671875)"/>
<path d="M0 0 C0.00586624 0.66319244 0.01173248 1.32638489 0.01777649 2.00967407 C0.08177708 8.92062848 0.16621457 15.8311201 0.26245117 22.74169922 C0.29567781 25.3197621 0.32371673 27.89789733 0.34643555 30.47607422 C0.38002207 34.18488354 0.43234244 37.8930312 0.48828125 41.6015625 C0.49467117 42.75177887 0.5010611 43.90199524 0.50764465 45.08706665 C0.63557984 52.0717224 1.17252781 56.91548489 6.0625 62.25 C10.16532154 64.69423411 14.31755183 65.30899794 19 66 C17.41093761 69.65407583 15.65056541 71.35251043 12.05859375 73.234375 C7.69958965 74.85556059 3.38032049 74.87449888 -0.98828125 73.26953125 C-6.27982029 70.49345616 -9.70204998 66.44070316 -12 61 C-12.30780029 58.51603699 -12.30780029 58.51603699 -12.38574219 55.69995117 C-12.41786804 54.64172653 -12.4499939 53.58350189 -12.48309326 52.49320984 C-12.57232994 47.66599653 -12.65408825 42.83932 -12.70019531 38.01147461 C-12.73333333 35.46715734 -12.78794149 32.92302702 -12.86425781 30.37963867 C-12.97391618 26.70393799 -13.01754361 23.0325854 -13.046875 19.35546875 C-13.09221375 18.22296188 -13.13755249 17.09045502 -13.18426514 15.92362976 C-13.14298443 8.19133712 -13.14298443 8.19133712 -9.77307129 4.67886353 C-3.26585547 0 -3.26585547 0 0 0 Z " fill="#E34266" transform="translate(176,125)"/>
<path d="M0 0 C5.22305411 0.07440248 8.95992729 0.85267727 12.75 4.71484375 C15.93157622 8.41161839 17.40894619 10.75853003 17.61645508 15.55688477 C17.65511185 16.44863907 17.69376862 17.34039337 17.7335968 18.25917053 C17.8712234 22.35888994 17.96973644 26.45853126 18.04711914 30.55981445 C18.09875623 32.71643178 18.17370346 34.87262539 18.27270508 37.02758789 C19.05912067 54.46404263 19.05912067 54.46404263 16.12493896 59.14422607 C13.0398297 62.45332992 9.50311661 64.53160898 5.3125 66.25 C4.6525 66.25 3.9925 66.25 3.3125 66.25 C3.30885437 65.57427948 3.30520874 64.89855896 3.30145264 64.20236206 C3.25960262 57.16157795 3.19023862 50.12144418 3.10498047 43.08105469 C3.07677622 40.45449329 3.05555904 37.8278471 3.04150391 35.20117188 C3.020068 31.42273566 2.97341052 27.64531837 2.921875 23.8671875 C2.92064636 22.69509735 2.91941772 21.5230072 2.91815186 20.31539917 C2.7726757 12.19496175 1.63804125 8.76029354 -3.9375 2.875 C-4.515 2.33875 -5.0925 1.8025 -5.6875 1.25 C-4.05737162 -0.38012838 -2.24312555 0.04023544 0 0 Z " fill="#A47867" transform="translate(332.6875,320.75)"/>
<path d="M0 0 C1.34708794 -0.04346054 1.34708794 -0.04346054 2.72138977 -0.08779907 C6.81566407 -0.18583247 10.90979565 -0.25927001 15.00488281 -0.31347656 C17.16118851 -0.35017549 19.31726583 -0.40478464 21.47265625 -0.47753906 C24.59220913 -0.58115014 27.70784763 -0.6254248 30.82885742 -0.65771484 C32.26513237 -0.72268661 32.26513237 -0.72268661 33.73042297 -0.78897095 C37.96012265 -0.77709577 40.42958134 -0.64932027 43.64804077 2.25177002 C48.43432617 8.23535743 48.43432617 8.23535743 48.43432617 11.25634766 C47.75860565 11.25999329 47.08288513 11.26363892 46.38668823 11.26739502 C39.34590412 11.30924503 32.30577035 11.37860904 25.26538086 11.46386719 C22.63881946 11.49207144 20.01217327 11.51328862 17.38549805 11.52734375 C13.60706183 11.54877966 9.82964454 11.59543714 6.05151367 11.64697266 C4.87942352 11.64820129 3.70733337 11.64942993 2.49972534 11.6506958 C-3.78574352 11.76329883 -7.84863634 11.92156129 -12.56567383 16.25634766 C-13.95923147 18.21486109 -15.3084993 20.20761879 -16.56567383 22.25634766 C-16.89567383 22.25634766 -17.22567383 22.25634766 -17.56567383 22.25634766 C-18.18896869 12.52602237 -18.18896869 12.52602237 -15.87817383 7.81884766 C-10.91370099 2.31767505 -7.31291464 0.2315531 0 0 Z " fill="#FDBD31" transform="translate(338.565673828125,164.74365234375)"/>
<path d="M0 0 C0.33 0 0.66 0 1 0 C1.28944223 5.59588314 1.20887163 9.18669255 -2 14 C-6.16108903 18.20656542 -9.73703446 20.0839694 -15.65161133 20.24047852 C-17.06371635 20.27909752 -17.06371635 20.27909752 -18.50434875 20.3184967 C-22.80427378 20.40289674 -27.10403563 20.46848985 -31.40454102 20.51489258 C-33.67142646 20.54655979 -35.9381456 20.59434184 -38.2043457 20.65844727 C-41.4767061 20.7497235 -44.74608997 20.78850542 -48.01953125 20.81640625 C-49.02909378 20.85455948 -50.03865631 20.89271271 -51.07881165 20.93202209 C-57.95907557 20.91303929 -57.95907557 20.91303929 -61.01351929 18.2338562 C-65 13.08647926 -65 13.08647926 -65 10 C-64.00521133 9.99120064 -64.00521133 9.99120064 -62.99032593 9.98222351 C-56.07937152 9.91822292 -49.1688799 9.83378543 -42.25830078 9.73754883 C-39.6802379 9.70432219 -37.10210267 9.67628327 -34.52392578 9.65356445 C-30.81511646 9.61997793 -27.1069688 9.56765756 -23.3984375 9.51171875 C-22.24822113 9.50532883 -21.09800476 9.4989389 -19.91293335 9.49235535 C-13.43840242 9.37376392 -8.23517369 9.15832871 -3.35546875 4.39453125 C-2.77732422 3.61142578 -2.77732422 3.61142578 -2.1875 2.8125 C-1.465625 1.884375 -0.74375 0.95625 0 0 Z " fill="#06BFA9" transform="translate(190,326)"/>
<path d="M0 0 C3.63 0 7.26 0 11 0 C11 18.48 11 36.96 11 56 C7.37 56 3.74 56 0 56 C0 37.52 0 19.04 0 0 Z " fill="#EEB372" transform="translate(67,314)"/>
<path d="M0 0 C2.97 0 5.94 0 9 0 C9 18.15 9 36.3 9 55 C6.03 55 3.06 55 0 55 C0 36.85 0 18.7 0 0 Z " fill="#B87D42" transform="translate(435,142)"/>
<path d="M0 0 C18.15 0 36.3 0 55 0 C55 2.64 55 5.28 55 8 C36.85 8 18.7 8 0 8 C0 5.36 0 2.72 0 0 Z " fill="#CF8B49" transform="translate(142,67)"/>
<path d="M0 0 C18.15 0 36.3 0 55 0 C55 2.31 55 4.62 55 7 C36.52 7 18.04 7 -1 7 C-0.67 4.69 -0.34 2.38 0 0 Z " fill="#CE8B48" transform="translate(315,438)"/>
</svg>
