<?xml version="1.0" encoding="UTF-8"?>
<svg version="1.1" xmlns="http://www.w3.org/2000/svg" width="512" height="512">
<path d="M0 0 C1.2912957 -0.00623996 2.5825914 -0.01247993 3.91301727 -0.01890898 C7.49091668 -0.03559624 11.06838894 -0.02735899 14.64628983 -0.0149641 C18.50730523 -0.00591335 22.36824722 -0.01988344 26.22924805 -0.03088379 C33.79042942 -0.04867337 41.35145201 -0.0448271 48.91263962 -0.03323323 C55.05757704 -0.0242009 61.20246995 -0.02297403 67.34741211 -0.02732849 C68.65911542 -0.02824789 68.65911542 -0.02824789 69.99731779 -0.02918586 C71.77376621 -0.03046476 73.55021462 -0.03176161 75.32666302 -0.03307623 C91.9857319 -0.04448331 108.64471276 -0.03136631 125.3037672 -0.00987476 C139.59903993 0.00799634 153.89418274 0.00489227 168.18945312 -0.0135498 C184.78877146 -0.03495426 201.38801263 -0.04338466 217.98734283 -0.03110075 C219.75726826 -0.02982655 221.52719369 -0.02856907 223.29711914 -0.02732849 C224.60338611 -0.02640284 224.60338611 -0.02640284 225.93604231 -0.02545848 C232.07383545 -0.02200431 238.21157967 -0.02783539 244.34936523 -0.0372467 C251.8289694 -0.04846334 259.30840565 -0.04543375 266.78799057 -0.02412373 C270.60447176 -0.01360872 274.42067296 -0.00949895 278.2371521 -0.02272034 C282.3731891 -0.0368321 286.50851866 -0.01998656 290.64453125 0 C291.85250114 -0.00892289 293.06047104 -0.01784577 294.30504608 -0.02703905 C300.61553445 0.03231594 304.55536639 0.21053482 309.32226562 4.50793457 C314.53333417 9.98768844 313.89823135 15.98580778 313.86816406 23.12268066 C313.87850174 24.391521 313.88883942 25.66036133 313.89949036 26.96765137 C313.92728748 30.43421498 313.93075646 33.90042135 313.92977047 37.36708021 C313.93290504 40.99464841 313.95853449 44.62205699 313.98175049 48.24954224 C314.02227259 55.1129548 314.04264222 61.97627244 314.05572438 68.83978617 C314.07160733 76.65606475 314.11002835 84.47218209 314.15031767 92.28836703 C314.23266468 108.36150982 314.28678917 124.43461854 314.32226562 140.50793457 C315.64226562 139.18793457 316.96226562 137.86793457 318.32226562 136.50793457 C330.34982545 143.25816496 342.3439506 150.0620043 354.25976562 157.00793457 C355.24654297 157.58237305 356.23332031 158.15681152 357.25 158.74865723 C362.66605719 161.91421087 368.02118144 165.15329334 373.32226562 168.50793457 C372.06465493 172.61690744 370.5425037 176.16200443 368.37304688 179.86730957 C367.48359375 181.39678223 367.48359375 181.39678223 366.57617188 182.95715332 C365.93550781 184.04641113 365.29484375 185.13566895 364.63476562 186.25793457 C363.95969923 187.41514429 363.28523101 188.57270314 362.61132812 189.73059082 C361.21210757 192.13364039 359.81033627 194.53517377 358.40673828 196.93566895 C355.1877714 202.44580367 352.0072117 207.97809302 348.82226562 213.50793457 C347.57629332 215.66685883 346.33019908 217.82571273 345.08398438 219.98449707 C342.54017292 224.39323988 340.00172213 228.80501435 337.46679688 233.21887207 C336.82484375 234.3352002 336.18289063 235.45152832 335.52148438 236.60168457 C334.32856105 238.67633383 333.13697952 240.75175569 331.94726562 242.82824707 C331.10615234 244.29004395 331.10615234 244.29004395 330.24804688 245.78137207 C329.69244583 246.79080872 329.13684479 247.80024536 328.56440735 248.840271 C327.0364757 251.48485433 325.32943169 253.74966469 323.35783386 256.07891846 C310.57466198 272.29817474 312.73805417 291.53518716 313.03533554 311.08931875 C313.09779318 316.11788829 313.08790692 321.14631962 313.08520508 326.17520142 C313.09010782 335.67363583 313.15232501 345.17068791 313.23882198 354.66869652 C313.3920938 371.7097018 313.44624356 388.75119802 313.47960854 405.79281247 C313.4935886 411.76598464 313.53277934 417.73831047 313.59331417 423.71118712 C313.62779272 427.41745776 313.64645101 431.12369847 313.66157722 434.83009338 C313.67221551 436.54663546 313.68983008 438.26315075 313.71496391 439.97954178 C313.74853487 442.32385316 313.75741489 444.66704528 313.76049805 447.01156616 C313.77834602 448.97750134 313.77834602 448.97750134 313.79655457 450.98315239 C313.06799216 456.39762356 310.72874616 459.2024258 306.79596519 462.85287094 C301.76210032 465.25128408 297.25295641 465.04756276 291.74307251 464.98895264 C290.57004999 464.99237034 289.39702746 464.99578804 288.1884588 464.9993093 C284.94092583 465.00475194 281.69403402 464.992278 278.44657683 464.97219706 C274.94153755 464.9549032 271.43652748 464.96077012 267.93145752 464.96380615 C261.86151698 464.9659023 255.79174859 464.95336556 249.72185135 464.9308548 C240.94585783 464.89832944 232.16994746 464.88792724 223.3939002 464.88290283 C209.15496832 464.87415101 194.91612817 464.84753852 180.67724609 464.80969238 C166.84652159 464.77296936 153.01582201 464.74465903 139.18505859 464.72766113 C138.3323542 464.72661024 137.47964981 464.72555934 136.60110588 464.72447661 C132.32328547 464.71925641 128.04546488 464.71420159 123.76764417 464.70922899 C88.28578593 464.66777049 52.80403425 464.59732515 17.32226562 464.50793457 C17.32226562 467.14793457 17.32226562 469.78793457 17.32226562 472.50793457 C-16.99773437 472.50793457 -51.31773438 472.50793457 -86.67773438 472.50793457 C-85.55757274 461.30631824 -85.55757274 461.30631824 -84.48632812 456.55480957 C-84.26396484 455.52227051 -84.04160156 454.48973145 -83.8125 453.42590332 C-83.35075333 451.32799547 -82.88209249 449.23159648 -82.40625 447.13684082 C-79.29330332 432.52505027 -81.02982089 418.39741286 -82.71488953 403.72027397 C-83.09182827 400.43567764 -83.4589939 397.15010986 -83.82385254 393.864151 C-84.59994337 386.890274 -85.38810487 379.91778972 -86.17773438 372.94543457 C-87.09367708 364.85328234 -88.00449786 356.76060933 -88.9037323 348.66658211 C-89.26347783 345.45060361 -89.63181656 342.23568817 -90.00061035 339.02073669 C-95.32823356 291.72490231 -78.99485652 257.78945456 -55.31835938 217.97668457 C-51.38879164 211.35588402 -47.5690691 204.67087593 -43.73242188 197.99597168 C-43.15234375 196.98800537 -42.57226562 195.98003906 -41.97460938 194.94152832 C-41.37742096 193.86317719 -40.78023254 192.78482605 -40.16494751 191.67379761 C-38.37524891 188.55287041 -36.3735159 185.68371922 -34.24642944 182.78361511 C-22.17091671 165.52754679 -21.74522371 150.61094513 -22.18801641 130.37691832 C-22.26359676 126.17192351 -22.25427557 121.96705709 -22.25393677 117.76150513 C-22.26498055 109.83169728 -22.34330564 101.90423016 -22.45025265 93.97519171 C-22.63955297 79.73696947 -22.70174986 65.49771179 -22.75373662 51.25841963 C-22.77451347 46.27190237 -22.82193618 41.28655515 -22.89252734 36.30050063 C-22.93341222 33.20938376 -22.95857809 30.11826402 -22.98045921 27.02696037 C-22.99427291 25.5974216 -23.01509161 24.16793031 -23.04351616 22.73860741 C-23.28029243 10.6083379 -23.28029243 10.6083379 -21.03250122 6.86135864 C-14.25019489 0.08291982 -9.4242902 -0.06961421 0 0 Z " fill="#E5E6E7" transform="translate(110.677734375,23.4920654296875)"/>
<path d="M0 0 C0.33 0 0.66 0 1 0 C1.33 43.89 1.66 87.78 2 133 C9.89720935 119.58621689 9.89720935 119.58621689 17.70458984 106.12231445 C18.94641962 103.96270593 20.19176878 101.80511873 21.43994141 99.64916992 C24.29210329 94.72221975 27.12896929 89.79210027 29.8671875 84.80078125 C34.64179558 76.19181233 39.10436209 68.29854597 49 65 C58.53135612 64.33022903 65.03526658 64.77514281 72.6875 70.6875 C78.00613662 75.59885364 80.20679219 80.5995171 80.875 87.8125 C80.55663243 97.64778394 74.87537957 105.75740326 70 114 C69.15245306 115.46545664 68.30605508 116.93157852 67.4609375 118.3984375 C64.09173854 124.20349874 60.64953571 129.95920502 57.11328125 135.6640625 C56.64470703 136.43153809 56.17613281 137.19901367 55.69335938 137.98974609 C54.79434753 139.46128989 53.88342942 140.92564686 52.95898438 142.38134766 C52.55615234 143.04440918 52.15332031 143.7074707 51.73828125 144.390625 C51.37774658 144.96844727 51.01721191 145.54626953 50.64575195 146.14160156 C49.11756546 150.53954318 51.73900146 155.12183692 53.3984375 159.19140625 C53.87796875 160.38443359 54.3575 161.57746094 54.8515625 162.80664062 C55.85493617 165.28505108 56.86429241 167.76088415 57.875 170.23632812 C63.01115957 183.04239443 65.52762297 193.97380704 65.375 207.8125 C65.37034729 208.473638 65.36569458 209.134776 65.36090088 209.81594849 C65.28061064 219.54121349 64.95716113 228.67181219 62 238 C61.65582031 239.12535156 61.31164062 240.25070312 60.95703125 241.41015625 C58.79753534 247.51654623 56.35743881 252.64047422 52.53125 257.8984375 C39.1705063 276.93478168 41.81654583 282.05398756 41 309 C6.68 309 -27.64 309 -63 309 C-61.87983837 297.79838367 -61.87983837 297.79838367 -60.80859375 293.046875 C-60.58623047 292.01433594 -60.36386719 290.98179687 -60.13476562 289.91796875 C-59.67301895 287.8200609 -59.20435812 285.72366191 -58.72851562 283.62890625 C-55.61556894 269.0171157 -57.35208651 254.88947829 -59.03715515 240.2123394 C-59.41409389 236.92774307 -59.78125952 233.64217529 -60.14611816 230.35621643 C-60.922209 223.38233943 -61.7103705 216.40985515 -62.5 209.4375 C-63.4159427 201.34534777 -64.32676348 193.25267476 -65.22599792 185.15864754 C-65.58574345 181.94266904 -65.95408218 178.7277536 -66.32287598 175.51280212 C-71.65049919 128.21696774 -55.31712215 94.28151999 -31.640625 54.46875 C-28.28974712 48.82296512 -25.02524122 43.12736851 -21.75 37.4375 C-19.16748433 32.95786158 -16.58373133 28.47893734 -14 24 C-13.66689819 23.42207703 -13.33379639 22.84415405 -12.99060059 22.24871826 C-10.70742771 18.28769476 -8.4175919 14.33058268 -6.125 10.375 C-5.52397461 9.33142334 -4.92294922 8.28784668 -4.30371094 7.21264648 C-3.75231445 6.26333252 -3.20091797 5.31401855 -2.6328125 4.3359375 C-2.14699707 3.49595215 -1.66118164 2.6559668 -1.16064453 1.79052734 C-0.58612549 0.90421631 -0.58612549 0.90421631 0 0 Z " fill="#FEC477" transform="translate(87,187)"/>
<path d="M0 0 C0.93587779 -0.00638882 1.87175557 -0.01277764 2.83599329 -0.01936007 C5.97390081 -0.03462807 9.11054941 -0.01413625 12.24841309 0.00622559 C14.49717121 0.00272495 16.74592687 -0.00293298 18.99467468 -0.0105896 C25.10418762 -0.02485526 31.21325146 -0.00775818 37.32272148 0.01569557 C43.71189088 0.03577889 50.10104117 0.02992632 56.49023438 0.02758789 C67.22042909 0.02764149 77.95040738 0.04728997 88.68054199 0.07946777 C99.71932389 0.11255884 110.75792243 0.12672602 121.79675293 0.1204834 C135.10096816 0.11299667 148.40506614 0.12036879 161.70927429 0.14213562 C166.79051337 0.15031714 171.87171203 0.15301778 176.95295715 0.15144348 C182.93494573 0.15056549 188.91671474 0.16475806 194.8986454 0.19067001 C197.09606677 0.1978412 199.29351149 0.19991088 201.490942 0.19655228 C204.48663238 0.19284651 207.48167875 0.207554 210.47729492 0.22705078 C211.35034728 0.22172286 212.22339963 0.21639493 213.12290812 0.21090555 C217.80575476 0.26361804 220.94440925 0.56040605 224.73864746 3.62145996 C226.30920952 6.76258407 225.89483563 10.12274027 225.89978027 13.57189941 C225.90474518 14.3932135 225.90971008 15.21452759 225.91482544 16.06072998 C225.92946358 18.78540883 225.93625216 21.51002945 225.94177246 24.23474121 C225.94752301 26.12562563 225.95328075 28.01651003 225.95904541 29.90739441 C225.96956041 33.87613192 225.97539966 37.84484915 225.97888184 41.81359863 C225.98436447 46.89803513 226.00838548 51.98220353 226.03685379 57.06655598 C226.05548279 60.97420533 226.06068593 64.8817902 226.06221771 68.78948021 C226.0652447 70.66376395 226.07327478 72.53804655 226.08640289 74.41228676 C226.10346721 77.03601041 226.10158216 79.65908021 226.09509277 82.28283691 C226.10430756 83.05653122 226.11352234 83.83022552 226.12301636 84.62736511 C226.08826553 89.11499709 225.60925884 92.10248055 222.73864746 95.62145996 C218.73431995 96.9562358 214.88640531 96.7660151 210.71107483 96.76190186 C209.30876308 96.76635854 209.30876308 96.76635854 207.87812179 96.77090526 C204.73209339 96.77960661 201.58610297 96.78110171 198.44006348 96.78259277 C196.18998127 96.78721985 193.93989984 96.79224436 191.68981934 96.79763794 C185.56802311 96.81077268 179.44623786 96.81720874 173.32442975 96.8216486 C169.50298174 96.82457697 165.68153675 96.82868128 161.86009026 96.83315277 C151.28200309 96.84526174 140.70391855 96.85564431 130.12582493 96.85902786 C129.44885356 96.85924743 128.7718822 96.85946699 128.07439655 96.85969321 C127.05650112 96.86002063 127.05650112 96.86002063 126.01804215 96.86035466 C124.64292816 96.86079813 123.26781418 96.86124469 121.8927002 96.86169434 C120.86954264 96.86202648 120.86954264 96.86202648 119.82571524 96.86236534 C108.7675843 96.86631528 97.70951918 96.8837759 86.65141369 96.90705386 C75.30144984 96.93075366 63.95153017 96.94297093 52.60153717 96.94439578 C46.2275656 96.94544599 39.85368689 96.95139983 33.47973824 96.96921539 C27.48715208 96.98563918 21.49472917 96.98787934 15.5021286 96.97907639 C13.29943595 96.97830301 11.09673473 96.98268802 8.89406395 96.99253464 C5.89358022 97.00516407 2.89368261 96.9994265 -0.10679626 96.98895264 C-0.9841257 96.99700904 -1.86145513 97.00506545 -2.76537031 97.01336598 C-6.2878502 96.98448783 -8.6260685 96.95951442 -11.77101231 95.28599167 C-15.03136471 91.64456816 -14.42898567 87.15590503 -14.45422363 82.55749512 C-14.46240112 81.736035 -14.47057861 80.91457489 -14.47900391 80.06822205 C-14.50382312 77.34899624 -14.52036315 74.62982244 -14.53479004 71.91052246 C-14.54011372 70.98174664 -14.54543739 70.05297081 -14.55092239 69.09605026 C-14.57763621 64.18200252 -14.59701857 59.26798005 -14.6114502 54.35388184 C-14.62480291 50.28561994 -14.65268235 46.21785803 -14.69348145 42.14978027 C-14.7427425 37.23794795 -14.76756285 32.32657001 -14.77467728 27.41450119 C-14.78139713 25.54297298 -14.79663825 23.67145519 -14.82056808 21.8000679 C-14.85215463 19.18091048 -14.85226688 16.5635114 -14.84484863 13.94421387 C-14.86125397 13.17209061 -14.8776593 12.39996735 -14.89456177 11.60444641 C-14.85220158 7.94949583 -14.4654652 5.90266777 -12.30218697 2.92230034 C-8.13017988 -0.23443923 -5.0997471 -0.07312031 0 0 Z " fill="#FEA733" transform="translate(150.2613525390625,71.3785400390625)"/>
<path d="M0 0 C5.60904962 1.56510578 10.26273271 4.27045484 15.25 7.1875 C16.14444824 7.70489746 17.03889648 8.22229492 17.96044922 8.75537109 C19.9139897 9.88573624 21.86624532 11.0183241 23.81738281 12.15283203 C27.2247003 14.13041443 30.63878076 16.09590335 34.0546875 18.05859375 C36.41160428 19.41380881 38.76832875 20.76935802 41.125 22.125 C42.25711914 22.77621826 43.38923828 23.42743652 44.55566406 24.09838867 C45.61237305 24.70787354 46.66908203 25.3173584 47.7578125 25.9453125 C48.6977002 26.48687988 49.63758789 27.02844727 50.60595703 27.58642578 C52.43820977 28.66828825 54.22955485 29.81970323 56 31 C54.34588127 35.5312295 52.10304289 39.61867618 49.75 43.8125 C49.31888916 44.58440674 48.88777832 45.35631348 48.44360352 46.15161133 C39.0429924 62.89804617 29.36480007 79.53107793 19.23193359 95.84692383 C14.43996375 103.57532633 9.85618589 111.39843776 5.375 119.3125 C3.96780165 121.78870445 2.55845344 124.2636803 1.1484375 126.73828125 C0.79755066 127.35430206 0.44666382 127.97032288 0.08514404 128.60501099 C-3.78589486 135.39242437 -7.7341228 142.13425527 -11.68530273 148.87524414 C-14.93161119 154.42424761 -18.14491635 159.9905515 -21.32421875 165.578125 C-21.68838898 166.21778198 -22.0525592 166.85743896 -22.42776489 167.51647949 C-24.20909124 170.6467642 -25.98686934 173.77899585 -27.75976562 176.9140625 C-28.71979492 178.60402344 -28.71979492 178.60402344 -29.69921875 180.328125 C-30.26471436 181.3274707 -30.83020996 182.32681641 -31.4128418 183.35644531 C-32.82028059 185.70066117 -34.31174092 187.85263895 -36 190 C-41.85881676 188.43255147 -46.58081117 185.40720977 -51.6875 182.25 C-53.48859374 181.15202088 -55.29066794 180.05564836 -57.09375 178.9609375 C-57.9496875 178.44112305 -58.805625 177.92130859 -59.6875 177.38574219 C-62.3176102 175.80967531 -64.98282751 174.31916155 -67.6875 172.875 C-72.54821741 170.26965547 -77.34653402 167.56518855 -82.125 164.8125 C-83.26521606 164.16933838 -83.26521606 164.16933838 -84.4284668 163.51318359 C-85.48868042 162.89757568 -85.48868042 162.89757568 -86.5703125 162.26953125 C-87.20727051 161.90448486 -87.84422852 161.53943848 -88.50048828 161.16333008 C-90 160 -90 160 -91 157 C-89.74140492 154.33202461 -88.41798406 151.85505243 -86.9375 149.3125 C-86.26400513 148.12914062 -86.26400513 148.12914062 -85.5769043 146.921875 C-84.0638299 144.27380295 -82.53384522 141.636091 -81 139 C-80.20287598 137.62593994 -80.20287598 137.62593994 -79.38964844 136.22412109 C-76.50460304 131.25524178 -73.60719579 126.29371797 -70.703125 121.3359375 C-66.96365411 114.94718008 -63.25874966 108.53883924 -59.5625 102.125 C-58.94028564 101.04541016 -58.31807129 99.96582031 -57.67700195 98.85351562 C-56.41488483 96.6631748 -55.15292215 94.47274498 -53.89111328 92.28222656 C-50.76319852 86.85340058 -47.63141552 81.42680719 -44.5 76 C-43.24998121 73.83334417 -41.99998122 71.6666775 -40.75 69.5 C-38.25 65.16666667 -35.75 60.83333333 -33.25 56.5 C-32.32078735 54.88931641 -32.32078735 54.88931641 -31.37280273 53.24609375 C-30.13023981 51.0923828 -28.88756511 48.93873633 -27.64477539 46.78515625 C-24.74685377 41.76315738 -21.84996651 36.74057193 -18.95724487 31.71557617 C-17.94052802 29.94954478 -16.92344342 28.18372569 -15.90625 26.41796875 C-14.63599127 24.21265845 -13.36640982 22.00695784 -12.09765625 19.80078125 C-1.62512981 1.62512981 -1.62512981 1.62512981 0 0 Z " fill="#02CCB3" transform="translate(404,203)"/>
<path d="M0 0 C2.74448567 1.02918213 4.77802501 1.80577188 7 3.75 C7.66 4.1625 8.32 4.575 9 5 C10.66767581 4.33586174 12.3341771 3.66877223 14 3 C16.67838287 2.74552441 16.67838287 2.74552441 19.61682129 2.73930359 C20.7355513 2.73221878 21.85428131 2.72513397 23.00691223 2.71783447 C24.83363716 2.7215506 24.83363716 2.7215506 26.69726562 2.7253418 C27.98718918 2.72023087 29.27711273 2.71511993 30.60612488 2.70985413 C34.13707257 2.69648458 37.66791309 2.69588305 41.19888115 2.69841743 C44.14875411 2.6994883 47.0986055 2.69460092 50.04847383 2.689812 C57.00775554 2.67872439 63.96698327 2.67827553 70.92626953 2.68432617 C78.10236516 2.69036938 85.27826489 2.67804454 92.45432711 2.6567561 C98.62007283 2.63913839 104.7857562 2.63313891 110.95152617 2.63639385 C114.63211109 2.63820622 118.31255619 2.63557502 121.99311829 2.62167931 C126.09645307 2.6067663 130.19938897 2.6160725 134.30273438 2.62768555 C135.52055099 2.62004181 136.73836761 2.61239807 137.99308777 2.60452271 C139.11181778 2.61153702 140.23054779 2.61855133 141.38317871 2.6257782 C142.83770573 2.62552659 142.83770573 2.62552659 144.32161713 2.62526989 C147.54753765 3.07660549 149.41828768 4.02990449 152 6 C153.17180914 9.95485583 153.4048133 12.06892942 151.75 15.875 C150 18 150 18 147 19 C145.22384212 19.09049716 143.44443088 19.12195639 141.66596985 19.12025452 C140.00640259 19.12231651 140.00640259 19.12231651 138.31330872 19.12442017 C137.0991478 19.12082489 135.88498688 19.11722961 134.6340332 19.11352539 C132.71679947 19.11374443 132.71679947 19.11374443 130.76083374 19.1139679 C127.25491083 19.11425512 123.74902205 19.10837044 120.24310708 19.10139394 C116.57956887 19.09514799 112.9160299 19.09455562 109.25248718 19.09336853 C102.31459154 19.09025889 95.37671163 19.08205042 88.43882293 19.07201904 C80.54047775 19.06084654 72.64213184 19.05534458 64.74378073 19.05032361 C48.49584461 19.03986752 32.24792431 19.02227515 16 19 C16.05220703 19.97839844 16.05220703 19.97839844 16.10546875 20.9765625 C16.27610432 26.48565372 16.0363889 30.19238424 13 35 C13.90529717 34.99585193 13.90529717 34.99585193 14.82888317 34.99162006 C29.51815619 34.92534991 44.20742036 34.8757144 58.89680767 34.84456348 C66.0005143 34.82909848 73.10412111 34.80801607 80.20776367 34.77368164 C87.06123108 34.74057221 93.91459463 34.72315395 100.76813698 34.71536827 C103.38485155 34.70981875 106.00156034 34.69898214 108.61823082 34.68280983 C112.27906002 34.66108088 115.93945864 34.65803125 119.6003418 34.65942383 C120.68575256 34.648638 121.77116333 34.63785217 122.88946533 34.6267395 C132.34929929 34.6657618 132.34929929 34.6657618 136 38 C137.17180914 41.95485583 137.4048133 44.06892942 135.75 47.875 C134 50 134 50 131 51 C129.41031126 51.09561092 127.81693223 51.13490013 126.22438049 51.14044189 C124.75018143 51.14900711 124.75018143 51.14900711 123.24620056 51.15774536 C122.16923416 51.15886322 121.09226776 51.15998108 119.98266602 51.16113281 C118.27989502 51.16858017 118.27989502 51.16858017 116.54272461 51.17617798 C112.77977904 51.19080812 109.01687561 51.19760236 105.25390625 51.203125 C102.64460753 51.20887488 100.03530882 51.21463263 97.42601013 51.22039795 C92.65241426 51.2299672 87.87882752 51.23586559 83.10522324 51.2388947 C76.07905578 51.24337781 69.05308263 51.26093957 62.02697426 51.2898953 C55.94063407 51.3141077 49.8543742 51.32183851 43.7679882 51.32357025 C41.17836384 51.32660312 38.58874041 51.33465286 35.99914742 51.34775543 C32.38152337 51.36475577 28.76437598 51.36295037 25.14672852 51.35644531 C24.07178635 51.3656601 22.99684418 51.37487488 21.889328 51.3843689 C20.9037088 51.37879974 19.9180896 51.37323059 18.90260315 51.36749268 C18.04738854 51.36895924 17.19217394 51.3704258 16.31104374 51.3719368 C13.46827457 50.9144247 12.11187641 49.92358631 10 48 C8.75 45.8125 8.75 45.8125 8 44 C7.58226318 44.72477539 7.16452637 45.44955078 6.73413086 46.19628906 C5.14827685 48.94740768 3.56214144 51.69836382 1.97583008 54.44921875 C0.96609926 56.20040015 -0.04332207 57.95175998 -1.05273438 59.703125 C-2.0340332 61.4046875 -2.0340332 61.4046875 -3.03515625 63.140625 C-3.68500488 64.28595703 -4.33485352 65.43128906 -5.00439453 66.61132812 C-6.32027742 68.8457855 -7.70662498 71.04040202 -9.16357422 73.18554688 C-12.83969829 78.45117937 -12.83969829 78.45117937 -13.92407227 84.57861328 C-13.17431427 87.21068167 -12.1812284 89.53235212 -11 92 C-10.27518777 93.8126919 -9.55661581 95.62788932 -8.84375 97.4453125 C-8.2712854 98.82916138 -8.2712854 98.82916138 -7.68725586 100.2409668 C3.08774973 126.41516813 5.4991783 155.02925974 -5.50390625 181.63671875 C-7.96548334 186.83865395 -10.78390926 191.69321619 -13.859375 196.546875 C-14.35679199 197.33698975 -14.85420898 198.12710449 -15.36669922 198.94116211 C-16.34520428 200.4795596 -17.34075649 202.00729567 -18.35595703 203.52172852 C-21.73335536 208.76984149 -22.71649116 212.75664227 -23 219 C-28.28 219 -33.56 219 -39 219 C-41.2899591 199.0688745 -36.7799157 188.15362039 -25.74755859 171.75585938 C-14.1533183 153.47201131 -13.39948082 127.55674292 -16.51171875 106.6640625 C-17.39609593 102.96262046 -18.56380973 99.51331864 -20 96 C-20.42410156 94.96117676 -20.84820312 93.92235352 -21.28515625 92.85205078 C-24.28187782 85.54229925 -24.28187782 85.54229925 -27.37817383 78.2746582 C-27.85794678 77.15019287 -28.33771973 76.02572754 -28.83203125 74.8671875 C-29.27264893 73.85769043 -29.7132666 72.84819336 -30.16723633 71.80810547 C-31.38451143 67.7034153 -30.66089732 65.33327922 -28.79174805 61.5625 C-28.03438354 60.2940625 -28.03438354 60.2940625 -27.26171875 59 C-26.69428955 58.04013184 -26.12686035 57.08026367 -25.54223633 56.09130859 C-24.93017334 55.07117676 -24.31811035 54.05104492 -23.6875 53 C-22.41325862 50.8468297 -21.1398372 48.69317396 -19.8671875 46.5390625 C-19.22233398 45.45141602 -18.57748047 44.36376953 -17.91308594 43.24316406 C-15.00383485 38.31124836 -12.15275125 33.34688449 -9.3125 28.375 C-8.57422974 27.08916016 -8.57422974 27.08916016 -7.82104492 25.77734375 C-6.53405765 23.52539752 -5.2640479 21.2648761 -4 19 C-3.40960938 17.9584375 -2.81921875 16.916875 -2.2109375 15.84375 C-0.79123627 12.50974195 -0.49667931 9.73491448 -0.3125 6.125 C-0.24675781 4.97257812 -0.18101562 3.82015625 -0.11328125 2.6328125 C-0.07589844 1.76398438 -0.03851563 0.89515625 0 0 Z " fill="#D8D6D9" transform="translate(167,269)"/>
<path d="M0 0 C0.33 0 0.66 0 1 0 C1.25069971 5.95469664 1.43024549 11.90620535 1.54931641 17.86499023 C1.59903585 19.88343917 1.66684266 21.90153911 1.75439453 23.91870117 C2.3586803 38.21894623 0.64658938 47.47196029 -7.72253418 59.17367554 C-9.57679058 61.82460659 -11.14666324 64.61490795 -12.73046875 67.43359375 C-14.51622302 70.53690326 -16.30454674 73.63822169 -18.1081543 76.73120117 C-21.41945658 82.42634679 -24.62587293 88.14624663 -27.6640625 93.9921875 C-34.8721917 107.6286134 -41.4157823 116.65294915 -54.70605469 124.58886719 C-58.60540883 126.98757589 -62.25204307 129.72627577 -65.9375 132.4375 C-67.42386079 133.51127317 -68.91084479 134.58418417 -70.3984375 135.65625 C-76.0880848 139.77811609 -81.73507435 143.95822095 -87.36889648 148.15600586 C-92.47266976 151.94036793 -97.682173 155.52304981 -103 159 C-102.26888433 149.29676671 -101.17851034 139.65691972 -100 130 C-100.75676025 130.53741821 -100.75676025 130.53741821 -101.52880859 131.08569336 C-103.80986028 132.70439405 -106.09240912 134.3209706 -108.375 135.9375 C-109.1690625 136.50146484 -109.963125 137.06542969 -110.78125 137.64648438 C-111.54179687 138.18466797 -112.30234375 138.72285156 -113.0859375 139.27734375 C-113.7876709 139.77484131 -114.4894043 140.27233887 -115.21240234 140.78491211 C-117 142 -117 142 -119 143 C-117.68913523 127.18369656 -116.14423455 111.40314914 -114.4375 95.625 C-114.2139862 93.54168881 -113.99067838 91.45835551 -113.76757812 89.375 C-112.86021995 80.91494075 -111.94355596 72.45610459 -111 64 C-104.03089555 67.92861061 -97.10468972 71.89620881 -90.3125 76.125 C-85.63265859 79.02875702 -80.90420419 81.75372749 -76.046875 84.34765625 C-73.62273602 85.66228546 -71.2226781 87.00408628 -68.828125 88.37109375 C-68.10278564 88.78431885 -67.37744629 89.19754395 -66.63012695 89.62329102 C-65.18667695 90.44731597 -63.74505187 91.27454725 -62.30541992 92.10522461 C-58.87193536 94.25345189 -58.87193536 94.25345189 -55 95 C-54.43623657 94.02281006 -54.43623657 94.02281006 -53.86108398 93.02587891 C-45.02624512 77.7121582 -45.02624512 77.7121582 -36.19140625 62.3984375 C-35.58071289 61.33987549 -34.97001953 60.28131348 -34.34082031 59.19067383 C-33.10719016 57.05243611 -31.87346523 54.91425307 -30.63964844 52.77612305 C-27.44895254 47.24655542 -24.26005015 41.71596566 -21.07421875 36.18359375 C-17.38908793 29.78542677 -13.69741347 23.39107637 -10 17 C-9.46874512 16.0807373 -8.93749023 15.16147461 -8.39013672 14.21435547 C-6.97269666 11.76538719 -5.55004585 9.31954816 -4.125 6.875 C-3.71403076 6.16400146 -3.30306152 5.45300293 -2.87963867 4.72045898 C-1.94826737 3.12993219 -0.97882574 1.56177084 0 0 Z " fill="#D7D6D9" transform="translate(423,297)"/>
<path d="M0 0 C4.18056254 0.59055034 7.12061861 2.01277361 10.73828125 4.16015625 C11.80498047 4.78857422 12.87167969 5.41699219 13.97070312 6.06445312 C15.07349609 6.72380859 16.17628906 7.38316406 17.3125 8.0625 C18.99569336 9.05733398 18.99569336 9.05733398 20.71289062 10.07226562 C23.4791287 11.70846602 26.2412485 13.35121864 29 15 C27.85138815 17.96470328 26.65282613 20.80233962 25.109375 23.58203125 C24.73675537 24.25451904 24.36413574 24.92700684 23.98022461 25.61987305 C23.37126343 26.70522339 23.37126343 26.70522339 22.75 27.8125 C22.31888916 28.58440674 21.88777832 29.35631348 21.44360352 30.15161133 C12.0429924 46.89804617 2.36480007 63.53107793 -7.76806641 79.84692383 C-12.56003625 87.57532633 -17.14381411 95.39843776 -21.625 103.3125 C-23.03219835 105.78870445 -24.44154656 108.2636803 -25.8515625 110.73828125 C-26.20244934 111.35430206 -26.55333618 111.97032288 -26.91485596 112.60501099 C-30.78589486 119.39242437 -34.7341228 126.13425527 -38.68530273 132.87524414 C-41.93161119 138.42424761 -45.14491635 143.9905515 -48.32421875 149.578125 C-48.68838898 150.21778198 -49.0525592 150.85743896 -49.42776489 151.51647949 C-51.20909124 154.6467642 -52.98686934 157.77899585 -54.75976562 160.9140625 C-55.71979492 162.60402344 -55.71979492 162.60402344 -56.69921875 164.328125 C-57.26471436 165.3274707 -57.83020996 166.32681641 -58.4128418 167.35644531 C-59.82028059 169.70066117 -61.31174092 171.85263895 -63 174 C-69.02595006 172.39108133 -74.01921611 169.25364821 -79.3125 166.0625 C-80.69018555 165.25522461 -80.69018555 165.25522461 -82.09570312 164.43164062 C-82.96775391 163.90892578 -83.83980469 163.38621094 -84.73828125 162.84765625 C-85.53274658 162.37336182 -86.32721191 161.89906738 -87.14575195 161.41040039 C-89 160 -89 160 -90 157 C-88.98706055 154.63427734 -88.98706055 154.63427734 -87.38671875 151.8359375 C-86.80349854 150.8054126 -86.22027832 149.7748877 -85.61938477 148.71313477 C-84.98186279 147.61155029 -84.34434082 146.50996582 -83.6875 145.375 C-83.04031006 144.23925537 -82.39312012 143.10351074 -81.72631836 141.93334961 C-77.43823581 134.42880628 -73.08112872 126.96512806 -68.671875 119.53125 C-65.33998092 113.90132145 -62.07852327 108.2308083 -58.8125 102.5625 C-58.17449463 101.45527588 -57.53648926 100.34805176 -56.87915039 99.20727539 C-55.57110523 96.93662932 -54.26324552 94.66587642 -52.95556641 92.39501953 C-49.80667946 86.9283002 -46.65316736 81.46425113 -43.5 76 C-42.2499765 73.83334689 -40.99997653 71.66668021 -39.75 69.5 C-32.25 56.5 -32.25 56.5 -30.37280273 53.24633789 C-29.12995767 51.0919759 -27.88728033 48.93751715 -26.64477539 46.78295898 C-23.75204063 41.76729036 -20.85779254 36.75251769 -17.95724487 31.74136353 C-16.93982294 29.98341931 -15.92295539 28.22515558 -14.90625 26.46679688 C-13.6378119 24.27345599 -12.36835898 22.08070153 -11.09765625 19.88867188 C-7.29651071 13.31269009 -3.60438742 6.6858628 0 0 Z " fill="#00B39D" transform="translate(431,219)"/>
<path d="M0 0 C1.25680879 -0.00958323 1.25680879 -0.00958323 2.53900766 -0.01936007 C5.34529872 -0.03461508 8.1501791 -0.0141458 10.9564209 0.00622559 C12.96872933 0.00272454 14.981035 -0.00293385 16.99333191 -0.0105896 C22.45825678 -0.02484952 27.92267922 -0.00776397 33.38755608 0.01569557 C39.10407204 0.03578654 44.82056679 0.02992593 50.53710938 0.02758789 C60.13741351 0.02764148 69.73752095 0.04740979 79.33776855 0.07946777 C90.44012923 0.11636131 101.5422322 0.1251435 112.64464617 0.11817026 C123.32072464 0.11186702 133.99671465 0.12261627 144.67277527 0.14213562 C149.21812703 0.15031461 153.76343361 0.15301824 158.30879211 0.15144348 C163.66043568 0.15056513 169.01183399 0.1647676 174.36341286 0.19067001 C176.32862471 0.19783781 178.29386265 0.1999125 180.2590847 0.19655228 C182.93951022 0.1928431 185.61921777 0.20756542 188.29956055 0.22705078 C189.07923014 0.22172286 189.85889974 0.21639493 190.66219568 0.21090555 C195.13527552 0.2670954 198.15639496 0.73465341 201.64978027 3.62145996 C202.82158941 7.57631579 203.05459357 9.69038938 201.39978027 13.49645996 C199.64978027 15.62145996 199.64978027 15.62145996 196.64978027 16.62145996 C193.93584899 16.72166583 191.24748531 16.76489324 188.53334045 16.76190186 C187.69647121 16.76487298 186.85960196 16.7678441 185.99737304 16.77090526 C183.18301243 16.77960201 180.36869429 16.78110132 177.55432129 16.78259277 C175.54068918 16.78722017 173.52705794 16.79224473 171.51342773 16.79763794 C166.03623909 16.81076953 160.55906271 16.81720812 155.08186078 16.8216486 C151.66243591 16.82457747 148.24301441 16.82868187 144.82359123 16.83315277 C134.13205943 16.8468283 123.44053531 16.85649528 112.74899536 16.86035466 C100.39353646 16.86483885 88.03818799 16.88240327 75.68276268 16.91135526 C66.14046582 16.93294197 56.59820009 16.94305729 47.05587906 16.94439578 C41.35259919 16.94544576 35.64942313 16.95139482 29.9461689 16.96921539 C24.58393276 16.98564456 19.22187904 16.98787673 13.85962677 16.97907639 C11.88914185 16.9783033 9.91864733 16.98268427 7.94818687 16.99253464 C5.26297271 17.00517335 2.57841261 16.99942164 -0.10679626 16.98895264 C-0.89074294 16.99700904 -1.67468962 17.00506545 -2.48239225 17.01336598 C-5.7220268 16.98372368 -7.97252558 16.83683266 -10.81636143 15.21519089 C-12.60343256 13.35836322 -13.06208812 12.28483525 -13.41271973 9.74645996 C-13.52744629 9.08903809 -13.64217285 8.43161621 -13.76037598 7.75427246 C-12.39271721 0.6424469 -6.09296638 -0.09782455 0 0 Z " fill="#BCBEC0" transform="translate(165.3502197265625,207.3785400390625)"/>
<path d="M0 0 C1.10851927 -0.00701996 1.10851927 -0.00701996 2.23943287 -0.01418173 C4.71685684 -0.02615203 7.19372972 -0.01666676 9.67115784 -0.00723267 C11.4468671 -0.01129751 13.22257383 -0.01663889 14.99827576 -0.02316284 C19.82266385 -0.03685367 24.64685974 -0.03153024 29.47125125 -0.02202559 C34.51779627 -0.01443696 39.5643247 -0.02147249 44.61087036 -0.02618408 C53.08721372 -0.03164446 61.56347871 -0.02444314 70.03981018 -0.01016235 C79.84077249 0.00615943 89.64154754 0.0008802 99.4425053 -0.01564157 C107.85450037 -0.02925467 116.26643906 -0.03117679 124.67844158 -0.02332556 C129.70376439 -0.01864741 134.72899917 -0.01802802 139.75431633 -0.02793503 C144.47968054 -0.03659964 149.20480333 -0.03059197 153.93014145 -0.01325226 C155.66476478 -0.0092845 157.39940841 -0.01042641 159.13402367 -0.01704025 C161.50140749 -0.02523464 163.8680171 -0.01496012 166.23535156 0 C166.92232052 -0.00669217 167.60928947 -0.01338433 168.31707567 -0.02027929 C172.57794789 0.03196949 175.33841006 0.69173157 178.6811676 3.38095093 C179.85297674 7.33580676 180.0859809 9.44988035 178.4311676 13.25595093 C176.6811676 15.38095093 176.6811676 15.38095093 173.6811676 16.38095093 C171.2575333 16.48682831 168.86197101 16.53747489 166.43789673 16.5415802 C165.32347542 16.54921193 165.32347542 16.54921193 164.18654054 16.55699784 C161.69004114 16.5727294 159.19357069 16.5812491 156.69703674 16.58969116 C154.91000179 16.59922874 153.12296869 16.60911986 151.3359375 16.61933899 C145.46275525 16.65072421 139.58955881 16.6709854 133.71632385 16.68954468 C132.71776768 16.692842 131.71921152 16.69613932 130.69039607 16.69953656 C121.27776442 16.73030823 111.8651296 16.75702116 102.4524622 16.77395535 C90.40259714 16.79588723 78.35317623 16.83791799 66.30348879 16.90739292 C57.83549772 16.95456514 49.3676268 16.97887951 40.89950842 16.98615223 C35.83880785 16.99111722 30.77860794 17.00627901 25.71805 17.04589653 C20.95973581 17.0826585 16.20221042 17.09120717 11.4437809 17.0778904 C9.6958018 17.07794451 7.94778865 17.08830909 6.19993973 17.10964203 C3.81613908 17.13718615 1.43524316 17.12788086 -0.94857788 17.10920715 C-1.99026018 17.13439955 -1.99026018 17.13439955 -3.05298656 17.16010088 C-4.99265957 17.12203121 -4.99265957 17.12203121 -8.3188324 16.38095093 C-11.34255411 12.92172227 -12.3188324 11.31910625 -12.3188324 6.69345093 C-10.35331391 0.18267093 -6.17415698 -0.05995139 0 0 Z " fill="#BCBEC0" transform="translate(164.31883239746094,239.61904907226563)"/>
<path d="M0 0 C6.96910445 3.92861061 13.89531028 7.89620881 20.6875 12.125 C25.32360646 15.00027757 30.00462274 17.70560147 34.8125 20.28125 C39.12583254 22.60706657 43.40567286 24.99180154 47.6875 27.375 C48.50307373 27.82858887 49.31864746 28.28217773 50.15893555 28.74951172 C52.10617109 29.83262387 54.05319306 30.91611773 56 32 C52.39244531 35.93808981 48.20663177 38.86235094 43.875 41.9375 C42.24604845 43.10410342 40.61714348 44.27077187 38.98828125 45.4375 C38.1576416 46.03046875 37.32700195 46.6234375 36.47119141 47.234375 C32.66006655 49.95736008 28.8604565 52.6961906 25.0625 55.4375 C24.33313232 55.9631958 23.60376465 56.4888916 22.85229492 57.03051758 C16.28704532 61.77140946 9.77255186 66.5803669 3.27954102 71.41967773 C2.53115967 71.97469971 1.78277832 72.52972168 1.01171875 73.1015625 C0.35647217 73.58963379 -0.29877441 74.07770508 -0.97387695 74.58056641 C-3.25054137 76.17552085 -5.6027213 77.59436671 -8 79 C-6.68913523 63.18369656 -5.14423455 47.40314914 -3.4375 31.625 C-3.2139862 29.54168881 -2.99067838 27.45835551 -2.76757812 25.375 C-1.86021995 16.91494075 -0.94355596 8.45610459 0 0 Z " fill="#ABABB1" transform="translate(312,361)"/>
<path d="M0 0 C1.28992355 -0.00554901 2.57984711 -0.01109802 3.90885925 -0.01681519 C7.44006301 -0.03104557 10.97048642 -0.01401989 14.50161552 0.00946999 C18.20017049 0.02960069 21.89869375 0.02369828 25.59729004 0.0213623 C31.80799199 0.02141585 38.01838947 0.0411583 44.22900391 0.07324219 C51.40512854 0.11013413 58.5808544 0.11891753 65.75706148 0.11194468 C72.66570695 0.10563518 79.57421594 0.11640218 86.48283386 0.13591003 C89.42052661 0.14407593 92.35814952 0.14679508 95.29585266 0.1452179 C99.3992621 0.14417419 103.50214772 0.1683704 107.60546875 0.1953125 C109.43219368 0.1909166 109.43219368 0.1909166 111.29582214 0.18643188 C112.41455215 0.19778168 113.53328217 0.20913147 114.68591309 0.2208252 C115.65559776 0.22455391 116.62528244 0.22828262 117.6243515 0.23212433 C120.84545115 0.6928634 122.72282749 1.64798851 125.30273438 3.61523438 C126.47454351 7.57009021 126.70754767 9.68416379 125.05273438 13.49023438 C123.30273438 15.61523438 123.30273438 15.61523438 120.30273438 16.61523438 C118.51038537 16.71197221 116.71464231 16.75018776 114.91969299 16.75567627 C113.80226715 16.76138641 112.68484131 16.76709656 111.53355408 16.77297974 C110.30697586 16.7740976 109.08039764 16.77521545 107.81665039 16.77636719 C105.8797937 16.78381454 105.8797937 16.78381454 103.90380859 16.79141235 C100.36044275 16.8045276 96.81709585 16.81097931 93.27370954 16.81542301 C91.06035371 16.81835446 88.84700305 16.82245935 86.63364983 16.82692719 C79.70957035 16.84059828 72.78550271 16.85026748 65.86141068 16.85412908 C57.86628476 16.85861249 49.87132957 16.876175 41.87625557 16.90512967 C35.69698693 16.92673245 29.51776639 16.93683256 23.33846039 16.93817019 C19.64724567 16.93921901 15.95619154 16.94514317 12.26501656 16.96298981 C8.14930952 16.98250256 4.033961 16.97818718 -0.08178711 16.97167969 C-1.30634109 16.98089447 -2.53089508 16.99010925 -3.79255676 16.99960327 C-5.47292526 16.99124954 -5.47292526 16.99124954 -7.1872406 16.98272705 C-8.64704676 16.98492689 -8.64704676 16.98492689 -10.13634396 16.98717117 C-13.13799746 16.55122446 -14.49980972 15.66964997 -16.69726562 13.61523438 C-17.48242188 11.74804688 -17.48242188 11.74804688 -17.75976562 9.74023438 C-17.87449219 9.0828125 -17.98921875 8.42539062 -18.10742188 7.74804688 C-17.59852832 5.10180039 -16.51499395 3.54437863 -14.57403564 1.69447327 C-10.25870377 -0.7870636 -4.82780189 -0.05257961 0 0 Z " fill="#BCBEC0" transform="translate(193.697265625,271.384765625)"/>
<path d="M0 0 C1.70079964 -0.00832352 1.70079964 -0.00832352 3.43595886 -0.01681519 C7.18364735 -0.02862501 10.93013045 -0.00432053 14.67773438 0.02148438 C17.28177841 0.02319516 19.88582417 0.02313013 22.48986816 0.0213623 C27.94733302 0.02141584 33.40445119 0.04114814 38.86181641 0.07324219 C45.16545045 0.11013354 51.46863051 0.11891739 57.77235842 0.11194468 C63.84380714 0.10563272 69.91507565 0.11662028 75.98649597 0.13591003 C78.56690207 0.14294482 81.14732188 0.14606399 83.72773743 0.1452179 C87.33306708 0.14701417 90.93775069 0.16838292 94.54296875 0.1953125 C95.61117355 0.1923819 96.67937836 0.18945129 97.779953 0.18643188 C107.10318372 0.2939579 107.10318372 0.2939579 110.77148438 3.61523438 C111.94329351 7.57009021 112.17629767 9.68416379 110.52148438 13.49023438 C108.77148438 15.61523438 108.77148438 15.61523438 105.77148438 16.61523438 C104.18179564 16.7108453 102.5884166 16.75013451 100.99586487 16.75567627 C99.5216658 16.76424149 99.5216658 16.76424149 98.01768494 16.77297974 C96.94071854 16.7740976 95.86375214 16.77521545 94.75415039 16.77636719 C93.05137939 16.78381454 93.05137939 16.78381454 91.31420898 16.79141235 C87.55126342 16.8060425 83.78835998 16.81283673 80.02539062 16.81835938 C77.4160919 16.82410925 74.8067932 16.829867 72.19749451 16.83563232 C67.42389864 16.84520158 62.65031189 16.85109996 57.87670761 16.85412908 C50.85054015 16.85861219 43.824567 16.87617395 36.79845864 16.90512967 C30.71211845 16.92934207 24.62585858 16.93707289 18.53947258 16.93880463 C15.94984821 16.9418375 13.36022479 16.94988723 10.77063179 16.96298981 C7.15300774 16.97999014 3.53586036 16.97818475 -0.08178711 16.97167969 C-1.15672928 16.98089447 -2.23167145 16.99010925 -3.33918762 16.99960327 C-4.32480682 16.99403412 -5.31042603 16.98846497 -6.32591248 16.98272705 C-7.18112708 16.98419361 -8.03634169 16.98566017 -8.91747189 16.98717117 C-11.75234679 16.53092957 -13.12688492 15.53725857 -15.22851562 13.61523438 C-16.01367188 11.74804688 -16.01367188 11.74804688 -16.29101562 9.74023438 C-16.40574219 9.0828125 -16.52046875 8.42539062 -16.63867188 7.74804688 C-14.99964707 -0.77488212 -6.79994156 -0.08443071 0 0 Z " fill="#BCBEC0" transform="translate(192.228515625,303.384765625)"/>
<path d="M0 0 C0.9778093 -0.00554901 1.95561859 -0.01109802 2.96305847 -0.01681519 C6.19136748 -0.02861436 9.41827378 -0.00433254 12.64648438 0.02148438 C14.89180436 0.02319546 17.13712635 0.02312982 19.38244629 0.0213623 C24.08670174 0.02301571 28.79048076 0.04171827 33.49462891 0.07324219 C39.52404007 0.11291941 45.55282712 0.11728746 51.58234406 0.10977936 C56.2183402 0.10670954 60.85419609 0.11883071 65.49015808 0.13591003 C67.71330383 0.14294039 69.93646548 0.14606452 72.15962219 0.1452179 C75.26686319 0.14701597 78.37335698 0.16839946 81.48046875 0.1953125 C82.39906174 0.1923819 83.31765472 0.18945129 84.26408386 0.18643188 C89.00814635 0.24981691 92.4814055 0.37199604 96.24023438 3.61523438 C97.41204351 7.57009021 97.64504767 9.68416379 95.99023438 13.49023438 C94.24023438 15.61523438 94.24023438 15.61523438 91.24023438 16.61523438 C89.85324128 16.70942498 88.46221307 16.75006411 87.07203674 16.75567627 C85.79977737 16.76424149 85.79977737 16.76424149 84.5018158 16.77297974 C83.57446121 16.7740976 82.64710663 16.77521545 81.69165039 16.77636719 C80.71252686 16.78133209 79.73340332 16.786297 78.72460938 16.79141235 C75.48111269 16.80603449 72.23766488 16.81283538 68.99414062 16.81835938 C66.74356586 16.82410991 64.49299111 16.82986765 62.24241638 16.83563232 C57.5222043 16.84614186 52.80200925 16.85198513 48.08178711 16.85546875 C42.02763241 16.8609594 35.97370193 16.88499995 29.91961765 16.9134407 C25.27084184 16.93204339 20.62212036 16.93727138 15.97331047 16.93880463 C13.74094349 16.94183604 11.50857757 16.94988092 9.27624702 16.96298981 C6.15672736 16.98000377 3.03775985 16.97818155 -0.08178711 16.97167969 C-1.00711746 16.98089447 -1.93244781 16.99010925 -2.88581848 16.99960327 C-9.13522323 16.95870528 -9.13522323 16.95870528 -12.31556702 15.20965576 C-14.00202793 13.34777241 -14.47981921 12.21935349 -14.82226562 9.74023438 C-14.93699219 9.0828125 -15.05171875 8.42539062 -15.16992188 7.74804688 C-13.6423328 -0.19541629 -6.45831685 -0.09324939 0 0 Z " fill="#BCBEC0" transform="translate(190.759765625,431.384765625)"/>
<path d="M0 0 C0.9778093 -0.00554901 1.95561859 -0.01109802 2.96305847 -0.01681519 C6.19136748 -0.02861436 9.41827378 -0.00433254 12.64648438 0.02148438 C14.89180436 0.02319546 17.13712635 0.02312982 19.38244629 0.0213623 C24.08670174 0.02301571 28.79048076 0.04171827 33.49462891 0.07324219 C39.52404007 0.11291941 45.55282712 0.11728746 51.58234406 0.10977936 C56.2183402 0.10670954 60.85419609 0.11883071 65.49015808 0.13591003 C67.71330383 0.14294039 69.93646548 0.14606452 72.15962219 0.1452179 C75.26686319 0.14701597 78.37335698 0.16839946 81.48046875 0.1953125 C82.39906174 0.1923819 83.31765472 0.18945129 84.26408386 0.18643188 C89.00814635 0.24981691 92.4814055 0.37199604 96.24023438 3.61523438 C97.41204351 7.57009021 97.64504767 9.68416379 95.99023438 13.49023438 C94.24023438 15.61523438 94.24023438 15.61523438 91.24023438 16.61523438 C89.85324128 16.70942498 88.46221307 16.75006411 87.07203674 16.75567627 C85.79977737 16.76424149 85.79977737 16.76424149 84.5018158 16.77297974 C83.57446121 16.7740976 82.64710663 16.77521545 81.69165039 16.77636719 C80.71252686 16.78133209 79.73340332 16.786297 78.72460938 16.79141235 C75.48111269 16.80603449 72.23766488 16.81283538 68.99414062 16.81835938 C66.74356586 16.82410991 64.49299111 16.82986765 62.24241638 16.83563232 C57.5222043 16.84614186 52.80200925 16.85198513 48.08178711 16.85546875 C42.02763241 16.8609594 35.97370193 16.88499995 29.91961765 16.9134407 C25.27084184 16.93204339 20.62212036 16.93727138 15.97331047 16.93880463 C13.74094349 16.94183604 11.50857757 16.94988092 9.27624702 16.96298981 C6.15672736 16.98000377 3.03775985 16.97818155 -0.08178711 16.97167969 C-1.00711746 16.98089447 -1.93244781 16.99010925 -2.88581848 16.99960327 C-9.13522323 16.95870528 -9.13522323 16.95870528 -12.31556702 15.20965576 C-14.00202793 13.34777241 -14.47981921 12.21935349 -14.82226562 9.74023438 C-14.93699219 9.0828125 -15.05171875 8.42539062 -15.16992188 7.74804688 C-13.6423328 -0.19541629 -6.45831685 -0.09324939 0 0 Z " fill="#BCBEC0" transform="translate(190.759765625,399.384765625)"/>
<path d="M0 0 C0.9778093 -0.00554901 1.95561859 -0.01109802 2.96305847 -0.01681519 C6.19136748 -0.02861436 9.41827378 -0.00433254 12.64648438 0.02148438 C14.89180436 0.02319546 17.13712635 0.02312982 19.38244629 0.0213623 C24.08670174 0.02301571 28.79048076 0.04171827 33.49462891 0.07324219 C39.52404007 0.11291941 45.55282712 0.11728746 51.58234406 0.10977936 C56.2183402 0.10670954 60.85419609 0.11883071 65.49015808 0.13591003 C67.71330383 0.14294039 69.93646548 0.14606452 72.15962219 0.1452179 C75.26686319 0.14701597 78.37335698 0.16839946 81.48046875 0.1953125 C82.39906174 0.1923819 83.31765472 0.18945129 84.26408386 0.18643188 C89.00814635 0.24981691 92.4814055 0.37199604 96.24023438 3.61523438 C97.41204351 7.57009021 97.64504767 9.68416379 95.99023438 13.49023438 C94.24023438 15.61523438 94.24023438 15.61523438 91.24023438 16.61523438 C89.85324128 16.70942498 88.46221307 16.75006411 87.07203674 16.75567627 C85.79977737 16.76424149 85.79977737 16.76424149 84.5018158 16.77297974 C83.57446121 16.7740976 82.64710663 16.77521545 81.69165039 16.77636719 C80.71252686 16.78133209 79.73340332 16.786297 78.72460938 16.79141235 C75.48111269 16.80603449 72.23766488 16.81283538 68.99414062 16.81835938 C66.74356586 16.82410991 64.49299111 16.82986765 62.24241638 16.83563232 C57.5222043 16.84614186 52.80200925 16.85198513 48.08178711 16.85546875 C42.02763241 16.8609594 35.97370193 16.88499995 29.91961765 16.9134407 C25.27084184 16.93204339 20.62212036 16.93727138 15.97331047 16.93880463 C13.74094349 16.94183604 11.50857757 16.94988092 9.27624702 16.96298981 C6.15672736 16.98000377 3.03775985 16.97818155 -0.08178711 16.97167969 C-1.00711746 16.98089447 -1.93244781 16.99010925 -2.88581848 16.99960327 C-9.13522323 16.95870528 -9.13522323 16.95870528 -12.31556702 15.20965576 C-14.00202793 13.34777241 -14.47981921 12.21935349 -14.82226562 9.74023438 C-14.93699219 9.0828125 -15.05171875 8.42539062 -15.16992188 7.74804688 C-13.6423328 -0.19541629 -6.45831685 -0.09324939 0 0 Z " fill="#BCBEC0" transform="translate(190.759765625,367.384765625)"/>
<path d="M0 0 C0.9778093 -0.00554901 1.95561859 -0.01109802 2.96305847 -0.01681519 C6.19136748 -0.02861436 9.41827378 -0.00433254 12.64648438 0.02148438 C14.89180436 0.02319546 17.13712635 0.02312982 19.38244629 0.0213623 C24.08670174 0.02301571 28.79048076 0.04171827 33.49462891 0.07324219 C39.52404007 0.11291941 45.55282712 0.11728746 51.58234406 0.10977936 C56.2183402 0.10670954 60.85419609 0.11883071 65.49015808 0.13591003 C67.71330383 0.14294039 69.93646548 0.14606452 72.15962219 0.1452179 C75.26686319 0.14701597 78.37335698 0.16839946 81.48046875 0.1953125 C82.39906174 0.1923819 83.31765472 0.18945129 84.26408386 0.18643188 C89.00814635 0.24981691 92.4814055 0.37199604 96.24023438 3.61523438 C97.41204351 7.57009021 97.64504767 9.68416379 95.99023438 13.49023438 C94.24023438 15.61523438 94.24023438 15.61523438 91.24023438 16.61523438 C89.85324128 16.70942498 88.46221307 16.75006411 87.07203674 16.75567627 C85.79977737 16.76424149 85.79977737 16.76424149 84.5018158 16.77297974 C83.57446121 16.7740976 82.64710663 16.77521545 81.69165039 16.77636719 C80.71252686 16.78133209 79.73340332 16.786297 78.72460938 16.79141235 C75.48111269 16.80603449 72.23766488 16.81283538 68.99414062 16.81835938 C66.74356586 16.82410991 64.49299111 16.82986765 62.24241638 16.83563232 C57.5222043 16.84614186 52.80200925 16.85198513 48.08178711 16.85546875 C42.02763241 16.8609594 35.97370193 16.88499995 29.91961765 16.9134407 C25.27084184 16.93204339 20.62212036 16.93727138 15.97331047 16.93880463 C13.74094349 16.94183604 11.50857757 16.94988092 9.27624702 16.96298981 C6.15672736 16.98000377 3.03775985 16.97818155 -0.08178711 16.97167969 C-1.00711746 16.98089447 -1.93244781 16.99010925 -2.88581848 16.99960327 C-9.13522323 16.95870528 -9.13522323 16.95870528 -12.31556702 15.20965576 C-14.00202793 13.34777241 -14.47981921 12.21935349 -14.82226562 9.74023438 C-14.93699219 9.0828125 -15.05171875 8.42539062 -15.16992188 7.74804688 C-13.6423328 -0.19541629 -6.45831685 -0.09324939 0 0 Z " fill="#BCBEC0" transform="translate(190.759765625,335.384765625)"/>
<path d="M0 0 C3.17694643 1.22211547 6.17062184 2.55249995 9.14453125 4.20703125 C9.90443359 4.62919922 10.66433594 5.05136719 11.44726562 5.48632812 C12.22779297 5.92396484 13.00832031 6.36160156 13.8125 6.8125 C14.58142578 7.23853516 15.35035156 7.66457031 16.14257812 8.10351562 C21.19322486 10.92079621 26.12612754 13.88722568 31 17 C27.03609575 21.25091884 22.72083334 24.46883961 17.9375 27.75 C16.42608641 28.80065065 14.91567676 29.85274694 13.40625 30.90625 C12.66375 31.42445313 11.92125 31.94265625 11.15625 32.4765625 C6.35292894 35.87021325 1.67519581 39.43279857 -3 43 C-3.8410324 40.15033634 -4.06226726 37.91449438 -3.74633789 34.96582031 C-3.66617935 34.18531311 -3.58602081 33.40480591 -3.50343323 32.60064697 C-3.41077682 31.76821472 -3.31812042 30.93578247 -3.22265625 30.078125 C-3.13245712 29.21813904 -3.042258 28.35815308 -2.94932556 27.47210693 C-2.66026983 24.73066237 -2.36151543 21.99037434 -2.0625 19.25 C-1.86459385 17.38939094 -1.66732072 15.52871442 -1.47070312 13.66796875 C-0.98780545 9.11116452 -0.49620804 4.55537324 0 0 Z " fill="#8A8991" transform="translate(308,397)"/>
</svg>
